<svg width="111" height="29" viewBox="0 0 111 29" fill="none" xmlns="http://www.w3.org/2000/svg"><rect x=".426" width="109.626" height="28.99" rx="14.495" fill="#171A22"/><path d="M19.803 18.96h1.47v-8.495h2.994V9.112H16.81v1.353h2.994v8.496zm6.2 0h1.47v-4.149h1.773l2.718 4.15h1.707l-2.876-4.4c1.182-.327 1.996-1.246 1.996-2.6 0-1.706-1.274-2.849-3.112-2.849h-3.677v9.849zm3.676-8.521c.985 0 1.641.617 1.641 1.523 0 .906-.656 1.523-1.667 1.523h-2.18V10.44h2.206zm7.355 8.522h1.47v-4.294l3.572-5.555h-1.641l-2.64 4.15-2.626-4.15h-1.707l3.572 5.555v4.294zm9.473 0h1.47V9.112h-1.47v9.849zm6.188 0h1.47v-8.496h2.995V9.112H49.7v1.353h2.994v8.496zm9.085 0h1.47v-4.373h3.402v-1.326H63.25v-2.823h4.622V9.112H61.78v9.849zm7.784 0h1.47v-4.15h1.773l2.718 4.15h1.707l-2.875-4.4c1.181-.327 1.996-1.246 1.996-2.6 0-1.706-1.274-2.849-3.112-2.849h-3.677v9.849zm3.677-8.522c.984 0 1.64.617 1.64 1.523 0 .906-.656 1.523-1.667 1.523h-2.18V10.44h2.206zm5.645 8.522h6.422v-1.326h-4.95v-3.178h3.387V13.13h-3.388v-2.692h4.82V9.112h-6.29v9.849zm8.259 0h6.421v-1.326h-4.95v-3.178h3.387V13.13h-3.388v-2.692h4.82V9.112h-6.29v9.849z" fill="#fff"/></svg>