<svg width="285" height="1039" viewBox="0 0 285 1039" fill="none" xmlns="http://www.w3.org/2000/svg"><path d="M5.525 23.683V52h21.787c11.573 0 20.236-6.724 20.236-17.585 0-3.232-.776-6.53-2.521-9.051.323-1.487.517-2.974.517-4.396 0-10.021-7.37-18.167-18.878-18.167-12.025 0-21.14 8.857-21.14 20.882zm8.275 0c0-8.081 5.431-13.641 12.995-13.641 5.754 0 9.633 3.49 10.474 8.857-2.716-1.94-5.56-2.715-8.405-2.715-6.918 0-11.702 4.654-11.702 11.184 0 6.4 5.043 11.055 12.09 11.055 4.202 0 7.564-1.68 10.085-4.72v.066c0 7.24-5.56 10.732-12.025 10.732H13.8V23.683zm11.25 3.62c0-2.52 2.133-4.137 4.848-4.137 2.393 0 4.72 1.164 6.53 3.556-1.422 3.168-4.008 4.72-6.53 4.72-2.715 0-4.848-1.552-4.848-4.139zM54.697 52H87.41v-7.952H63.554V30.73h16.033v-7.952H63.554V11.464h23.21V3.512H54.697V52zm52.973 0h19.201c9.116 0 15.193-5.495 15.193-14.03 0-5.495-2.78-9.503-8.211-11.636 3.75-2.198 5.948-5.56 5.948-10.28 0-7.628-5.56-12.542-14.029-12.542H107.67V52zm17.326-40.989c3.75 0 6.271 2.393 6.271 6.013 0 3.814-2.521 6.206-6.271 6.206h-8.534V11.011h8.534zm1.487 19.978c4.073 0 6.724 2.65 6.724 6.853 0 4.072-2.651 6.659-6.724 6.659h-10.021V30.989h10.021zm20.357-3.233c0 14.352 10.15 24.89 24.503 24.89 14.352 0 24.502-10.538 24.502-24.89 0-14.417-10.15-24.89-24.502-24.89-14.353 0-24.503 10.473-24.503 24.89zm39.825 0c0 10.086-6.077 16.745-15.322 16.745s-15.322-6.66-15.322-16.745 6.077-16.745 15.322-16.745 15.322 6.66 15.322 16.745zM204.143 52h30.774v-8.146H213V3.512h-8.857V52zm37.536 0h15.71c14.546 0 24.244-10.344 24.244-24.373 0-13.835-9.698-24.115-24.244-24.115h-15.71V52zm15.71-40.342c9.051 0 15.063 6.4 15.063 16.033 0 9.698-6.012 16.163-15.063 16.163h-6.853V11.658h6.853zM5.525 81.683V110h21.787c11.573 0 20.236-6.724 20.236-17.585 0-3.233-.776-6.53-2.521-9.051.323-1.487.517-2.974.517-4.396 0-10.021-7.37-18.167-18.878-18.167-12.025 0-21.14 8.857-21.14 20.882zm8.275 0c0-8.081 5.431-13.641 12.995-13.641 5.754 0 9.633 3.49 10.474 8.857-2.716-1.94-5.56-2.715-8.405-2.715-6.918 0-11.702 4.654-11.702 11.184 0 6.4 5.043 11.055 12.09 11.055 4.202 0 7.564-1.68 10.085-4.72v.066c0 7.24-5.56 10.732-12.025 10.732H13.8V81.683zm11.25 3.62c0-2.52 2.133-4.137 4.848-4.137 2.393 0 4.72 1.164 6.53 3.556-1.422 3.168-4.008 4.72-6.53 4.72-2.715 0-4.848-1.552-4.848-4.138zM54.697 110H87.41v-7.952H63.554V88.73h16.033v-7.952H63.554V69.464h23.21v-7.952H54.697V110zm52.973 0h19.201c9.116 0 15.193-5.495 15.193-14.03 0-5.495-2.78-9.503-8.211-11.636 3.75-2.198 5.948-5.56 5.948-10.28 0-7.629-5.56-12.542-14.029-12.542H107.67V110zm17.326-40.989c3.75 0 6.271 2.393 6.271 6.013 0 3.814-2.521 6.207-6.271 6.207h-8.534V69.01h8.534zm1.487 19.978c4.073 0 6.724 2.65 6.724 6.852 0 4.074-2.651 6.66-6.724 6.66h-10.021V88.989h10.021zm20.357-3.233c0 14.352 10.15 24.891 24.503 24.891 14.352 0 24.502-10.539 24.502-24.891 0-14.417-10.15-24.89-24.502-24.89-14.353 0-24.503 10.473-24.503 24.89zm39.825 0c0 10.085-6.077 16.745-15.322 16.745s-15.322-6.66-15.322-16.745 6.077-16.745 15.322-16.745 15.322 6.66 15.322 16.745zM204.143 110h30.774v-8.146H213V61.512h-8.857V110zm37.536 0h15.71c14.546 0 24.244-10.344 24.244-24.373 0-13.835-9.698-24.115-24.244-24.115h-15.71V110zm15.71-40.342c9.051 0 15.063 6.4 15.063 16.033 0 9.698-6.012 16.163-15.063 16.163h-6.853V69.658h6.853zM5.525 139.683V168h21.787c11.573 0 20.236-6.724 20.236-17.585 0-3.232-.776-6.53-2.521-9.051.323-1.487.517-2.974.517-4.396 0-10.021-7.37-18.167-18.878-18.167-12.025 0-21.14 8.857-21.14 20.882zm8.275 0c0-8.081 5.431-13.641 12.995-13.641 5.754 0 9.633 3.491 10.474 8.857-2.716-1.94-5.56-2.715-8.405-2.715-6.918 0-11.702 4.654-11.702 11.184 0 6.401 5.043 11.055 12.09 11.055 4.202 0 7.564-1.681 10.085-4.719v.065c0 7.24-5.56 10.732-12.025 10.732H13.8v-20.818zm11.25 3.62c0-2.521 2.133-4.137 4.848-4.137 2.393 0 4.72 1.164 6.53 3.556-1.422 3.168-4.008 4.719-6.53 4.719-2.715 0-4.848-1.551-4.848-4.138zM54.697 168H87.41v-7.952H63.554V146.73h16.033v-7.952H63.554v-11.314h23.21v-7.952H54.697V168zm52.973 0h19.201c9.116 0 15.193-5.495 15.193-14.029 0-5.495-2.78-9.504-8.211-11.637 3.75-2.198 5.948-5.56 5.948-10.28 0-7.628-5.56-12.542-14.029-12.542H107.67V168zm17.326-40.988c3.75 0 6.271 2.392 6.271 6.012 0 3.814-2.521 6.206-6.271 6.206h-8.534v-12.218h8.534zm1.487 19.977c4.073 0 6.724 2.65 6.724 6.853 0 4.073-2.651 6.659-6.724 6.659h-10.021v-13.512h10.021zm20.357-3.233c0 14.352 10.15 24.891 24.503 24.891 14.352 0 24.502-10.539 24.502-24.891 0-14.417-10.15-24.89-24.502-24.89-14.353 0-24.503 10.473-24.503 24.89zm39.825 0c0 10.086-6.077 16.745-15.322 16.745s-15.322-6.659-15.322-16.745c0-10.085 6.077-16.744 15.322-16.744s15.322 6.659 15.322 16.744zM204.143 168h30.774v-8.146H213v-40.342h-8.857V168zm37.536 0h15.71c14.546 0 24.244-10.344 24.244-24.373 0-13.835-9.698-24.115-24.244-24.115h-15.71V168zm15.71-40.342c9.051 0 15.063 6.4 15.063 16.033 0 9.698-6.012 16.163-15.063 16.163h-6.853v-32.196h6.853zM5.525 197.683V226h21.787c11.573 0 20.236-6.724 20.236-17.585 0-3.232-.776-6.53-2.521-9.051.323-1.487.517-2.974.517-4.396 0-10.021-7.37-18.167-18.878-18.167-12.025 0-21.14 8.857-21.14 20.882zm8.275 0c0-8.081 5.431-13.641 12.995-13.641 5.754 0 9.633 3.491 10.474 8.857-2.716-1.94-5.56-2.715-8.405-2.715-6.918 0-11.702 4.654-11.702 11.184 0 6.401 5.043 11.055 12.09 11.055 4.202 0 7.564-1.681 10.085-4.719v.065c0 7.24-5.56 10.732-12.025 10.732H13.8v-20.818zm11.25 3.62c0-2.521 2.133-4.137 4.848-4.137 2.393 0 4.72 1.164 6.53 3.556-1.422 3.168-4.008 4.719-6.53 4.719-2.715 0-4.848-1.551-4.848-4.138zM54.697 226H87.41v-7.952H63.554V204.73h16.033v-7.952H63.554v-11.314h23.21v-7.952H54.697V226zm52.973 0h19.201c9.116 0 15.193-5.495 15.193-14.029 0-5.495-2.78-9.504-8.211-11.637 3.75-2.198 5.948-5.56 5.948-10.28 0-7.628-5.56-12.542-14.029-12.542H107.67V226zm17.326-40.988c3.75 0 6.271 2.392 6.271 6.012 0 3.814-2.521 6.206-6.271 6.206h-8.534v-12.218h8.534zm1.487 19.977c4.073 0 6.724 2.65 6.724 6.853 0 4.073-2.651 6.659-6.724 6.659h-10.021v-13.512h10.021zm20.357-3.233c0 14.352 10.15 24.891 24.503 24.891 14.352 0 24.502-10.539 24.502-24.891 0-14.417-10.15-24.89-24.502-24.89-14.353 0-24.503 10.473-24.503 24.89zm39.825 0c0 10.086-6.077 16.745-15.322 16.745s-15.322-6.659-15.322-16.745c0-10.085 6.077-16.744 15.322-16.744s15.322 6.659 15.322 16.744zM204.143 226h30.774v-8.146H213v-40.342h-8.857V226zm37.536 0h15.71c14.546 0 24.244-10.344 24.244-24.373 0-13.835-9.698-24.115-24.244-24.115h-15.71V226zm15.71-40.342c9.051 0 15.063 6.4 15.063 16.033 0 9.698-6.012 16.163-15.063 16.163h-6.853v-32.196h6.853zM5.525 255.683V284h21.787c11.573 0 20.236-6.724 20.236-17.585 0-3.232-.776-6.53-2.521-9.051.323-1.487.517-2.974.517-4.396 0-10.021-7.37-18.167-18.878-18.167-12.025 0-21.14 8.857-21.14 20.882zm8.275 0c0-8.081 5.431-13.641 12.995-13.641 5.754 0 9.633 3.491 10.474 8.857-2.716-1.94-5.56-2.715-8.405-2.715-6.918 0-11.702 4.654-11.702 11.184 0 6.401 5.043 11.055 12.09 11.055 4.202 0 7.564-1.681 10.085-4.719v.065c0 7.24-5.56 10.732-12.025 10.732H13.8v-20.818zm11.25 3.62c0-2.521 2.133-4.137 4.848-4.137 2.393 0 4.72 1.164 6.53 3.556-1.422 3.168-4.008 4.719-6.53 4.719-2.715 0-4.848-1.551-4.848-4.138zM54.697 284H87.41v-7.952H63.554V262.73h16.033v-7.952H63.554v-11.314h23.21v-7.952H54.697V284zm52.973 0h19.201c9.116 0 15.193-5.495 15.193-14.029 0-5.495-2.78-9.504-8.211-11.637 3.75-2.198 5.948-5.56 5.948-10.28 0-7.628-5.56-12.542-14.029-12.542H107.67V284zm17.326-40.988c3.75 0 6.271 2.392 6.271 6.012 0 3.814-2.521 6.206-6.271 6.206h-8.534v-12.218h8.534zm1.487 19.977c4.073 0 6.724 2.65 6.724 6.853 0 4.073-2.651 6.659-6.724 6.659h-10.021v-13.512h10.021zm20.357-3.233c0 14.352 10.15 24.891 24.503 24.891 14.352 0 24.502-10.539 24.502-24.891 0-14.417-10.15-24.89-24.502-24.89-14.353 0-24.503 10.473-24.503 24.89zm39.825 0c0 10.086-6.077 16.745-15.322 16.745s-15.322-6.659-15.322-16.745c0-10.085 6.077-16.744 15.322-16.744s15.322 6.659 15.322 16.744zM204.143 284h30.774v-8.146H213v-40.342h-8.857V284zm37.536 0h15.71c14.546 0 24.244-10.344 24.244-24.373 0-13.835-9.698-24.115-24.244-24.115h-15.71V284zm15.71-40.342c9.051 0 15.063 6.4 15.063 16.033 0 9.698-6.012 16.163-15.063 16.163h-6.853v-32.196h6.853zM5.525 313.683V342h21.787c11.573 0 20.236-6.724 20.236-17.585 0-3.232-.776-6.53-2.521-9.051.323-1.487.517-2.974.517-4.396 0-10.021-7.37-18.167-18.878-18.167-12.025 0-21.14 8.857-21.14 20.882zm8.275 0c0-8.081 5.431-13.641 12.995-13.641 5.754 0 9.633 3.491 10.474 8.857-2.716-1.94-5.56-2.715-8.405-2.715-6.918 0-11.702 4.654-11.702 11.184 0 6.401 5.043 11.055 12.09 11.055 4.202 0 7.564-1.681 10.085-4.719v.065c0 7.24-5.56 10.732-12.025 10.732H13.8v-20.818zm11.25 3.62c0-2.521 2.133-4.137 4.848-4.137 2.393 0 4.72 1.164 6.53 3.556-1.422 3.168-4.008 4.719-6.53 4.719-2.715 0-4.848-1.551-4.848-4.138zM54.697 342H87.41v-7.952H63.554V320.73h16.033v-7.952H63.554v-11.314h23.21v-7.952H54.697V342zm52.973 0h19.201c9.116 0 15.193-5.495 15.193-14.029 0-5.495-2.78-9.504-8.211-11.637 3.75-2.198 5.948-5.56 5.948-10.28 0-7.628-5.56-12.542-14.029-12.542H107.67V342zm17.326-40.988c3.75 0 6.271 2.392 6.271 6.012 0 3.814-2.521 6.206-6.271 6.206h-8.534v-12.218h8.534zm1.487 19.977c4.073 0 6.724 2.65 6.724 6.853 0 4.073-2.651 6.659-6.724 6.659h-10.021v-13.512h10.021zm20.357-3.233c0 14.352 10.15 24.891 24.503 24.891 14.352 0 24.502-10.539 24.502-24.891 0-14.417-10.15-24.89-24.502-24.89-14.353 0-24.503 10.473-24.503 24.89zm39.825 0c0 10.086-6.077 16.745-15.322 16.745s-15.322-6.659-15.322-16.745c0-10.085 6.077-16.744 15.322-16.744s15.322 6.659 15.322 16.744zM204.143 342h30.774v-8.146H213v-40.342h-8.857V342zm37.536 0h15.71c14.546 0 24.244-10.344 24.244-24.373 0-13.835-9.698-24.115-24.244-24.115h-15.71V342zm15.71-40.342c9.051 0 15.063 6.4 15.063 16.033 0 9.698-6.012 16.163-15.063 16.163h-6.853v-32.196h6.853zM5.525 371.683V400h21.787c11.573 0 20.236-6.724 20.236-17.585 0-3.232-.776-6.53-2.521-9.051.323-1.487.517-2.974.517-4.396 0-10.021-7.37-18.167-18.878-18.167-12.025 0-21.14 8.857-21.14 20.882zm8.275 0c0-8.081 5.431-13.641 12.995-13.641 5.754 0 9.633 3.491 10.474 8.857-2.716-1.94-5.56-2.715-8.405-2.715-6.918 0-11.702 4.654-11.702 11.184 0 6.401 5.043 11.055 12.09 11.055 4.202 0 7.564-1.681 10.085-4.719v.065c0 7.24-5.56 10.732-12.025 10.732H13.8v-20.818zm11.25 3.62c0-2.521 2.133-4.137 4.848-4.137 2.393 0 4.72 1.164 6.53 3.556-1.422 3.168-4.008 4.719-6.53 4.719-2.715 0-4.848-1.551-4.848-4.138zM54.697 400H87.41v-7.952H63.554V378.73h16.033v-7.952H63.554v-11.314h23.21v-7.952H54.697V400zm52.973 0h19.201c9.116 0 15.193-5.495 15.193-14.029 0-5.495-2.78-9.504-8.211-11.637 3.75-2.198 5.948-5.56 5.948-10.28 0-7.628-5.56-12.542-14.029-12.542H107.67V400zm17.326-40.988c3.75 0 6.271 2.392 6.271 6.012 0 3.814-2.521 6.206-6.271 6.206h-8.534v-12.218h8.534zm1.487 19.977c4.073 0 6.724 2.65 6.724 6.853 0 4.073-2.651 6.659-6.724 6.659h-10.021v-13.512h10.021zm20.357-3.233c0 14.352 10.15 24.891 24.503 24.891 14.352 0 24.502-10.539 24.502-24.891 0-14.417-10.15-24.89-24.502-24.89-14.353 0-24.503 10.473-24.503 24.89zm39.825 0c0 10.086-6.077 16.745-15.322 16.745s-15.322-6.659-15.322-16.745c0-10.085 6.077-16.744 15.322-16.744s15.322 6.659 15.322 16.744zM204.143 400h30.774v-8.146H213v-40.342h-8.857V400zm37.536 0h15.71c14.546 0 24.244-10.344 24.244-24.373 0-13.835-9.698-24.115-24.244-24.115h-15.71V400zm15.71-40.342c9.051 0 15.063 6.4 15.063 16.033 0 9.698-6.012 16.163-15.063 16.163h-6.853v-32.196h6.853zM5.525 429.683V458h21.787c11.573 0 20.236-6.724 20.236-17.585 0-3.232-.776-6.53-2.521-9.051.323-1.487.517-2.974.517-4.396 0-10.021-7.37-18.167-18.878-18.167-12.025 0-21.14 8.857-21.14 20.882zm8.275 0c0-8.081 5.431-13.641 12.995-13.641 5.754 0 9.633 3.491 10.474 8.857-2.716-1.94-5.56-2.715-8.405-2.715-6.918 0-11.702 4.654-11.702 11.184 0 6.401 5.043 11.055 12.09 11.055 4.202 0 7.564-1.681 10.085-4.719v.065c0 7.24-5.56 10.732-12.025 10.732H13.8v-20.818zm11.25 3.62c0-2.521 2.133-4.137 4.848-4.137 2.393 0 4.72 1.164 6.53 3.556-1.422 3.168-4.008 4.719-6.53 4.719-2.715 0-4.848-1.551-4.848-4.138zM54.697 458H87.41v-7.952H63.554V436.73h16.033v-7.952H63.554v-11.314h23.21v-7.952H54.697V458zm52.973 0h19.201c9.116 0 15.193-5.495 15.193-14.029 0-5.495-2.78-9.504-8.211-11.637 3.75-2.198 5.948-5.56 5.948-10.28 0-7.628-5.56-12.542-14.029-12.542H107.67V458zm17.326-40.988c3.75 0 6.271 2.392 6.271 6.012 0 3.814-2.521 6.206-6.271 6.206h-8.534v-12.218h8.534zm1.487 19.977c4.073 0 6.724 2.65 6.724 6.853 0 4.073-2.651 6.659-6.724 6.659h-10.021v-13.512h10.021zm20.357-3.233c0 14.352 10.15 24.891 24.503 24.891 14.352 0 24.502-10.539 24.502-24.891 0-14.417-10.15-24.89-24.502-24.89-14.353 0-24.503 10.473-24.503 24.89zm39.825 0c0 10.086-6.077 16.745-15.322 16.745s-15.322-6.659-15.322-16.745c0-10.085 6.077-16.744 15.322-16.744s15.322 6.659 15.322 16.744zM204.143 458h30.774v-8.146H213v-40.342h-8.857V458zm37.536 0h15.71c14.546 0 24.244-10.344 24.244-24.373 0-13.835-9.698-24.115-24.244-24.115h-15.71V458zm15.71-40.342c9.051 0 15.063 6.4 15.063 16.033 0 9.698-6.012 16.163-15.063 16.163h-6.853v-32.196h6.853zM5.525 487.683V516h21.787c11.573 0 20.236-6.724 20.236-17.585 0-3.232-.776-6.53-2.521-9.051.323-1.487.517-2.974.517-4.396 0-10.021-7.37-18.167-18.878-18.167-12.025 0-21.14 8.857-21.14 20.882zm8.275 0c0-8.081 5.431-13.641 12.995-13.641 5.754 0 9.633 3.491 10.474 8.857-2.716-1.94-5.56-2.715-8.405-2.715-6.918 0-11.702 4.654-11.702 11.184 0 6.401 5.043 11.055 12.09 11.055 4.202 0 7.564-1.681 10.085-4.719v.065c0 7.24-5.56 10.732-12.025 10.732H13.8v-20.818zm11.25 3.62c0-2.521 2.133-4.137 4.848-4.137 2.393 0 4.72 1.164 6.53 3.556-1.422 3.168-4.008 4.719-6.53 4.719-2.715 0-4.848-1.551-4.848-4.138zM54.697 516H87.41v-7.952H63.554V494.73h16.033v-7.952H63.554v-11.314h23.21v-7.952H54.697V516zm52.973 0h19.201c9.116 0 15.193-5.495 15.193-14.029 0-5.495-2.78-9.504-8.211-11.637 3.75-2.198 5.948-5.56 5.948-10.28 0-7.628-5.56-12.542-14.029-12.542H107.67V516zm17.326-40.988c3.75 0 6.271 2.392 6.271 6.012 0 3.814-2.521 6.206-6.271 6.206h-8.534v-12.218h8.534zm1.487 19.977c4.073 0 6.724 2.65 6.724 6.853 0 4.073-2.651 6.659-6.724 6.659h-10.021v-13.512h10.021zm20.357-3.233c0 14.352 10.15 24.891 24.503 24.891 14.352 0 24.502-10.539 24.502-24.891 0-14.417-10.15-24.89-24.502-24.89-14.353 0-24.503 10.473-24.503 24.89zm39.825 0c0 10.086-6.077 16.745-15.322 16.745s-15.322-6.659-15.322-16.745c0-10.085 6.077-16.744 15.322-16.744s15.322 6.659 15.322 16.744zM204.143 516h30.774v-8.146H213v-40.342h-8.857V516zm37.536 0h15.71c14.546 0 24.244-10.344 24.244-24.373 0-13.835-9.698-24.115-24.244-24.115h-15.71V516zm15.71-40.342c9.051 0 15.063 6.4 15.063 16.033 0 9.698-6.012 16.163-15.063 16.163h-6.853v-32.196h6.853zM5.525 545.683V574h21.787c11.573 0 20.236-6.724 20.236-17.585 0-3.232-.776-6.53-2.521-9.051.323-1.487.517-2.974.517-4.396 0-10.021-7.37-18.167-18.878-18.167-12.025 0-21.14 8.857-21.14 20.882zm8.275 0c0-8.081 5.431-13.641 12.995-13.641 5.754 0 9.633 3.491 10.474 8.857-2.716-1.94-5.56-2.715-8.405-2.715-6.918 0-11.702 4.654-11.702 11.184 0 6.401 5.043 11.055 12.09 11.055 4.202 0 7.564-1.681 10.085-4.719v.065c0 7.24-5.56 10.732-12.025 10.732H13.8v-20.818zm11.25 3.62c0-2.521 2.133-4.137 4.848-4.137 2.393 0 4.72 1.164 6.53 3.556-1.422 3.168-4.008 4.719-6.53 4.719-2.715 0-4.848-1.551-4.848-4.138zM54.697 574H87.41v-7.952H63.554V552.73h16.033v-7.952H63.554v-11.314h23.21v-7.952H54.697V574zm52.973 0h19.201c9.116 0 15.193-5.495 15.193-14.029 0-5.495-2.78-9.504-8.211-11.637 3.75-2.198 5.948-5.56 5.948-10.28 0-7.628-5.56-12.542-14.029-12.542H107.67V574zm17.326-40.988c3.75 0 6.271 2.392 6.271 6.012 0 3.814-2.521 6.206-6.271 6.206h-8.534v-12.218h8.534zm1.487 19.977c4.073 0 6.724 2.65 6.724 6.853 0 4.073-2.651 6.659-6.724 6.659h-10.021v-13.512h10.021zm20.357-3.233c0 14.352 10.15 24.891 24.503 24.891 14.352 0 24.502-10.539 24.502-24.891 0-14.417-10.15-24.89-24.502-24.89-14.353 0-24.503 10.473-24.503 24.89zm39.825 0c0 10.086-6.077 16.745-15.322 16.745s-15.322-6.659-15.322-16.745c0-10.085 6.077-16.744 15.322-16.744s15.322 6.659 15.322 16.744zM204.143 574h30.774v-8.146H213v-40.342h-8.857V574zm37.536 0h15.71c14.546 0 24.244-10.344 24.244-24.373 0-13.835-9.698-24.115-24.244-24.115h-15.71V574zm15.71-40.342c9.051 0 15.063 6.4 15.063 16.033 0 9.698-6.012 16.163-15.063 16.163h-6.853v-32.196h6.853zM5.525 603.683V632h21.787c11.573 0 20.236-6.724 20.236-17.585 0-3.232-.776-6.53-2.521-9.051.323-1.487.517-2.974.517-4.396 0-10.021-7.37-18.167-18.878-18.167-12.025 0-21.14 8.857-21.14 20.882zm8.275 0c0-8.081 5.431-13.641 12.995-13.641 5.754 0 9.633 3.491 10.474 8.857-2.716-1.94-5.56-2.715-8.405-2.715-6.918 0-11.702 4.654-11.702 11.184 0 6.401 5.043 11.055 12.09 11.055 4.202 0 7.564-1.681 10.085-4.719v.065c0 7.24-5.56 10.732-12.025 10.732H13.8v-20.818zm11.25 3.62c0-2.521 2.133-4.137 4.848-4.137 2.393 0 4.72 1.164 6.53 3.556-1.422 3.168-4.008 4.719-6.53 4.719-2.715 0-4.848-1.551-4.848-4.138zM54.697 632H87.41v-7.952H63.554V610.73h16.033v-7.952H63.554v-11.314h23.21v-7.952H54.697V632zm52.973 0h19.201c9.116 0 15.193-5.495 15.193-14.029 0-5.495-2.78-9.504-8.211-11.637 3.75-2.198 5.948-5.56 5.948-10.28 0-7.628-5.56-12.542-14.029-12.542H107.67V632zm17.326-40.988c3.75 0 6.271 2.392 6.271 6.012 0 3.814-2.521 6.206-6.271 6.206h-8.534v-12.218h8.534zm1.487 19.977c4.073 0 6.724 2.65 6.724 6.853 0 4.073-2.651 6.659-6.724 6.659h-10.021v-13.512h10.021zm20.357-3.233c0 14.352 10.15 24.891 24.503 24.891 14.352 0 24.502-10.539 24.502-24.891 0-14.417-10.15-24.89-24.502-24.89-14.353 0-24.503 10.473-24.503 24.89zm39.825 0c0 10.086-6.077 16.745-15.322 16.745s-15.322-6.659-15.322-16.745c0-10.085 6.077-16.744 15.322-16.744s15.322 6.659 15.322 16.744zM204.143 632h30.774v-8.146H213v-40.342h-8.857V632zm37.536 0h15.71c14.546 0 24.244-10.344 24.244-24.373 0-13.835-9.698-24.115-24.244-24.115h-15.71V632zm15.71-40.342c9.051 0 15.063 6.4 15.063 16.033 0 9.698-6.012 16.163-15.063 16.163h-6.853v-32.196h6.853zM5.525 661.683V690h21.787c11.573 0 20.236-6.724 20.236-17.585 0-3.232-.776-6.53-2.521-9.051.323-1.487.517-2.974.517-4.396 0-10.021-7.37-18.167-18.878-18.167-12.025 0-21.14 8.857-21.14 20.882zm8.275 0c0-8.081 5.431-13.641 12.995-13.641 5.754 0 9.633 3.491 10.474 8.857-2.716-1.94-5.56-2.715-8.405-2.715-6.918 0-11.702 4.654-11.702 11.184 0 6.401 5.043 11.055 12.09 11.055 4.202 0 7.564-1.681 10.085-4.719v.065c0 7.24-5.56 10.732-12.025 10.732H13.8v-20.818zm11.25 3.62c0-2.521 2.133-4.137 4.848-4.137 2.393 0 4.72 1.164 6.53 3.556-1.422 3.168-4.008 4.719-6.53 4.719-2.715 0-4.848-1.551-4.848-4.138zM54.697 690H87.41v-7.952H63.554V668.73h16.033v-7.952H63.554v-11.314h23.21v-7.952H54.697V690zm52.973 0h19.201c9.116 0 15.193-5.495 15.193-14.029 0-5.495-2.78-9.504-8.211-11.637 3.75-2.198 5.948-5.56 5.948-10.28 0-7.628-5.56-12.542-14.029-12.542H107.67V690zm17.326-40.988c3.75 0 6.271 2.392 6.271 6.012 0 3.814-2.521 6.206-6.271 6.206h-8.534v-12.218h8.534zm1.487 19.977c4.073 0 6.724 2.65 6.724 6.853 0 4.073-2.651 6.659-6.724 6.659h-10.021v-13.512h10.021zm20.357-3.233c0 14.352 10.15 24.891 24.503 24.891 14.352 0 24.502-10.539 24.502-24.891 0-14.417-10.15-24.89-24.502-24.89-14.353 0-24.503 10.473-24.503 24.89zm39.825 0c0 10.086-6.077 16.745-15.322 16.745s-15.322-6.659-15.322-16.745c0-10.085 6.077-16.744 15.322-16.744s15.322 6.659 15.322 16.744zM204.143 690h30.774v-8.146H213v-40.342h-8.857V690zm37.536 0h15.71c14.546 0 24.244-10.344 24.244-24.373 0-13.835-9.698-24.115-24.244-24.115h-15.71V690zm15.71-40.342c9.051 0 15.063 6.4 15.063 16.033 0 9.698-6.012 16.163-15.063 16.163h-6.853v-32.196h6.853zM5.525 719.683V748h21.787c11.573 0 20.236-6.724 20.236-17.585 0-3.232-.776-6.53-2.521-9.051.323-1.487.517-2.974.517-4.396 0-10.021-7.37-18.167-18.878-18.167-12.025 0-21.14 8.857-21.14 20.882zm8.275 0c0-8.081 5.431-13.641 12.995-13.641 5.754 0 9.633 3.491 10.474 8.857-2.716-1.94-5.56-2.715-8.405-2.715-6.918 0-11.702 4.654-11.702 11.184 0 6.401 5.043 11.055 12.09 11.055 4.202 0 7.564-1.681 10.085-4.719v.065c0 7.24-5.56 10.732-12.025 10.732H13.8v-20.818zm11.25 3.62c0-2.521 2.133-4.137 4.848-4.137 2.393 0 4.72 1.164 6.53 3.556-1.422 3.168-4.008 4.719-6.53 4.719-2.715 0-4.848-1.551-4.848-4.138zM54.697 748H87.41v-7.952H63.554V726.73h16.033v-7.952H63.554v-11.314h23.21v-7.952H54.697V748zm52.973 0h19.201c9.116 0 15.193-5.495 15.193-14.029 0-5.495-2.78-9.504-8.211-11.637 3.75-2.198 5.948-5.56 5.948-10.28 0-7.628-5.56-12.542-14.029-12.542H107.67V748zm17.326-40.988c3.75 0 6.271 2.392 6.271 6.012 0 3.814-2.521 6.206-6.271 6.206h-8.534v-12.218h8.534zm1.487 19.977c4.073 0 6.724 2.65 6.724 6.853 0 4.073-2.651 6.659-6.724 6.659h-10.021v-13.512h10.021zm20.357-3.233c0 14.352 10.15 24.891 24.503 24.891 14.352 0 24.502-10.539 24.502-24.891 0-14.417-10.15-24.89-24.502-24.89-14.353 0-24.503 10.473-24.503 24.89zm39.825 0c0 10.086-6.077 16.745-15.322 16.745s-15.322-6.659-15.322-16.745c0-10.085 6.077-16.744 15.322-16.744s15.322 6.659 15.322 16.744zM204.143 748h30.774v-8.146H213v-40.342h-8.857V748zm37.536 0h15.71c14.546 0 24.244-10.344 24.244-24.373 0-13.835-9.698-24.115-24.244-24.115h-15.71V748zm15.71-40.342c9.051 0 15.063 6.4 15.063 16.033 0 9.698-6.012 16.163-15.063 16.163h-6.853v-32.196h6.853zM5.525 777.683V806h21.787c11.573 0 20.236-6.724 20.236-17.585 0-3.232-.776-6.53-2.521-9.051.323-1.487.517-2.974.517-4.396 0-10.021-7.37-18.167-18.878-18.167-12.025 0-21.14 8.857-21.14 20.882zm8.275 0c0-8.081 5.431-13.641 12.995-13.641 5.754 0 9.633 3.491 10.474 8.857-2.716-1.94-5.56-2.715-8.405-2.715-6.918 0-11.702 4.654-11.702 11.184 0 6.401 5.043 11.055 12.09 11.055 4.202 0 7.564-1.681 10.085-4.719v.065c0 7.24-5.56 10.732-12.025 10.732H13.8v-20.818zm11.25 3.62c0-2.521 2.133-4.137 4.848-4.137 2.393 0 4.72 1.164 6.53 3.556-1.422 3.168-4.008 4.719-6.53 4.719-2.715 0-4.848-1.551-4.848-4.138zM54.697 806H87.41v-7.952H63.554V784.73h16.033v-7.952H63.554v-11.314h23.21v-7.952H54.697V806zm52.973 0h19.201c9.116 0 15.193-5.495 15.193-14.029 0-5.495-2.78-9.504-8.211-11.637 3.75-2.198 5.948-5.56 5.948-10.28 0-7.628-5.56-12.542-14.029-12.542H107.67V806zm17.326-40.988c3.75 0 6.271 2.392 6.271 6.012 0 3.814-2.521 6.206-6.271 6.206h-8.534v-12.218h8.534zm1.487 19.977c4.073 0 6.724 2.65 6.724 6.853 0 4.073-2.651 6.659-6.724 6.659h-10.021v-13.512h10.021zm20.357-3.233c0 14.352 10.15 24.891 24.503 24.891 14.352 0 24.502-10.539 24.502-24.891 0-14.417-10.15-24.89-24.502-24.89-14.353 0-24.503 10.473-24.503 24.89zm39.825 0c0 10.086-6.077 16.745-15.322 16.745s-15.322-6.659-15.322-16.745c0-10.085 6.077-16.744 15.322-16.744s15.322 6.659 15.322 16.744zM204.143 806h30.774v-8.146H213v-40.342h-8.857V806zm37.536 0h15.71c14.546 0 24.244-10.344 24.244-24.373 0-13.835-9.698-24.115-24.244-24.115h-15.71V806zm15.71-40.342c9.051 0 15.063 6.4 15.063 16.033 0 9.698-6.012 16.163-15.063 16.163h-6.853v-32.196h6.853zM5.525 835.683V864h21.787c11.573 0 20.236-6.724 20.236-17.585 0-3.232-.776-6.53-2.521-9.051.323-1.487.517-2.974.517-4.396 0-10.021-7.37-18.167-18.878-18.167-12.025 0-21.14 8.857-21.14 20.882zm8.275 0c0-8.081 5.431-13.641 12.995-13.641 5.754 0 9.633 3.491 10.474 8.857-2.716-1.94-5.56-2.715-8.405-2.715-6.918 0-11.702 4.654-11.702 11.184 0 6.401 5.043 11.055 12.09 11.055 4.202 0 7.564-1.681 10.085-4.719v.065c0 7.24-5.56 10.732-12.025 10.732H13.8v-20.818zm11.25 3.62c0-2.521 2.133-4.137 4.848-4.137 2.393 0 4.72 1.164 6.53 3.556-1.422 3.168-4.008 4.719-6.53 4.719-2.715 0-4.848-1.551-4.848-4.138zM54.697 864H87.41v-7.952H63.554V842.73h16.033v-7.952H63.554v-11.314h23.21v-7.952H54.697V864zm52.973 0h19.201c9.116 0 15.193-5.495 15.193-14.029 0-5.495-2.78-9.504-8.211-11.637 3.75-2.198 5.948-5.56 5.948-10.28 0-7.628-5.56-12.542-14.029-12.542H107.67V864zm17.326-40.988c3.75 0 6.271 2.392 6.271 6.012 0 3.814-2.521 6.206-6.271 6.206h-8.534v-12.218h8.534zm1.487 19.977c4.073 0 6.724 2.65 6.724 6.853 0 4.073-2.651 6.659-6.724 6.659h-10.021v-13.512h10.021zm20.357-3.233c0 14.352 10.15 24.891 24.503 24.891 14.352 0 24.502-10.539 24.502-24.891 0-14.417-10.15-24.89-24.502-24.89-14.353 0-24.503 10.473-24.503 24.89zm39.825 0c0 10.086-6.077 16.745-15.322 16.745s-15.322-6.659-15.322-16.745c0-10.085 6.077-16.744 15.322-16.744s15.322 6.659 15.322 16.744zM204.143 864h30.774v-8.146H213v-40.342h-8.857V864zm37.536 0h15.71c14.546 0 24.244-10.344 24.244-24.373 0-13.835-9.698-24.115-24.244-24.115h-15.71V864zm15.71-40.342c9.051 0 15.063 6.4 15.063 16.033 0 9.698-6.012 16.163-15.063 16.163h-6.853v-32.196h6.853zM5.525 893.683V922h21.787c11.573 0 20.236-6.724 20.236-17.585 0-3.232-.776-6.53-2.521-9.051.323-1.487.517-2.974.517-4.396 0-10.021-7.37-18.167-18.878-18.167-12.025 0-21.14 8.857-21.14 20.882zm8.275 0c0-8.081 5.431-13.641 12.995-13.641 5.754 0 9.633 3.491 10.474 8.857-2.716-1.94-5.56-2.715-8.405-2.715-6.918 0-11.702 4.654-11.702 11.184 0 6.401 5.043 11.055 12.09 11.055 4.202 0 7.564-1.681 10.085-4.719v.065c0 7.24-5.56 10.732-12.025 10.732H13.8v-20.818zm11.25 3.62c0-2.521 2.133-4.137 4.848-4.137 2.393 0 4.72 1.164 6.53 3.556-1.422 3.168-4.008 4.719-6.53 4.719-2.715 0-4.848-1.551-4.848-4.138zM54.697 922H87.41v-7.952H63.554V900.73h16.033v-7.952H63.554v-11.314h23.21v-7.952H54.697V922zm52.973 0h19.201c9.116 0 15.193-5.495 15.193-14.029 0-5.495-2.78-9.504-8.211-11.637 3.75-2.198 5.948-5.56 5.948-10.28 0-7.628-5.56-12.542-14.029-12.542H107.67V922zm17.326-40.988c3.75 0 6.271 2.392 6.271 6.012 0 3.814-2.521 6.206-6.271 6.206h-8.534v-12.218h8.534zm1.487 19.977c4.073 0 6.724 2.65 6.724 6.853 0 4.073-2.651 6.659-6.724 6.659h-10.021v-13.512h10.021zm20.357-3.233c0 14.352 10.15 24.891 24.503 24.891 14.352 0 24.502-10.539 24.502-24.891 0-14.417-10.15-24.89-24.502-24.89-14.353 0-24.503 10.473-24.503 24.89zm39.825 0c0 10.086-6.077 16.745-15.322 16.745s-15.322-6.659-15.322-16.745c0-10.085 6.077-16.744 15.322-16.744s15.322 6.659 15.322 16.744zM204.143 922h30.774v-8.146H213v-40.342h-8.857V922zm37.536 0h15.71c14.546 0 24.244-10.344 24.244-24.373 0-13.835-9.698-24.115-24.244-24.115h-15.71V922zm15.71-40.342c9.051 0 15.063 6.4 15.063 16.033 0 9.698-6.012 16.163-15.063 16.163h-6.853v-32.196h6.853zM5.525 951.683V980h21.787c11.573 0 20.236-6.724 20.236-17.585 0-3.232-.776-6.53-2.521-9.051.323-1.487.517-2.974.517-4.396 0-10.021-7.37-18.167-18.878-18.167-12.025 0-21.14 8.857-21.14 20.882zm8.275 0c0-8.081 5.431-13.641 12.995-13.641 5.754 0 9.633 3.491 10.474 8.857-2.716-1.94-5.56-2.715-8.405-2.715-6.918 0-11.702 4.654-11.702 11.184 0 6.401 5.043 11.055 12.09 11.055 4.202 0 7.564-1.681 10.085-4.719v.065c0 7.24-5.56 10.732-12.025 10.732H13.8v-20.818zm11.25 3.62c0-2.521 2.133-4.137 4.848-4.137 2.393 0 4.72 1.164 6.53 3.556-1.422 3.168-4.008 4.719-6.53 4.719-2.715 0-4.848-1.551-4.848-4.138zM54.697 980H87.41v-7.952H63.554V958.73h16.033v-7.952H63.554v-11.314h23.21v-7.952H54.697V980zm52.973 0h19.201c9.116 0 15.193-5.495 15.193-14.029 0-5.495-2.78-9.504-8.211-11.637 3.75-2.198 5.948-5.56 5.948-10.28 0-7.628-5.56-12.542-14.029-12.542H107.67V980zm17.326-40.988c3.75 0 6.271 2.392 6.271 6.012 0 3.814-2.521 6.206-6.271 6.206h-8.534v-12.218h8.534zm1.487 19.977c4.073 0 6.724 2.65 6.724 6.853 0 4.073-2.651 6.659-6.724 6.659h-10.021v-13.512h10.021zm20.357-3.233c0 14.352 10.15 24.891 24.503 24.891 14.352 0 24.502-10.539 24.502-24.891 0-14.417-10.15-24.89-24.502-24.89-14.353 0-24.503 10.473-24.503 24.89zm39.825 0c0 10.086-6.077 16.745-15.322 16.745s-15.322-6.659-15.322-16.745c0-10.085 6.077-16.744 15.322-16.744s15.322 6.659 15.322 16.744zM204.143 980h30.774v-8.146H213v-40.342h-8.857V980zm37.536 0h15.71c14.546 0 24.244-10.344 24.244-24.373 0-13.835-9.698-24.115-24.244-24.115h-15.71V980zm15.71-40.342c9.051 0 15.063 6.4 15.063 16.033 0 9.698-6.012 16.163-15.063 16.163h-6.853v-32.196h6.853zM5.525 1009.68V1038h21.787c11.573 0 20.236-6.72 20.236-17.58 0-3.24-.776-6.53-2.521-9.06.323-1.48.517-2.97.517-4.39 0-10.023-7.37-18.169-18.878-18.169-12.025 0-21.14 8.857-21.14 20.879zm8.275 0c0-8.08 5.431-13.638 12.995-13.638 5.754 0 9.633 3.491 10.474 8.858-2.716-1.94-5.56-2.72-8.405-2.72-6.918 0-11.702 4.66-11.702 11.19 0 6.4 5.043 11.05 12.09 11.05 4.202 0 7.564-1.68 10.085-4.72v.07c0 7.24-5.56 10.73-12.025 10.73H13.8v-20.82zm11.25 3.62c0-2.52 2.133-4.13 4.848-4.13 2.393 0 4.72 1.16 6.53 3.55-1.422 3.17-4.008 4.72-6.53 4.72-2.715 0-4.848-1.55-4.848-4.14zm29.647 24.7H87.41v-7.95H63.554v-13.32h16.033v-7.95H63.554v-11.316h23.21v-7.952H54.697V1038zm52.973 0h19.201c9.116 0 15.193-5.5 15.193-14.03 0-5.49-2.78-9.5-8.211-11.64 3.75-2.19 5.948-5.56 5.948-10.28 0-7.624-5.56-12.538-14.029-12.538H107.67V1038zm17.326-40.988c3.75 0 6.271 2.392 6.271 6.008 0 3.82-2.521 6.21-6.271 6.21h-8.534v-12.218h8.534zm1.487 19.978c4.073 0 6.724 2.65 6.724 6.85 0 4.07-2.651 6.66-6.724 6.66h-10.021v-13.51h10.021zm20.357-3.23c0 14.35 10.15 24.89 24.503 24.89 14.352 0 24.502-10.54 24.502-24.89 0-14.421-10.15-24.894-24.502-24.894-14.353 0-24.503 10.473-24.503 24.894zm39.825 0c0 10.08-6.077 16.74-15.322 16.74s-15.322-6.66-15.322-16.74c0-10.09 6.077-16.748 15.322-16.748s15.322 6.658 15.322 16.748zm17.478 24.24h30.774v-8.15H213v-40.338h-8.857V1038zm37.536 0h15.71c14.546 0 24.244-10.34 24.244-24.37 0-13.838-9.698-24.118-24.244-24.118h-15.71V1038zm15.71-40.342c9.051 0 15.063 6.402 15.063 16.032 0 9.7-6.012 16.16-15.063 16.16h-6.853v-32.192h6.853z" fill="#FF0"/></svg>