<svg width="239" height="234" viewBox="0 0 239 234" fill="none" xmlns="http://www.w3.org/2000/svg"><path d="M6.948 74.428c0-5.616 3.42-9.252 8.496-9.252 3.672 0 6.12 1.836 7.092 5.004l4.788-1.368c-1.404-4.896-5.832-8.172-11.88-8.172-7.848 0-13.608 5.832-13.608 13.788 0 8.028 5.724 13.932 13.572 13.932 7.488 0 12.564-4.932 12.564-12.312v-2.34H12.888v4.356h9.972c-.072 3.456-3.312 5.796-7.416 5.796-5.22 0-8.496-3.744-8.496-9.432zM32.62 88h4.932V77.236h4.356L48.784 88H54.4l-7.488-11.736c3.024-1.044 5.076-3.564 5.076-7.128 0-4.932-3.672-8.136-8.892-8.136H32.62v27zm10.404-22.572c2.448 0 4.032 1.476 4.032 3.708 0 2.196-1.584 3.672-4.032 3.672h-5.472v-7.38h5.472zM54.857 88h5.004l2.988-8.1h9.792l2.952 8.1h5.22L70.517 61h-5.328L54.857 88zm9.576-12.456l3.312-8.964 3.276 8.964h-6.588zM84.09 88h10.692c5.076 0 8.46-3.06 8.46-7.812 0-3.06-1.548-5.292-4.572-6.48 2.088-1.224 3.312-3.096 3.312-5.724 0-4.248-3.096-6.984-7.812-6.984H84.09v27zm9.648-22.824c2.088 0 3.492 1.332 3.492 3.348 0 2.124-1.404 3.456-3.492 3.456h-4.752v-6.804h4.752zm.828 11.124c2.268 0 3.744 1.476 3.744 3.816 0 2.268-1.476 3.708-3.744 3.708h-5.58V76.3h5.58zm32.745-6.48l-6.048 11.808L117.087 61h-4.968l5.436 27h5.22l5.04-9.9 5.148 9.9h5.184l5.436-27h-4.896l-4.14 20.7-6.192-11.88h-1.044zm17.896 4.68c0 7.992 5.652 13.86 13.644 13.86s13.644-5.868 13.644-13.86c0-8.028-5.652-13.86-13.644-13.86s-13.644 5.832-13.644 13.86zm22.176 0c0 5.616-3.384 9.324-8.532 9.324s-8.532-3.708-8.532-9.324 3.384-9.324 8.532-9.324 8.532 3.708 8.532 9.324zm9.733 13.5h4.932V77.236h4.356L193.28 88h5.616l-7.488-11.736c3.024-1.044 5.076-3.564 5.076-7.128 0-4.932-3.672-8.136-8.892-8.136h-10.476v27zm10.404-22.572c2.448 0 4.032 1.476 4.032 3.708 0 2.196-1.584 3.672-4.032 3.672h-5.472v-7.38h5.472zm19.753 10.656h2.88L218.901 88h5.868l-10.476-14.4L224.445 61h-5.94l-8.172 10.44h-3.06V61h-4.932v27h4.932V76.084zm-189.057 29c0-3.744-2.952-6.444-7.164-6.444-4.248 0-7.344 2.772-7.344 6.516 0 2.304 1.188 4.176 2.808 5.94-3.564 2.052-4.968 4.392-4.968 7.38 0 5.04 3.564 7.884 9.072 7.884 2.844 0 5.292-.828 7.308-2.376l1.8 2.016h5.364l-4.356-5.112c1.332-2.016 2.232-4.608 2.7-7.632l-4.176-.72c-.288 1.98-.756 3.672-1.368 5.04l-4.752-5.544c2.628-1.512 5.076-3.816 5.076-6.948zm-9.9.216c0-1.62 1.08-2.628 2.7-2.628 1.692 0 2.628 1.08 2.628 2.628 0 1.512-.828 2.556-3.204 3.852-1.044-1.152-2.124-2.268-2.124-3.852zm-1.98 12.816c0-1.296.468-2.772 2.844-4.032l6.084 6.912c-1.08.792-2.412 1.188-3.996 1.188-2.952 0-4.932-1.404-4.932-4.068zM35.345 126h17.136v-4.536H40.277V99h-4.932v27zm20.901 0h4.932V99h-4.932v27zm11.198 0h4.932v-11.412h8.964v-4.392h-8.964v-6.768h12.132V99H67.444v27zm20.83 0h18.217v-4.428H93.207v-7.416h8.928v-4.428h-8.928v-6.3h12.924V99H88.275v27z" fill="#FF0"/><path d="M117.772 126h10.692c5.076 0 8.46-3.06 8.46-7.812 0-3.06-1.548-5.292-4.572-6.48 2.088-1.224 3.312-3.096 3.312-5.724 0-4.248-3.096-6.984-7.812-6.984h-10.08v27zm9.648-22.824c2.088 0 3.492 1.332 3.492 3.348 0 2.124-1.404 3.456-3.492 3.456h-4.752v-6.804h4.752zm.828 11.124c2.268 0 3.744 1.476 3.744 3.816 0 2.268-1.476 3.708-3.744 3.708h-5.58V114.3h5.58zm17.859 11.7h4.932v-11.52L160.723 99h-5.472l-6.588 10.728L142.111 99h-5.688l9.684 15.444V126zM8.964 164h4.932v-22.464h7.848V137H1.08v4.536h7.884V164zm16.624 0h4.932v-11.988h12.96V164h4.932v-27H43.48v10.476H30.52V137h-4.932v27zm29.093 0h18.216v-4.428H59.613v-7.416h8.928v-4.428h-8.928v-6.3h12.924V137H54.68v27zm29.497 0h4.932v-11.988h12.96V164h4.932v-27h-4.932v10.476H89.11V137h-4.932v27zm27.437-13.5c0 7.992 5.652 13.86 13.644 13.86s13.644-5.868 13.644-13.86c0-8.028-5.652-13.86-13.644-13.86s-13.644 5.832-13.644 13.86zm22.176 0c0 5.616-3.384 9.324-8.532 9.324s-8.532-3.708-8.532-9.324 3.384-9.324 8.532-9.324 8.532 3.708 8.532 9.324zm9.733 13.5h4.932v-10.764h4.356L159.688 164h5.616l-7.488-11.736c3.024-1.044 5.076-3.564 5.076-7.128 0-4.932-3.672-8.136-8.892-8.136h-10.476v27zm10.404-22.572c2.448 0 4.032 1.476 4.032 3.708 0 2.196-1.584 3.672-4.032 3.672h-5.472v-7.38h5.472zM168.749 164h4.644v-19.908L186.353 164h5.256v-27h-4.68v19.8L174.005 137h-5.256v27zm47.992-20.304c-1.188-4.536-4.716-7.056-10.008-7.056-5.544 0-9.972 3.276-9.972 7.884 0 5.94 4.932 7.02 9.144 7.92 3.132.684 5.868 1.224 5.868 3.78 0 2.628-2.232 3.744-5.04 3.744-3.096 0-5.292-1.368-6.048-4.68l-5.004 1.368c1.332 4.932 4.968 7.704 11.016 7.704 6.012 0 10.116-3.204 10.116-8.316 0-5.76-4.788-7.092-8.964-7.992-3.168-.72-5.976-1.26-5.976-3.744 0-2.088 1.764-3.348 4.824-3.348 2.772 0 4.536 1.584 5.076 4.032l4.968-1.296z" fill="#fff"/></svg>