<svg width="321" height="321" viewBox="0 0 321 321" fill="none" xmlns="http://www.w3.org/2000/svg"><path clip-rule="evenodd" d="M287.389 107.73c1.263-21.532-1.088-43.237-7.072-64.126a4.276 4.276 0 00-2.924-2.928 192.2 192.2 0 00-64.126-7.069L196.62 16.96c-19.947-19.947-52.29-19.947-72.24 0l-16.65 16.65a192.114 192.114 0 00-64.126 7.073 4.279 4.279 0 00-2.925 2.925 192.004 192.004 0 00-7.068 64.122l-16.65 16.65c-19.948 19.947-19.948 52.29 0 72.237l16.65 16.65a191.982 191.982 0 007.068 64.12 4.285 4.285 0 002.925 2.928 192.124 192.124 0 0064.126 7.072l16.65 16.65c19.95 19.951 52.293 19.951 72.24 0l16.647-16.647a191.998 191.998 0 0064.126-7.069 4.277 4.277 0 002.924-2.924 192.132 192.132 0 007.072-64.13l16.651-16.65c19.947-19.947 19.947-52.29 0-72.237l-16.651-16.65z" stroke="#FF0" stroke-width="3"/></svg>