<svg width="289" height="1058" viewBox="0 0 289 1058" fill="none" xmlns="http://www.w3.org/2000/svg"><path d="M5.603 24.988v28.714h22.093c11.735 0 20.52-6.818 20.52-17.832 0-3.277-.787-6.621-2.557-9.178.327-1.508.524-3.015.524-4.458 0-10.161-7.474-18.421-19.143-18.421-12.194 0-21.437 8.981-21.437 21.175zm8.391 0c0-8.195 5.507-13.833 13.177-13.833 5.835 0 9.768 3.54 10.62 8.982-2.753-1.967-5.637-2.754-8.522-2.754-7.015 0-11.866 4.72-11.866 11.342 0 6.49 5.114 11.21 12.26 11.21 4.26 0 7.67-1.705 10.226-4.786v.066c0 7.342-5.638 10.882-12.193 10.882H13.994v-21.11zm11.407 3.671c0-2.557 2.164-4.196 4.917-4.196 2.426 0 4.786 1.18 6.621 3.606-1.442 3.212-4.064 4.786-6.621 4.786-2.753 0-4.917-1.574-4.917-4.196zm30.064 25.043h33.172V45.64h-24.19V32.133h16.257V24.07H64.446V12.597h23.535V4.534H55.465v49.168zm53.716 0h19.471c9.244 0 15.406-5.572 15.406-14.226 0-5.572-2.819-9.637-8.326-11.8 3.803-2.23 6.031-5.638 6.031-10.424 0-7.736-5.638-12.718-14.226-12.718h-18.356v49.168zm17.57-41.564c3.802 0 6.359 2.426 6.359 6.097 0 3.868-2.557 6.294-6.359 6.294h-8.654v-12.39h8.654zm1.508 20.258c4.13 0 6.818 2.688 6.818 6.949 0 4.13-2.688 6.752-6.818 6.752h-10.162V32.396h10.162zm20.642-3.278c0 14.554 10.293 25.24 24.847 25.24 14.553 0 24.846-10.686 24.846-25.24 0-14.62-10.293-25.24-24.846-25.24-14.554 0-24.847 10.62-24.847 25.24zm40.384 0c0 10.227-6.163 16.98-15.537 16.98-9.375 0-15.538-6.753-15.538-16.98s6.163-16.98 15.538-16.98c9.374 0 15.537 6.753 15.537 16.98zm17.723 24.584h31.206v-8.26H215.99V4.534h-8.982v49.168zm38.063 0h15.93c14.751 0 24.584-10.49 24.584-24.715 0-14.03-9.833-24.453-24.584-24.453h-15.93v49.168zm15.93-40.908c9.178 0 15.275 6.49 15.275 16.258 0 9.834-6.097 16.39-15.275 16.39h-6.949V12.794h6.949zM5.603 83.988v28.714h22.093c11.735 0 20.52-6.818 20.52-17.832 0-3.278-.787-6.621-2.557-9.178.327-1.508.524-3.015.524-4.458 0-10.161-7.474-18.421-19.143-18.421-12.194 0-21.437 8.981-21.437 21.175zm8.391 0c0-8.195 5.507-13.833 13.177-13.833 5.835 0 9.768 3.54 10.62 8.981-2.753-1.966-5.637-2.753-8.522-2.753-7.015 0-11.866 4.72-11.866 11.342 0 6.49 5.114 11.21 12.26 11.21 4.26 0 7.67-1.704 10.226-4.786v.066c0 7.342-5.638 10.882-12.193 10.882H13.994v-21.11zm11.407 3.671c0-2.557 2.164-4.196 4.917-4.196 2.426 0 4.786 1.18 6.621 3.606-1.442 3.212-4.064 4.786-6.621 4.786-2.753 0-4.917-1.574-4.917-4.196zm30.064 25.043h33.172v-8.063h-24.19V91.134h16.257V83.07H64.446V71.597h23.535v-8.063H55.465v49.168zm53.716 0h19.471c9.244 0 15.406-5.572 15.406-14.226 0-5.572-2.819-9.637-8.326-11.8 3.803-2.23 6.031-5.638 6.031-10.424 0-7.736-5.638-12.718-14.226-12.718h-18.356v49.168zm17.57-41.564c3.802 0 6.359 2.426 6.359 6.097 0 3.868-2.557 6.294-6.359 6.294h-8.654v-12.39h8.654zm1.508 20.258c4.13 0 6.818 2.688 6.818 6.949 0 4.13-2.688 6.752-6.818 6.752h-10.162V91.396h10.162zm20.642-3.278c0 14.554 10.293 25.24 24.847 25.24 14.553 0 24.846-10.686 24.846-25.24 0-14.62-10.293-25.24-24.846-25.24-14.554 0-24.847 10.62-24.847 25.24zm40.384 0c0 10.227-6.163 16.979-15.537 16.979-9.375 0-15.538-6.752-15.538-16.98 0-10.226 6.163-16.979 15.538-16.979 9.374 0 15.537 6.753 15.537 16.98zm17.723 24.584h31.206v-8.26H215.99V63.534h-8.982v49.168zm38.063 0h15.93c14.751 0 24.584-10.489 24.584-24.715 0-14.03-9.833-24.453-24.584-24.453h-15.93v49.168zm15.93-40.908c9.178 0 15.275 6.49 15.275 16.258 0 9.834-6.097 16.39-15.275 16.39h-6.949V71.794h6.949zM5.603 142.988v28.714h22.093c11.735 0 20.52-6.818 20.52-17.832 0-3.278-.787-6.621-2.557-9.178.327-1.508.524-3.015.524-4.458 0-10.161-7.474-18.421-19.143-18.421-12.194 0-21.437 8.981-21.437 21.175zm8.391 0c0-8.195 5.507-13.833 13.177-13.833 5.835 0 9.768 3.54 10.62 8.981-2.753-1.966-5.637-2.753-8.522-2.753-7.015 0-11.866 4.72-11.866 11.342 0 6.49 5.114 11.21 12.26 11.21 4.26 0 7.67-1.705 10.226-4.786v.066c0 7.342-5.638 10.882-12.193 10.882H13.994v-21.109zm11.407 3.671c0-2.557 2.164-4.196 4.917-4.196 2.426 0 4.786 1.18 6.621 3.606-1.442 3.212-4.064 4.786-6.621 4.786-2.753 0-4.917-1.574-4.917-4.196zm30.064 25.043h33.172v-8.063h-24.19v-13.505h16.257v-8.064H64.446v-11.473h23.535v-8.063H55.465v49.168zm53.716 0h19.471c9.244 0 15.406-5.572 15.406-14.226 0-5.572-2.819-9.637-8.326-11.8 3.803-2.229 6.031-5.638 6.031-10.424 0-7.736-5.638-12.718-14.226-12.718h-18.356v49.168zm17.57-41.564c3.802 0 6.359 2.426 6.359 6.097 0 3.868-2.557 6.294-6.359 6.294h-8.654v-12.391h8.654zm1.508 20.258c4.13 0 6.818 2.688 6.818 6.949 0 4.13-2.688 6.752-6.818 6.752h-10.162v-13.701h10.162zm20.642-3.278c0 14.554 10.293 25.24 24.847 25.24 14.553 0 24.846-10.686 24.846-25.24 0-14.62-10.293-25.24-24.846-25.24-14.554 0-24.847 10.62-24.847 25.24zm40.384 0c0 10.227-6.163 16.979-15.537 16.979-9.375 0-15.538-6.752-15.538-16.979s6.163-16.98 15.538-16.98c9.374 0 15.537 6.753 15.537 16.98zm17.723 24.584h31.206v-8.26H215.99v-40.908h-8.982v49.168zm38.063 0h15.93c14.751 0 24.584-10.489 24.584-24.715 0-14.03-9.833-24.453-24.584-24.453h-15.93v49.168zm15.93-40.908c9.178 0 15.275 6.49 15.275 16.258 0 9.834-6.097 16.39-15.275 16.39h-6.949v-32.648h6.949zM5.603 201.988v28.714h22.093c11.735 0 20.52-6.818 20.52-17.832 0-3.278-.787-6.621-2.557-9.178.327-1.508.524-3.015.524-4.458 0-10.161-7.474-18.421-19.143-18.421-12.194 0-21.437 8.981-21.437 21.175zm8.391 0c0-8.195 5.507-13.833 13.177-13.833 5.835 0 9.768 3.54 10.62 8.981-2.753-1.966-5.637-2.753-8.522-2.753-7.015 0-11.866 4.72-11.866 11.342 0 6.49 5.114 11.21 12.26 11.21 4.26 0 7.67-1.705 10.226-4.786v.066c0 7.342-5.638 10.882-12.193 10.882H13.994v-21.109zm11.407 3.671c0-2.557 2.164-4.196 4.917-4.196 2.426 0 4.786 1.18 6.621 3.606-1.442 3.212-4.064 4.786-6.621 4.786-2.753 0-4.917-1.574-4.917-4.196zm30.064 25.043h33.172v-8.063h-24.19v-13.505h16.257v-8.064H64.446v-11.473h23.535v-8.063H55.465v49.168zm53.716 0h19.471c9.244 0 15.406-5.572 15.406-14.226 0-5.572-2.819-9.637-8.326-11.8 3.803-2.229 6.031-5.638 6.031-10.424 0-7.736-5.638-12.718-14.226-12.718h-18.356v49.168zm17.57-41.564c3.802 0 6.359 2.426 6.359 6.097 0 3.868-2.557 6.294-6.359 6.294h-8.654v-12.391h8.654zm1.508 20.258c4.13 0 6.818 2.688 6.818 6.949 0 4.13-2.688 6.752-6.818 6.752h-10.162v-13.701h10.162zm20.642-3.278c0 14.554 10.293 25.24 24.847 25.24 14.553 0 24.846-10.686 24.846-25.24 0-14.62-10.293-25.24-24.846-25.24-14.554 0-24.847 10.62-24.847 25.24zm40.384 0c0 10.227-6.163 16.979-15.537 16.979-9.375 0-15.538-6.752-15.538-16.979s6.163-16.98 15.538-16.98c9.374 0 15.537 6.753 15.537 16.98zm17.723 24.584h31.206v-8.26H215.99v-40.908h-8.982v49.168zm38.063 0h15.93c14.751 0 24.584-10.489 24.584-24.715 0-14.03-9.833-24.453-24.584-24.453h-15.93v49.168zm15.93-40.908c9.178 0 15.275 6.49 15.275 16.258 0 9.834-6.097 16.39-15.275 16.39h-6.949v-32.648h6.949zM5.603 260.988v28.714h22.093c11.735 0 20.52-6.818 20.52-17.832 0-3.278-.787-6.621-2.557-9.178.327-1.508.524-3.015.524-4.458 0-10.161-7.474-18.421-19.143-18.421-12.194 0-21.437 8.981-21.437 21.175zm8.391 0c0-8.195 5.507-13.833 13.177-13.833 5.835 0 9.768 3.54 10.62 8.981-2.753-1.966-5.637-2.753-8.522-2.753-7.015 0-11.866 4.72-11.866 11.342 0 6.49 5.114 11.21 12.26 11.21 4.26 0 7.67-1.705 10.226-4.786v.066c0 7.342-5.638 10.882-12.193 10.882H13.994v-21.109zm11.407 3.671c0-2.557 2.164-4.196 4.917-4.196 2.426 0 4.786 1.18 6.621 3.606-1.442 3.212-4.064 4.786-6.621 4.786-2.753 0-4.917-1.574-4.917-4.196zm30.064 25.043h33.172v-8.063h-24.19v-13.505h16.257v-8.064H64.446v-11.473h23.535v-8.063H55.465v49.168zm53.716 0h19.471c9.244 0 15.406-5.572 15.406-14.226 0-5.572-2.819-9.637-8.326-11.8 3.803-2.229 6.031-5.638 6.031-10.424 0-7.736-5.638-12.718-14.226-12.718h-18.356v49.168zm17.57-41.564c3.802 0 6.359 2.426 6.359 6.097 0 3.868-2.557 6.294-6.359 6.294h-8.654v-12.391h8.654zm1.508 20.258c4.13 0 6.818 2.688 6.818 6.949 0 4.13-2.688 6.752-6.818 6.752h-10.162v-13.701h10.162zm20.642-3.278c0 14.554 10.293 25.24 24.847 25.24 14.553 0 24.846-10.686 24.846-25.24 0-14.62-10.293-25.24-24.846-25.24-14.554 0-24.847 10.62-24.847 25.24zm40.384 0c0 10.227-6.163 16.979-15.537 16.979-9.375 0-15.538-6.752-15.538-16.979s6.163-16.98 15.538-16.98c9.374 0 15.537 6.753 15.537 16.98zm17.723 24.584h31.206v-8.26H215.99v-40.908h-8.982v49.168zm38.063 0h15.93c14.751 0 24.584-10.489 24.584-24.715 0-14.03-9.833-24.453-24.584-24.453h-15.93v49.168zm15.93-40.908c9.178 0 15.275 6.49 15.275 16.258 0 9.834-6.097 16.39-15.275 16.39h-6.949v-32.648h6.949zM5.603 319.988v28.714h22.093c11.735 0 20.52-6.818 20.52-17.832 0-3.278-.787-6.621-2.557-9.178.327-1.508.524-3.015.524-4.458 0-10.161-7.474-18.421-19.143-18.421-12.194 0-21.437 8.981-21.437 21.175zm8.391 0c0-8.195 5.507-13.833 13.177-13.833 5.835 0 9.768 3.54 10.62 8.981-2.753-1.966-5.637-2.753-8.522-2.753-7.015 0-11.866 4.72-11.866 11.342 0 6.49 5.114 11.21 12.26 11.21 4.26 0 7.67-1.705 10.226-4.786v.066c0 7.342-5.638 10.882-12.193 10.882H13.994v-21.109zm11.407 3.671c0-2.557 2.164-4.196 4.917-4.196 2.426 0 4.786 1.18 6.621 3.606-1.442 3.212-4.064 4.786-6.621 4.786-2.753 0-4.917-1.574-4.917-4.196zm30.064 25.043h33.172v-8.063h-24.19v-13.505h16.257v-8.064H64.446v-11.473h23.535v-8.063H55.465v49.168zm53.716 0h19.471c9.244 0 15.406-5.572 15.406-14.226 0-5.572-2.819-9.637-8.326-11.8 3.803-2.229 6.031-5.638 6.031-10.424 0-7.736-5.638-12.718-14.226-12.718h-18.356v49.168zm17.57-41.564c3.802 0 6.359 2.426 6.359 6.097 0 3.868-2.557 6.294-6.359 6.294h-8.654v-12.391h8.654zm1.508 20.258c4.13 0 6.818 2.688 6.818 6.949 0 4.13-2.688 6.752-6.818 6.752h-10.162v-13.701h10.162zm20.642-3.278c0 14.554 10.293 25.24 24.847 25.24 14.553 0 24.846-10.686 24.846-25.24 0-14.62-10.293-25.24-24.846-25.24-14.554 0-24.847 10.62-24.847 25.24zm40.384 0c0 10.227-6.163 16.979-15.537 16.979-9.375 0-15.538-6.752-15.538-16.979s6.163-16.98 15.538-16.98c9.374 0 15.537 6.753 15.537 16.98zm17.723 24.584h31.206v-8.26H215.99v-40.908h-8.982v49.168zm38.063 0h15.93c14.751 0 24.584-10.489 24.584-24.715 0-14.03-9.833-24.453-24.584-24.453h-15.93v49.168zm15.93-40.908c9.178 0 15.275 6.49 15.275 16.258 0 9.834-6.097 16.39-15.275 16.39h-6.949v-32.648h6.949zM5.603 378.988v28.714h22.093c11.735 0 20.52-6.818 20.52-17.832 0-3.278-.787-6.621-2.557-9.178.327-1.508.524-3.015.524-4.458 0-10.161-7.474-18.421-19.143-18.421-12.194 0-21.437 8.981-21.437 21.175zm8.391 0c0-8.195 5.507-13.833 13.177-13.833 5.835 0 9.768 3.54 10.62 8.981-2.753-1.966-5.637-2.753-8.522-2.753-7.015 0-11.866 4.72-11.866 11.342 0 6.49 5.114 11.21 12.26 11.21 4.26 0 7.67-1.705 10.226-4.786v.066c0 7.342-5.638 10.882-12.193 10.882H13.994v-21.109zm11.407 3.671c0-2.557 2.164-4.196 4.917-4.196 2.426 0 4.786 1.18 6.621 3.606-1.442 3.212-4.064 4.786-6.621 4.786-2.753 0-4.917-1.574-4.917-4.196zm30.064 25.043h33.172v-8.063h-24.19v-13.505h16.257v-8.064H64.446v-11.473h23.535v-8.063H55.465v49.168zm53.716 0h19.471c9.244 0 15.406-5.572 15.406-14.226 0-5.572-2.819-9.637-8.326-11.8 3.803-2.229 6.031-5.638 6.031-10.424 0-7.736-5.638-12.718-14.226-12.718h-18.356v49.168zm17.57-41.564c3.802 0 6.359 2.426 6.359 6.097 0 3.868-2.557 6.294-6.359 6.294h-8.654v-12.391h8.654zm1.508 20.258c4.13 0 6.818 2.688 6.818 6.949 0 4.13-2.688 6.752-6.818 6.752h-10.162v-13.701h10.162zm20.642-3.278c0 14.554 10.293 25.24 24.847 25.24 14.553 0 24.846-10.686 24.846-25.24 0-14.62-10.293-25.24-24.846-25.24-14.554 0-24.847 10.62-24.847 25.24zm40.384 0c0 10.227-6.163 16.979-15.537 16.979-9.375 0-15.538-6.752-15.538-16.979s6.163-16.98 15.538-16.98c9.374 0 15.537 6.753 15.537 16.98zm17.723 24.584h31.206v-8.26H215.99v-40.908h-8.982v49.168zm38.063 0h15.93c14.751 0 24.584-10.489 24.584-24.715 0-14.03-9.833-24.453-24.584-24.453h-15.93v49.168zm15.93-40.908c9.178 0 15.275 6.49 15.275 16.258 0 9.834-6.097 16.39-15.275 16.39h-6.949v-32.648h6.949zM5.603 437.988v28.714h22.093c11.735 0 20.52-6.818 20.52-17.832 0-3.278-.787-6.621-2.557-9.178.327-1.508.524-3.015.524-4.458 0-10.161-7.474-18.421-19.143-18.421-12.194 0-21.437 8.981-21.437 21.175zm8.391 0c0-8.195 5.507-13.833 13.177-13.833 5.835 0 9.768 3.54 10.62 8.981-2.753-1.966-5.637-2.753-8.522-2.753-7.015 0-11.866 4.72-11.866 11.342 0 6.49 5.114 11.21 12.26 11.21 4.26 0 7.67-1.705 10.226-4.786v.066c0 7.342-5.638 10.882-12.193 10.882H13.994v-21.109zm11.407 3.671c0-2.557 2.164-4.196 4.917-4.196 2.426 0 4.786 1.18 6.621 3.606-1.442 3.212-4.064 4.786-6.621 4.786-2.753 0-4.917-1.574-4.917-4.196zm30.064 25.043h33.172v-8.063h-24.19v-13.505h16.257v-8.064H64.446v-11.473h23.535v-8.063H55.465v49.168zm53.716 0h19.471c9.244 0 15.406-5.572 15.406-14.226 0-5.572-2.819-9.637-8.326-11.8 3.803-2.229 6.031-5.638 6.031-10.424 0-7.736-5.638-12.718-14.226-12.718h-18.356v49.168zm17.57-41.564c3.802 0 6.359 2.426 6.359 6.097 0 3.868-2.557 6.294-6.359 6.294h-8.654v-12.391h8.654zm1.508 20.258c4.13 0 6.818 2.688 6.818 6.949 0 4.13-2.688 6.752-6.818 6.752h-10.162v-13.701h10.162zm20.642-3.278c0 14.554 10.293 25.24 24.847 25.24 14.553 0 24.846-10.686 24.846-25.24 0-14.62-10.293-25.24-24.846-25.24-14.554 0-24.847 10.62-24.847 25.24zm40.384 0c0 10.227-6.163 16.979-15.537 16.979-9.375 0-15.538-6.752-15.538-16.979s6.163-16.98 15.538-16.98c9.374 0 15.537 6.753 15.537 16.98zm17.723 24.584h31.206v-8.26H215.99v-40.908h-8.982v49.168zm38.063 0h15.93c14.751 0 24.584-10.489 24.584-24.715 0-14.03-9.833-24.453-24.584-24.453h-15.93v49.168zm15.93-40.908c9.178 0 15.275 6.49 15.275 16.258 0 9.834-6.097 16.39-15.275 16.39h-6.949v-32.648h6.949zM5.603 496.988v28.714h22.093c11.735 0 20.52-6.818 20.52-17.832 0-3.278-.787-6.621-2.557-9.178.327-1.508.524-3.015.524-4.458 0-10.161-7.474-18.421-19.143-18.421-12.194 0-21.437 8.981-21.437 21.175zm8.391 0c0-8.195 5.507-13.833 13.177-13.833 5.835 0 9.768 3.54 10.62 8.981-2.753-1.966-5.637-2.753-8.522-2.753-7.015 0-11.866 4.72-11.866 11.342 0 6.49 5.114 11.21 12.26 11.21 4.26 0 7.67-1.705 10.226-4.786v.066c0 7.342-5.638 10.882-12.193 10.882H13.994v-21.109zm11.407 3.671c0-2.557 2.164-4.196 4.917-4.196 2.426 0 4.786 1.18 6.621 3.606-1.442 3.212-4.064 4.786-6.621 4.786-2.753 0-4.917-1.574-4.917-4.196zm30.064 25.043h33.172v-8.063h-24.19v-13.505h16.257v-8.064H64.446v-11.473h23.535v-8.063H55.465v49.168zm53.716 0h19.471c9.244 0 15.406-5.572 15.406-14.226 0-5.572-2.819-9.637-8.326-11.8 3.803-2.229 6.031-5.638 6.031-10.424 0-7.736-5.638-12.718-14.226-12.718h-18.356v49.168zm17.57-41.564c3.802 0 6.359 2.426 6.359 6.097 0 3.868-2.557 6.294-6.359 6.294h-8.654v-12.391h8.654zm1.508 20.258c4.13 0 6.818 2.688 6.818 6.949 0 4.13-2.688 6.752-6.818 6.752h-10.162v-13.701h10.162zm20.642-3.278c0 14.554 10.293 25.24 24.847 25.24 14.553 0 24.846-10.686 24.846-25.24 0-14.62-10.293-25.24-24.846-25.24-14.554 0-24.847 10.62-24.847 25.24zm40.384 0c0 10.227-6.163 16.979-15.537 16.979-9.375 0-15.538-6.752-15.538-16.979s6.163-16.98 15.538-16.98c9.374 0 15.537 6.753 15.537 16.98zm17.723 24.584h31.206v-8.26H215.99v-40.908h-8.982v49.168zm38.063 0h15.93c14.751 0 24.584-10.489 24.584-24.715 0-14.03-9.833-24.453-24.584-24.453h-15.93v49.168zm15.93-40.908c9.178 0 15.275 6.49 15.275 16.258 0 9.834-6.097 16.39-15.275 16.39h-6.949v-32.648h6.949zM5.603 555.988v28.714h22.093c11.735 0 20.52-6.818 20.52-17.832 0-3.278-.787-6.621-2.557-9.178.327-1.508.524-3.015.524-4.458 0-10.161-7.474-18.421-19.143-18.421-12.194 0-21.437 8.981-21.437 21.175zm8.391 0c0-8.195 5.507-13.833 13.177-13.833 5.835 0 9.768 3.54 10.62 8.981-2.753-1.966-5.637-2.753-8.522-2.753-7.015 0-11.866 4.72-11.866 11.342 0 6.49 5.114 11.21 12.26 11.21 4.26 0 7.67-1.705 10.226-4.786v.066c0 7.342-5.638 10.882-12.193 10.882H13.994v-21.109zm11.407 3.671c0-2.557 2.164-4.196 4.917-4.196 2.426 0 4.786 1.18 6.621 3.606-1.442 3.212-4.064 4.786-6.621 4.786-2.753 0-4.917-1.574-4.917-4.196zm30.064 25.043h33.172v-8.063h-24.19v-13.505h16.257v-8.064H64.446v-11.473h23.535v-8.063H55.465v49.168zm53.716 0h19.471c9.244 0 15.406-5.572 15.406-14.226 0-5.572-2.819-9.637-8.326-11.8 3.803-2.229 6.031-5.638 6.031-10.424 0-7.736-5.638-12.718-14.226-12.718h-18.356v49.168zm17.57-41.564c3.802 0 6.359 2.426 6.359 6.097 0 3.868-2.557 6.294-6.359 6.294h-8.654v-12.391h8.654zm1.508 20.258c4.13 0 6.818 2.688 6.818 6.949 0 4.13-2.688 6.752-6.818 6.752h-10.162v-13.701h10.162zm20.642-3.278c0 14.554 10.293 25.24 24.847 25.24 14.553 0 24.846-10.686 24.846-25.24 0-14.62-10.293-25.24-24.846-25.24-14.554 0-24.847 10.62-24.847 25.24zm40.384 0c0 10.227-6.163 16.979-15.537 16.979-9.375 0-15.538-6.752-15.538-16.979s6.163-16.98 15.538-16.98c9.374 0 15.537 6.753 15.537 16.98zm17.723 24.584h31.206v-8.26H215.99v-40.908h-8.982v49.168zm38.063 0h15.93c14.751 0 24.584-10.489 24.584-24.715 0-14.03-9.833-24.453-24.584-24.453h-15.93v49.168zm15.93-40.908c9.178 0 15.275 6.49 15.275 16.258 0 9.834-6.097 16.39-15.275 16.39h-6.949v-32.648h6.949zM5.603 614.988v28.714h22.093c11.735 0 20.52-6.818 20.52-17.832 0-3.278-.787-6.621-2.557-9.178.327-1.508.524-3.015.524-4.458 0-10.161-7.474-18.421-19.143-18.421-12.194 0-21.437 8.981-21.437 21.175zm8.391 0c0-8.195 5.507-13.833 13.177-13.833 5.835 0 9.768 3.54 10.62 8.981-2.753-1.966-5.637-2.753-8.522-2.753-7.015 0-11.866 4.72-11.866 11.342 0 6.49 5.114 11.21 12.26 11.21 4.26 0 7.67-1.705 10.226-4.786v.066c0 7.342-5.638 10.882-12.193 10.882H13.994v-21.109zm11.407 3.671c0-2.557 2.164-4.196 4.917-4.196 2.426 0 4.786 1.18 6.621 3.606-1.442 3.212-4.064 4.786-6.621 4.786-2.753 0-4.917-1.574-4.917-4.196zm30.064 25.043h33.172v-8.063h-24.19v-13.505h16.257v-8.064H64.446v-11.473h23.535v-8.063H55.465v49.168zm53.716 0h19.471c9.244 0 15.406-5.572 15.406-14.226 0-5.572-2.819-9.637-8.326-11.8 3.803-2.229 6.031-5.638 6.031-10.424 0-7.736-5.638-12.718-14.226-12.718h-18.356v49.168zm17.57-41.564c3.802 0 6.359 2.426 6.359 6.097 0 3.868-2.557 6.294-6.359 6.294h-8.654v-12.391h8.654zm1.508 20.258c4.13 0 6.818 2.688 6.818 6.949 0 4.13-2.688 6.752-6.818 6.752h-10.162v-13.701h10.162zm20.642-3.278c0 14.554 10.293 25.24 24.847 25.24 14.553 0 24.846-10.686 24.846-25.24 0-14.62-10.293-25.24-24.846-25.24-14.554 0-24.847 10.62-24.847 25.24zm40.384 0c0 10.227-6.163 16.979-15.537 16.979-9.375 0-15.538-6.752-15.538-16.979s6.163-16.98 15.538-16.98c9.374 0 15.537 6.753 15.537 16.98zm17.723 24.584h31.206v-8.26H215.99v-40.908h-8.982v49.168zm38.063 0h15.93c14.751 0 24.584-10.489 24.584-24.715 0-14.03-9.833-24.453-24.584-24.453h-15.93v49.168zm15.93-40.908c9.178 0 15.275 6.49 15.275 16.258 0 9.834-6.097 16.39-15.275 16.39h-6.949v-32.648h6.949zM5.603 673.988v28.714h22.093c11.735 0 20.52-6.818 20.52-17.832 0-3.278-.787-6.621-2.557-9.178.327-1.508.524-3.015.524-4.458 0-10.161-7.474-18.421-19.143-18.421-12.194 0-21.437 8.981-21.437 21.175zm8.391 0c0-8.195 5.507-13.833 13.177-13.833 5.835 0 9.768 3.54 10.62 8.981-2.753-1.966-5.637-2.753-8.522-2.753-7.015 0-11.866 4.72-11.866 11.342 0 6.49 5.114 11.21 12.26 11.21 4.26 0 7.67-1.705 10.226-4.786v.066c0 7.342-5.638 10.882-12.193 10.882H13.994v-21.109zm11.407 3.671c0-2.557 2.164-4.196 4.917-4.196 2.426 0 4.786 1.18 6.621 3.606-1.442 3.212-4.064 4.786-6.621 4.786-2.753 0-4.917-1.574-4.917-4.196zm30.064 25.043h33.172v-8.063h-24.19v-13.505h16.257v-8.064H64.446v-11.473h23.535v-8.063H55.465v49.168zm53.716 0h19.471c9.244 0 15.406-5.572 15.406-14.226 0-5.572-2.819-9.637-8.326-11.8 3.803-2.229 6.031-5.638 6.031-10.424 0-7.736-5.638-12.718-14.226-12.718h-18.356v49.168zm17.57-41.564c3.802 0 6.359 2.426 6.359 6.097 0 3.868-2.557 6.294-6.359 6.294h-8.654v-12.391h8.654zm1.508 20.258c4.13 0 6.818 2.688 6.818 6.949 0 4.13-2.688 6.752-6.818 6.752h-10.162v-13.701h10.162zm20.642-3.278c0 14.554 10.293 25.24 24.847 25.24 14.553 0 24.846-10.686 24.846-25.24 0-14.62-10.293-25.24-24.846-25.24-14.554 0-24.847 10.62-24.847 25.24zm40.384 0c0 10.227-6.163 16.979-15.537 16.979-9.375 0-15.538-6.752-15.538-16.979s6.163-16.98 15.538-16.98c9.374 0 15.537 6.753 15.537 16.98zm17.723 24.584h31.206v-8.26H215.99v-40.908h-8.982v49.168zm38.063 0h15.93c14.751 0 24.584-10.489 24.584-24.715 0-14.03-9.833-24.453-24.584-24.453h-15.93v49.168zm15.93-40.908c9.178 0 15.275 6.49 15.275 16.258 0 9.834-6.097 16.39-15.275 16.39h-6.949v-32.648h6.949zM5.603 732.988v28.714h22.093c11.735 0 20.52-6.818 20.52-17.832 0-3.278-.787-6.621-2.557-9.178.327-1.508.524-3.015.524-4.458 0-10.161-7.474-18.421-19.143-18.421-12.194 0-21.437 8.981-21.437 21.175zm8.391 0c0-8.195 5.507-13.833 13.177-13.833 5.835 0 9.768 3.54 10.62 8.981-2.753-1.966-5.637-2.753-8.522-2.753-7.015 0-11.866 4.72-11.866 11.342 0 6.49 5.114 11.21 12.26 11.21 4.26 0 7.67-1.705 10.226-4.786v.066c0 7.342-5.638 10.882-12.193 10.882H13.994v-21.109zm11.407 3.671c0-2.557 2.164-4.196 4.917-4.196 2.426 0 4.786 1.18 6.621 3.606-1.442 3.212-4.064 4.786-6.621 4.786-2.753 0-4.917-1.574-4.917-4.196zm30.064 25.043h33.172v-8.063h-24.19v-13.505h16.257v-8.064H64.446v-11.473h23.535v-8.063H55.465v49.168zm53.716 0h19.471c9.244 0 15.406-5.572 15.406-14.226 0-5.572-2.819-9.637-8.326-11.8 3.803-2.229 6.031-5.638 6.031-10.424 0-7.736-5.638-12.718-14.226-12.718h-18.356v49.168zm17.57-41.564c3.802 0 6.359 2.426 6.359 6.097 0 3.868-2.557 6.294-6.359 6.294h-8.654v-12.391h8.654zm1.508 20.258c4.13 0 6.818 2.688 6.818 6.949 0 4.13-2.688 6.752-6.818 6.752h-10.162v-13.701h10.162zm20.642-3.278c0 14.554 10.293 25.24 24.847 25.24 14.553 0 24.846-10.686 24.846-25.24 0-14.62-10.293-25.24-24.846-25.24-14.554 0-24.847 10.62-24.847 25.24zm40.384 0c0 10.227-6.163 16.979-15.537 16.979-9.375 0-15.538-6.752-15.538-16.979s6.163-16.98 15.538-16.98c9.374 0 15.537 6.753 15.537 16.98zm17.723 24.584h31.206v-8.26H215.99v-40.908h-8.982v49.168zm38.063 0h15.93c14.751 0 24.584-10.489 24.584-24.715 0-14.03-9.833-24.453-24.584-24.453h-15.93v49.168zm15.93-40.908c9.178 0 15.275 6.49 15.275 16.258 0 9.834-6.097 16.39-15.275 16.39h-6.949v-32.648h6.949zM5.603 791.988v28.714h22.093c11.735 0 20.52-6.818 20.52-17.832 0-3.278-.787-6.621-2.557-9.178.327-1.508.524-3.015.524-4.458 0-10.161-7.474-18.421-19.143-18.421-12.194 0-21.437 8.981-21.437 21.175zm8.391 0c0-8.195 5.507-13.833 13.177-13.833 5.835 0 9.768 3.54 10.62 8.981-2.753-1.966-5.637-2.753-8.522-2.753-7.015 0-11.866 4.72-11.866 11.342 0 6.49 5.114 11.21 12.26 11.21 4.26 0 7.67-1.705 10.226-4.786v.066c0 7.342-5.638 10.882-12.193 10.882H13.994v-21.109zm11.407 3.671c0-2.557 2.164-4.196 4.917-4.196 2.426 0 4.786 1.18 6.621 3.606-1.442 3.212-4.064 4.786-6.621 4.786-2.753 0-4.917-1.574-4.917-4.196zm30.064 25.043h33.172v-8.063h-24.19v-13.505h16.257v-8.064H64.446v-11.473h23.535v-8.063H55.465v49.168zm53.716 0h19.471c9.244 0 15.406-5.572 15.406-14.226 0-5.572-2.819-9.637-8.326-11.8 3.803-2.229 6.031-5.638 6.031-10.424 0-7.736-5.638-12.718-14.226-12.718h-18.356v49.168zm17.57-41.564c3.802 0 6.359 2.426 6.359 6.097 0 3.868-2.557 6.294-6.359 6.294h-8.654v-12.391h8.654zm1.508 20.258c4.13 0 6.818 2.688 6.818 6.949 0 4.13-2.688 6.752-6.818 6.752h-10.162v-13.701h10.162zm20.642-3.278c0 14.554 10.293 25.24 24.847 25.24 14.553 0 24.846-10.686 24.846-25.24 0-14.62-10.293-25.24-24.846-25.24-14.554 0-24.847 10.62-24.847 25.24zm40.384 0c0 10.227-6.163 16.979-15.537 16.979-9.375 0-15.538-6.752-15.538-16.979s6.163-16.98 15.538-16.98c9.374 0 15.537 6.753 15.537 16.98zm17.723 24.584h31.206v-8.26H215.99v-40.908h-8.982v49.168zm38.063 0h15.93c14.751 0 24.584-10.489 24.584-24.715 0-14.03-9.833-24.453-24.584-24.453h-15.93v49.168zm15.93-40.908c9.178 0 15.275 6.49 15.275 16.258 0 9.834-6.097 16.39-15.275 16.39h-6.949v-32.648h6.949zM5.603 850.988v28.714h22.093c11.735 0 20.52-6.818 20.52-17.832 0-3.278-.787-6.621-2.557-9.178.327-1.508.524-3.015.524-4.458 0-10.161-7.474-18.421-19.143-18.421-12.194 0-21.437 8.981-21.437 21.175zm8.391 0c0-8.195 5.507-13.833 13.177-13.833 5.835 0 9.768 3.54 10.62 8.981-2.753-1.966-5.637-2.753-8.522-2.753-7.015 0-11.866 4.72-11.866 11.342 0 6.49 5.114 11.21 12.26 11.21 4.26 0 7.67-1.705 10.226-4.786v.066c0 7.342-5.638 10.882-12.193 10.882H13.994v-21.109zm11.407 3.671c0-2.557 2.164-4.196 4.917-4.196 2.426 0 4.786 1.18 6.621 3.606-1.442 3.212-4.064 4.786-6.621 4.786-2.753 0-4.917-1.574-4.917-4.196zm30.064 25.043h33.172v-8.063h-24.19v-13.505h16.257v-8.064H64.446v-11.473h23.535v-8.063H55.465v49.168zm53.716 0h19.471c9.244 0 15.406-5.572 15.406-14.226 0-5.572-2.819-9.637-8.326-11.8 3.803-2.229 6.031-5.638 6.031-10.424 0-7.736-5.638-12.718-14.226-12.718h-18.356v49.168zm17.57-41.564c3.802 0 6.359 2.426 6.359 6.097 0 3.868-2.557 6.294-6.359 6.294h-8.654v-12.391h8.654zm1.508 20.258c4.13 0 6.818 2.688 6.818 6.949 0 4.13-2.688 6.752-6.818 6.752h-10.162v-13.701h10.162zm20.642-3.278c0 14.554 10.293 25.24 24.847 25.24 14.553 0 24.846-10.686 24.846-25.24 0-14.62-10.293-25.24-24.846-25.24-14.554 0-24.847 10.62-24.847 25.24zm40.384 0c0 10.227-6.163 16.979-15.537 16.979-9.375 0-15.538-6.752-15.538-16.979s6.163-16.98 15.538-16.98c9.374 0 15.537 6.753 15.537 16.98zm17.723 24.584h31.206v-8.26H215.99v-40.908h-8.982v49.168zm38.063 0h15.93c14.751 0 24.584-10.489 24.584-24.715 0-14.03-9.833-24.453-24.584-24.453h-15.93v49.168zm15.93-40.908c9.178 0 15.275 6.49 15.275 16.258 0 9.834-6.097 16.39-15.275 16.39h-6.949v-32.648h6.949zM5.603 909.988v28.714h22.093c11.735 0 20.52-6.818 20.52-17.832 0-3.278-.787-6.621-2.557-9.178.327-1.508.524-3.015.524-4.458 0-10.161-7.474-18.421-19.143-18.421-12.194 0-21.437 8.981-21.437 21.175zm8.391 0c0-8.195 5.507-13.833 13.177-13.833 5.835 0 9.768 3.54 10.62 8.981-2.753-1.966-5.637-2.753-8.522-2.753-7.015 0-11.866 4.72-11.866 11.342 0 6.49 5.114 11.21 12.26 11.21 4.26 0 7.67-1.705 10.226-4.786v.066c0 7.342-5.638 10.882-12.193 10.882H13.994v-21.109zm11.407 3.671c0-2.557 2.164-4.196 4.917-4.196 2.426 0 4.786 1.18 6.621 3.606-1.442 3.212-4.064 4.786-6.621 4.786-2.753 0-4.917-1.574-4.917-4.196zm30.064 25.043h33.172v-8.063h-24.19v-13.505h16.257v-8.064H64.446v-11.473h23.535v-8.063H55.465v49.168zm53.716 0h19.471c9.244 0 15.406-5.572 15.406-14.226 0-5.572-2.819-9.637-8.326-11.8 3.803-2.229 6.031-5.638 6.031-10.424 0-7.736-5.638-12.718-14.226-12.718h-18.356v49.168zm17.57-41.564c3.802 0 6.359 2.426 6.359 6.097 0 3.868-2.557 6.294-6.359 6.294h-8.654v-12.391h8.654zm1.508 20.258c4.13 0 6.818 2.688 6.818 6.949 0 4.13-2.688 6.752-6.818 6.752h-10.162v-13.701h10.162zm20.642-3.278c0 14.554 10.293 25.24 24.847 25.24 14.553 0 24.846-10.686 24.846-25.24 0-14.62-10.293-25.24-24.846-25.24-14.554 0-24.847 10.62-24.847 25.24zm40.384 0c0 10.227-6.163 16.979-15.537 16.979-9.375 0-15.538-6.752-15.538-16.979s6.163-16.98 15.538-16.98c9.374 0 15.537 6.753 15.537 16.98zm17.723 24.584h31.206v-8.26H215.99v-40.908h-8.982v49.168zm38.063 0h15.93c14.751 0 24.584-10.489 24.584-24.715 0-14.03-9.833-24.453-24.584-24.453h-15.93v49.168zm15.93-40.908c9.178 0 15.275 6.49 15.275 16.258 0 9.834-6.097 16.39-15.275 16.39h-6.949v-32.648h6.949zM5.603 968.988v28.714h22.093c11.735 0 20.52-6.818 20.52-17.832 0-3.278-.787-6.621-2.557-9.178.327-1.508.524-3.015.524-4.458 0-10.161-7.474-18.421-19.143-18.421-12.194 0-21.437 8.981-21.437 21.175zm8.391 0c0-8.195 5.507-13.833 13.177-13.833 5.835 0 9.768 3.54 10.62 8.981-2.753-1.966-5.637-2.753-8.522-2.753-7.015 0-11.866 4.72-11.866 11.342 0 6.49 5.114 11.21 12.26 11.21 4.26 0 7.67-1.705 10.226-4.786v.066c0 7.342-5.638 10.882-12.193 10.882H13.994v-21.109zm11.407 3.671c0-2.557 2.164-4.196 4.917-4.196 2.426 0 4.786 1.18 6.621 3.606-1.442 3.212-4.064 4.786-6.621 4.786-2.753 0-4.917-1.574-4.917-4.196zm30.064 25.043h33.172v-8.063h-24.19v-13.505h16.257v-8.064H64.446v-11.473h23.535v-8.063H55.465v49.168zm53.716 0h19.471c9.244 0 15.406-5.572 15.406-14.226 0-5.572-2.819-9.637-8.326-11.8 3.803-2.229 6.031-5.638 6.031-10.424 0-7.736-5.638-12.718-14.226-12.718h-18.356v49.168zm17.57-41.564c3.802 0 6.359 2.426 6.359 6.097 0 3.868-2.557 6.294-6.359 6.294h-8.654v-12.391h8.654zm1.508 20.258c4.13 0 6.818 2.688 6.818 6.949 0 4.13-2.688 6.752-6.818 6.752h-10.162v-13.701h10.162zm20.642-3.278c0 14.554 10.293 25.24 24.847 25.24 14.553 0 24.846-10.686 24.846-25.24 0-14.62-10.293-25.24-24.846-25.24-14.554 0-24.847 10.62-24.847 25.24zm40.384 0c0 10.227-6.163 16.979-15.537 16.979-9.375 0-15.538-6.752-15.538-16.979s6.163-16.98 15.538-16.98c9.374 0 15.537 6.753 15.537 16.98zm17.723 24.584h31.206v-8.26H215.99v-40.908h-8.982v49.168zm38.063 0h15.93c14.751 0 24.584-10.489 24.584-24.715 0-14.03-9.833-24.453-24.584-24.453h-15.93v49.168zm15.93-40.908c9.178 0 15.275 6.49 15.275 16.258 0 9.834-6.097 16.39-15.275 16.39h-6.949v-32.648h6.949zM5.603 1027.99v28.71h22.093c11.735 0 20.52-6.82 20.52-17.83 0-3.28-.787-6.62-2.557-9.18.327-1.51.524-3.01.524-4.46 0-10.16-7.474-18.42-19.143-18.42-12.194 0-21.437 8.98-21.437 21.18zm8.391 0c0-8.2 5.507-13.83 13.177-13.83 5.835 0 9.768 3.54 10.62 8.98-2.753-1.97-5.637-2.76-8.522-2.76-7.015 0-11.866 4.72-11.866 11.34 0 6.49 5.114 11.21 12.26 11.21 4.26 0 7.67-1.7 10.226-4.78v.06c0 7.35-5.638 10.89-12.193 10.89H13.994v-21.11zm11.407 3.67c0-2.56 2.164-4.2 4.917-4.2 2.426 0 4.786 1.18 6.621 3.61-1.442 3.21-4.064 4.78-6.621 4.78-2.753 0-4.917-1.57-4.917-4.19zm30.064 25.04h33.172v-8.06h-24.19v-13.51h16.257v-8.06H64.446v-11.47h23.535v-8.07H55.465v49.17zm53.716 0h19.471c9.244 0 15.406-5.57 15.406-14.22 0-5.58-2.819-9.64-8.326-11.8 3.803-2.23 6.031-5.64 6.031-10.43 0-7.73-5.638-12.72-14.226-12.72h-18.356v49.17zm17.57-41.56c3.802 0 6.359 2.42 6.359 6.1 0 3.86-2.557 6.29-6.359 6.29h-8.654v-12.39h8.654zm1.508 20.26c4.13 0 6.818 2.68 6.818 6.94 0 4.14-2.688 6.76-6.818 6.76h-10.162v-13.7h10.162zm20.642-3.28c0 14.55 10.293 25.24 24.847 25.24 14.553 0 24.846-10.69 24.846-25.24 0-14.62-10.293-25.24-24.846-25.24-14.554 0-24.847 10.62-24.847 25.24zm40.384 0c0 10.22-6.163 16.98-15.537 16.98-9.375 0-15.538-6.76-15.538-16.98 0-10.23 6.163-16.98 15.538-16.98 9.374 0 15.537 6.75 15.537 16.98zm17.723 24.58h31.206v-8.26H215.99v-40.91h-8.982v49.17zm38.063 0h15.93c14.751 0 24.584-10.49 24.584-24.71 0-14.03-9.833-24.46-24.584-24.46h-15.93v49.17zm15.93-40.91c9.178 0 15.275 6.49 15.275 16.26 0 9.84-6.097 16.39-15.275 16.39h-6.949v-32.65h6.949z" fill="#FF0"/></svg>