<svg width="393" height="1433" viewBox="0 0 393 1433" fill="none" xmlns="http://www.w3.org/2000/svg"><path d="M7.499 32.664v38.969h29.983c15.926 0 27.848-9.253 27.848-24.2 0-4.449-1.068-8.986-3.47-12.456.445-2.046.712-4.093.712-6.05 0-13.79-10.143-25-25.98-25C20.044 3.926 7.5 16.114 7.5 32.663zm11.388 0c0-11.122 7.474-18.773 17.883-18.773 7.918 0 13.257 4.804 14.413 12.189-3.736-2.67-7.651-3.737-11.566-3.737-9.52 0-16.103 6.406-16.103 15.392 0 8.808 6.94 15.214 16.637 15.214 5.783 0 10.41-2.313 13.88-6.495v.09c0 9.964-7.652 14.768-16.55 14.768H18.888V32.664zm15.48 4.982c0-3.47 2.937-5.694 6.674-5.694 3.292 0 6.495 1.601 8.986 4.893-1.958 4.36-5.517 6.495-8.986 6.495-3.737 0-6.673-2.135-6.673-5.694zm40.8 33.987h45.02V60.69h-32.83V42.362h22.064V31.418H87.357v-15.57h31.94V4.905h-44.13v66.728zm72.901 0h26.424c12.545 0 20.908-7.563 20.908-19.307 0-7.562-3.826-13.078-11.299-16.014 5.16-3.025 8.185-7.652 8.185-14.147 0-10.498-7.651-17.26-19.306-17.26h-24.912v66.728zm23.844-56.407c5.16 0 8.63 3.291 8.63 8.274 0 5.25-3.47 8.541-8.63 8.541h-11.744V15.226h11.744zm2.046 27.491c5.605 0 9.253 3.648 9.253 9.431 0 5.605-3.648 9.164-9.253 9.164h-13.79V42.717h13.79zm28.015-4.448c0 19.751 13.968 34.253 33.72 34.253 19.751 0 33.719-14.502 33.719-34.253 0-19.84-13.968-34.254-33.719-34.254-19.752 0-33.72 14.413-33.72 34.254zm54.806 0c0 13.88-8.364 23.043-21.086 23.043-12.723 0-21.086-9.164-21.086-23.043 0-13.88 8.363-23.043 21.086-23.043 12.722 0 21.086 9.164 21.086 23.043zm24.053 33.364h42.35v-11.21h-30.161V4.904h-12.189v66.728zm51.655 0h21.62c20.018 0 33.364-14.235 33.364-33.542 0-19.04-13.346-33.186-33.364-33.186h-21.62v66.728zm21.62-55.518c12.455 0 20.73 8.808 20.73 22.065 0 13.346-8.275 22.242-20.73 22.242h-9.431V16.115h9.431zM7.499 112.664v38.969h29.983c15.926 0 27.848-9.253 27.848-24.2 0-4.449-1.068-8.986-3.47-12.456.445-2.046.712-4.093.712-6.05 0-13.79-10.143-25-25.98-25-16.548 0-29.093 12.188-29.093 28.737zm11.388 0c0-11.122 7.474-18.773 17.883-18.773 7.918 0 13.257 4.804 14.413 12.189-3.736-2.669-7.651-3.737-11.566-3.737-9.52 0-16.103 6.406-16.103 15.392 0 8.808 6.94 15.214 16.637 15.214 5.783 0 10.41-2.313 13.88-6.495v.089c0 9.965-7.652 14.769-16.55 14.769H18.888v-28.648zm15.48 4.982c0-3.47 2.937-5.694 6.674-5.694 3.292 0 6.495 1.601 8.986 4.893-1.958 4.36-5.517 6.495-8.986 6.495-3.737 0-6.673-2.135-6.673-5.694zm40.8 33.987h45.02v-10.944h-32.83v-18.327h22.064v-10.944H87.357v-15.57h31.94V84.905h-44.13v66.728zm72.901 0h26.424c12.545 0 20.908-7.563 20.908-19.307 0-7.562-3.826-13.078-11.299-16.014 5.16-3.025 8.185-7.652 8.185-14.147 0-10.498-7.651-17.26-19.306-17.26h-24.912v66.728zm23.844-56.407c5.16 0 8.63 3.291 8.63 8.274 0 5.249-3.47 8.541-8.63 8.541h-11.744V95.226h11.744zm2.046 27.491c5.605 0 9.253 3.648 9.253 9.431 0 5.605-3.648 9.164-9.253 9.164h-13.79v-18.595h13.79zm28.015-4.448c0 19.751 13.968 34.254 33.72 34.254 19.751 0 33.719-14.503 33.719-34.254 0-19.84-13.968-34.254-33.719-34.254-19.752 0-33.72 14.413-33.72 34.254zm54.806 0c0 13.879-8.364 23.043-21.086 23.043-12.723 0-21.086-9.164-21.086-23.043s8.363-23.043 21.086-23.043c12.722 0 21.086 9.164 21.086 23.043zm24.053 33.364h42.35v-11.21h-30.161V84.905h-12.189v66.728zm51.655 0h21.62c20.018 0 33.364-14.235 33.364-33.542 0-19.04-13.346-33.186-33.364-33.186h-21.62v66.728zm21.62-55.518c12.455 0 20.73 8.808 20.73 22.065 0 13.346-8.275 22.243-20.73 22.243h-9.431V96.115h9.431zM7.499 192.664v38.969h29.983c15.926 0 27.848-9.253 27.848-24.2 0-4.449-1.068-8.986-3.47-12.456.445-2.046.712-4.093.712-6.05 0-13.79-10.143-25.001-25.98-25.001-16.548 0-29.093 12.189-29.093 28.738zm11.388 0c0-11.122 7.474-18.773 17.883-18.773 7.918 0 13.257 4.804 14.413 12.189-3.736-2.669-7.651-3.737-11.566-3.737-9.52 0-16.103 6.406-16.103 15.392 0 8.808 6.94 15.214 16.637 15.214 5.783 0 10.41-2.313 13.88-6.495v.089c0 9.965-7.652 14.769-16.55 14.769H18.888v-28.648zm15.48 4.982c0-3.47 2.937-5.694 6.674-5.694 3.292 0 6.495 1.601 8.986 4.893-1.958 4.36-5.517 6.495-8.986 6.495-3.737 0-6.673-2.135-6.673-5.694zm40.8 33.987h45.02v-10.944h-32.83v-18.327h22.064v-10.944H87.357v-15.57h31.94v-10.943h-44.13v66.728zm72.901 0h26.424c12.545 0 20.908-7.563 20.908-19.307 0-7.562-3.826-13.078-11.299-16.014 5.16-3.025 8.185-7.652 8.185-14.147 0-10.498-7.651-17.26-19.306-17.26h-24.912v66.728zm23.844-56.407c5.16 0 8.63 3.291 8.63 8.274 0 5.249-3.47 8.541-8.63 8.541h-11.744v-16.815h11.744zm2.046 27.491c5.605 0 9.253 3.648 9.253 9.431 0 5.605-3.648 9.164-9.253 9.164h-13.79v-18.595h13.79zm28.015-4.448c0 19.751 13.968 34.254 33.72 34.254 19.751 0 33.719-14.503 33.719-34.254 0-19.84-13.968-34.254-33.719-34.254-19.752 0-33.72 14.414-33.72 34.254zm54.806 0c0 13.879-8.364 23.043-21.086 23.043-12.723 0-21.086-9.164-21.086-23.043s8.363-23.043 21.086-23.043c12.722 0 21.086 9.164 21.086 23.043zm24.053 33.364h42.35v-11.21h-30.161v-55.518h-12.189v66.728zm51.655 0h21.62c20.018 0 33.364-14.235 33.364-33.542 0-19.04-13.346-33.186-33.364-33.186h-21.62v66.728zm21.62-55.518c12.455 0 20.73 8.808 20.73 22.065 0 13.346-8.275 22.243-20.73 22.243h-9.431v-44.308h9.431zM7.499 272.664v38.969h29.983c15.926 0 27.848-9.253 27.848-24.2 0-4.449-1.068-8.986-3.47-12.456.445-2.046.712-4.093.712-6.05 0-13.79-10.143-25.001-25.98-25.001-16.548 0-29.093 12.189-29.093 28.738zm11.388 0c0-11.122 7.474-18.773 17.883-18.773 7.918 0 13.257 4.804 14.413 12.189-3.736-2.669-7.651-3.737-11.566-3.737-9.52 0-16.103 6.406-16.103 15.392 0 8.808 6.94 15.214 16.637 15.214 5.783 0 10.41-2.313 13.88-6.495v.089c0 9.965-7.652 14.769-16.55 14.769H18.888v-28.648zm15.48 4.982c0-3.47 2.937-5.694 6.674-5.694 3.292 0 6.495 1.601 8.986 4.893-1.958 4.36-5.517 6.495-8.986 6.495-3.737 0-6.673-2.135-6.673-5.694zm40.8 33.987h45.02v-10.944h-32.83v-18.327h22.064v-10.944H87.357v-15.57h31.94v-10.943h-44.13v66.728zm72.901 0h26.424c12.545 0 20.908-7.563 20.908-19.307 0-7.562-3.826-13.078-11.299-16.014 5.16-3.025 8.185-7.652 8.185-14.147 0-10.498-7.651-17.26-19.306-17.26h-24.912v66.728zm23.844-56.407c5.16 0 8.63 3.291 8.63 8.274 0 5.249-3.47 8.541-8.63 8.541h-11.744v-16.815h11.744zm2.046 27.491c5.605 0 9.253 3.648 9.253 9.431 0 5.605-3.648 9.164-9.253 9.164h-13.79v-18.595h13.79zm28.015-4.448c0 19.751 13.968 34.254 33.72 34.254 19.751 0 33.719-14.503 33.719-34.254 0-19.84-13.968-34.254-33.719-34.254-19.752 0-33.72 14.414-33.72 34.254zm54.806 0c0 13.879-8.364 23.043-21.086 23.043-12.723 0-21.086-9.164-21.086-23.043s8.363-23.043 21.086-23.043c12.722 0 21.086 9.164 21.086 23.043zm24.053 33.364h42.35v-11.21h-30.161v-55.518h-12.189v66.728zm51.655 0h21.62c20.018 0 33.364-14.235 33.364-33.542 0-19.04-13.346-33.186-33.364-33.186h-21.62v66.728zm21.62-55.518c12.455 0 20.73 8.808 20.73 22.065 0 13.346-8.275 22.243-20.73 22.243h-9.431v-44.308h9.431zM7.499 352.664v38.969h29.983c15.926 0 27.848-9.253 27.848-24.2 0-4.449-1.068-8.986-3.47-12.456.445-2.046.712-4.093.712-6.05 0-13.79-10.143-25.001-25.98-25.001-16.548 0-29.093 12.189-29.093 28.738zm11.388 0c0-11.122 7.474-18.773 17.883-18.773 7.918 0 13.257 4.804 14.413 12.189-3.736-2.669-7.651-3.737-11.566-3.737-9.52 0-16.103 6.406-16.103 15.392 0 8.808 6.94 15.214 16.637 15.214 5.783 0 10.41-2.313 13.88-6.495v.089c0 9.965-7.652 14.769-16.55 14.769H18.888v-28.648zm15.48 4.982c0-3.47 2.937-5.694 6.674-5.694 3.292 0 6.495 1.601 8.986 4.893-1.958 4.36-5.517 6.495-8.986 6.495-3.737 0-6.673-2.135-6.673-5.694zm40.8 33.987h45.02v-10.944h-32.83v-18.327h22.064v-10.944H87.357v-15.57h31.94v-10.943h-44.13v66.728zm72.901 0h26.424c12.545 0 20.908-7.563 20.908-19.307 0-7.562-3.826-13.078-11.299-16.014 5.16-3.025 8.185-7.652 8.185-14.147 0-10.498-7.651-17.26-19.306-17.26h-24.912v66.728zm23.844-56.407c5.16 0 8.63 3.291 8.63 8.274 0 5.249-3.47 8.541-8.63 8.541h-11.744v-16.815h11.744zm2.046 27.491c5.605 0 9.253 3.648 9.253 9.431 0 5.605-3.648 9.164-9.253 9.164h-13.79v-18.595h13.79zm28.015-4.448c0 19.751 13.968 34.254 33.72 34.254 19.751 0 33.719-14.503 33.719-34.254 0-19.84-13.968-34.254-33.719-34.254-19.752 0-33.72 14.414-33.72 34.254zm54.806 0c0 13.879-8.364 23.043-21.086 23.043-12.723 0-21.086-9.164-21.086-23.043s8.363-23.043 21.086-23.043c12.722 0 21.086 9.164 21.086 23.043zm24.053 33.364h42.35v-11.21h-30.161v-55.518h-12.189v66.728zm51.655 0h21.62c20.018 0 33.364-14.235 33.364-33.542 0-19.04-13.346-33.186-33.364-33.186h-21.62v66.728zm21.62-55.518c12.455 0 20.73 8.808 20.73 22.065 0 13.346-8.275 22.243-20.73 22.243h-9.431v-44.308h9.431zM7.499 432.664v38.969h29.983c15.926 0 27.848-9.253 27.848-24.2 0-4.449-1.068-8.986-3.47-12.456.445-2.046.712-4.093.712-6.05 0-13.79-10.143-25.001-25.98-25.001-16.548 0-29.093 12.189-29.093 28.738zm11.388 0c0-11.122 7.474-18.773 17.883-18.773 7.918 0 13.257 4.804 14.413 12.189-3.736-2.669-7.651-3.737-11.566-3.737-9.52 0-16.103 6.406-16.103 15.392 0 8.808 6.94 15.214 16.637 15.214 5.783 0 10.41-2.313 13.88-6.495v.089c0 9.965-7.652 14.769-16.55 14.769H18.888v-28.648zm15.48 4.982c0-3.47 2.937-5.694 6.674-5.694 3.292 0 6.495 1.601 8.986 4.893-1.958 4.36-5.517 6.495-8.986 6.495-3.737 0-6.673-2.135-6.673-5.694zm40.8 33.987h45.02v-10.944h-32.83v-18.327h22.064v-10.944H87.357v-15.57h31.94v-10.943h-44.13v66.728zm72.901 0h26.424c12.545 0 20.908-7.563 20.908-19.307 0-7.562-3.826-13.078-11.299-16.014 5.16-3.025 8.185-7.652 8.185-14.147 0-10.498-7.651-17.26-19.306-17.26h-24.912v66.728zm23.844-56.407c5.16 0 8.63 3.291 8.63 8.274 0 5.249-3.47 8.541-8.63 8.541h-11.744v-16.815h11.744zm2.046 27.491c5.605 0 9.253 3.648 9.253 9.431 0 5.605-3.648 9.164-9.253 9.164h-13.79v-18.595h13.79zm28.015-4.448c0 19.751 13.968 34.254 33.72 34.254 19.751 0 33.719-14.503 33.719-34.254 0-19.84-13.968-34.254-33.719-34.254-19.752 0-33.72 14.414-33.72 34.254zm54.806 0c0 13.879-8.364 23.043-21.086 23.043-12.723 0-21.086-9.164-21.086-23.043s8.363-23.043 21.086-23.043c12.722 0 21.086 9.164 21.086 23.043zm24.053 33.364h42.35v-11.21h-30.161v-55.518h-12.189v66.728zm51.655 0h21.62c20.018 0 33.364-14.235 33.364-33.542 0-19.04-13.346-33.186-33.364-33.186h-21.62v66.728zm21.62-55.518c12.455 0 20.73 8.808 20.73 22.065 0 13.346-8.275 22.243-20.73 22.243h-9.431v-44.308h9.431zM7.499 512.664v38.969h29.983c15.926 0 27.848-9.253 27.848-24.2 0-4.449-1.068-8.986-3.47-12.456.445-2.046.712-4.093.712-6.05 0-13.79-10.143-25.001-25.98-25.001-16.548 0-29.093 12.189-29.093 28.738zm11.388 0c0-11.122 7.474-18.773 17.883-18.773 7.918 0 13.257 4.804 14.413 12.189-3.736-2.669-7.651-3.737-11.566-3.737-9.52 0-16.103 6.406-16.103 15.392 0 8.808 6.94 15.214 16.637 15.214 5.783 0 10.41-2.313 13.88-6.495v.089c0 9.965-7.652 14.769-16.55 14.769H18.888v-28.648zm15.48 4.982c0-3.47 2.937-5.694 6.674-5.694 3.292 0 6.495 1.601 8.986 4.893-1.958 4.36-5.517 6.495-8.986 6.495-3.737 0-6.673-2.135-6.673-5.694zm40.8 33.987h45.02v-10.944h-32.83v-18.327h22.064v-10.944H87.357v-15.57h31.94v-10.943h-44.13v66.728zm72.901 0h26.424c12.545 0 20.908-7.563 20.908-19.307 0-7.562-3.826-13.078-11.299-16.014 5.16-3.025 8.185-7.652 8.185-14.147 0-10.498-7.651-17.26-19.306-17.26h-24.912v66.728zm23.844-56.407c5.16 0 8.63 3.291 8.63 8.274 0 5.249-3.47 8.541-8.63 8.541h-11.744v-16.815h11.744zm2.046 27.491c5.605 0 9.253 3.648 9.253 9.431 0 5.605-3.648 9.164-9.253 9.164h-13.79v-18.595h13.79zm28.015-4.448c0 19.751 13.968 34.254 33.72 34.254 19.751 0 33.719-14.503 33.719-34.254 0-19.84-13.968-34.254-33.719-34.254-19.752 0-33.72 14.414-33.72 34.254zm54.806 0c0 13.879-8.364 23.043-21.086 23.043-12.723 0-21.086-9.164-21.086-23.043s8.363-23.043 21.086-23.043c12.722 0 21.086 9.164 21.086 23.043zm24.053 33.364h42.35v-11.21h-30.161v-55.518h-12.189v66.728zm51.655 0h21.62c20.018 0 33.364-14.235 33.364-33.542 0-19.04-13.346-33.186-33.364-33.186h-21.62v66.728zm21.62-55.518c12.455 0 20.73 8.808 20.73 22.065 0 13.346-8.275 22.243-20.73 22.243h-9.431v-44.308h9.431zM7.499 592.664v38.969h29.983c15.926 0 27.848-9.253 27.848-24.2 0-4.449-1.068-8.986-3.47-12.456.445-2.046.712-4.093.712-6.05 0-13.79-10.143-25.001-25.98-25.001-16.548 0-29.093 12.189-29.093 28.738zm11.388 0c0-11.122 7.474-18.773 17.883-18.773 7.918 0 13.257 4.804 14.413 12.189-3.736-2.669-7.651-3.737-11.566-3.737-9.52 0-16.103 6.406-16.103 15.392 0 8.808 6.94 15.214 16.637 15.214 5.783 0 10.41-2.313 13.88-6.495v.089c0 9.965-7.652 14.769-16.55 14.769H18.888v-28.648zm15.48 4.982c0-3.47 2.937-5.694 6.674-5.694 3.292 0 6.495 1.601 8.986 4.893-1.958 4.36-5.517 6.495-8.986 6.495-3.737 0-6.673-2.135-6.673-5.694zm40.8 33.987h45.02v-10.944h-32.83v-18.327h22.064v-10.944H87.357v-15.57h31.94v-10.943h-44.13v66.728zm72.901 0h26.424c12.545 0 20.908-7.563 20.908-19.307 0-7.562-3.826-13.078-11.299-16.014 5.16-3.025 8.185-7.652 8.185-14.147 0-10.498-7.651-17.26-19.306-17.26h-24.912v66.728zm23.844-56.407c5.16 0 8.63 3.291 8.63 8.274 0 5.249-3.47 8.541-8.63 8.541h-11.744v-16.815h11.744zm2.046 27.491c5.605 0 9.253 3.648 9.253 9.431 0 5.605-3.648 9.164-9.253 9.164h-13.79v-18.595h13.79zm28.015-4.448c0 19.751 13.968 34.254 33.72 34.254 19.751 0 33.719-14.503 33.719-34.254 0-19.84-13.968-34.254-33.719-34.254-19.752 0-33.72 14.414-33.72 34.254zm54.806 0c0 13.879-8.364 23.043-21.086 23.043-12.723 0-21.086-9.164-21.086-23.043s8.363-23.043 21.086-23.043c12.722 0 21.086 9.164 21.086 23.043zm24.053 33.364h42.35v-11.21h-30.161v-55.518h-12.189v66.728zm51.655 0h21.62c20.018 0 33.364-14.235 33.364-33.542 0-19.04-13.346-33.186-33.364-33.186h-21.62v66.728zm21.62-55.518c12.455 0 20.73 8.808 20.73 22.065 0 13.346-8.275 22.243-20.73 22.243h-9.431v-44.308h9.431zM7.499 672.664v38.969h29.983c15.926 0 27.848-9.253 27.848-24.2 0-4.449-1.068-8.986-3.47-12.456.445-2.046.712-4.093.712-6.05 0-13.79-10.143-25.001-25.98-25.001-16.548 0-29.093 12.189-29.093 28.738zm11.388 0c0-11.122 7.474-18.773 17.883-18.773 7.918 0 13.257 4.804 14.413 12.189-3.736-2.669-7.651-3.737-11.566-3.737-9.52 0-16.103 6.406-16.103 15.392 0 8.808 6.94 15.214 16.637 15.214 5.783 0 10.41-2.313 13.88-6.495v.089c0 9.965-7.652 14.769-16.55 14.769H18.888v-28.648zm15.48 4.982c0-3.47 2.937-5.694 6.674-5.694 3.292 0 6.495 1.601 8.986 4.893-1.958 4.36-5.517 6.495-8.986 6.495-3.737 0-6.673-2.135-6.673-5.694zm40.8 33.987h45.02v-10.944h-32.83v-18.327h22.064v-10.944H87.357v-15.57h31.94v-10.943h-44.13v66.728zm72.901 0h26.424c12.545 0 20.908-7.563 20.908-19.307 0-7.562-3.826-13.078-11.299-16.014 5.16-3.025 8.185-7.652 8.185-14.147 0-10.498-7.651-17.26-19.306-17.26h-24.912v66.728zm23.844-56.407c5.16 0 8.63 3.291 8.63 8.274 0 5.249-3.47 8.541-8.63 8.541h-11.744v-16.815h11.744zm2.046 27.491c5.605 0 9.253 3.648 9.253 9.431 0 5.605-3.648 9.164-9.253 9.164h-13.79v-18.595h13.79zm28.015-4.448c0 19.751 13.968 34.254 33.72 34.254 19.751 0 33.719-14.503 33.719-34.254 0-19.84-13.968-34.254-33.719-34.254-19.752 0-33.72 14.414-33.72 34.254zm54.806 0c0 13.879-8.364 23.043-21.086 23.043-12.723 0-21.086-9.164-21.086-23.043s8.363-23.043 21.086-23.043c12.722 0 21.086 9.164 21.086 23.043zm24.053 33.364h42.35v-11.21h-30.161v-55.518h-12.189v66.728zm51.655 0h21.62c20.018 0 33.364-14.235 33.364-33.542 0-19.04-13.346-33.186-33.364-33.186h-21.62v66.728zm21.62-55.518c12.455 0 20.73 8.808 20.73 22.065 0 13.346-8.275 22.243-20.73 22.243h-9.431v-44.308h9.431zM7.499 752.664v38.969h29.983c15.926 0 27.848-9.253 27.848-24.2 0-4.449-1.068-8.986-3.47-12.456.445-2.046.712-4.093.712-6.05 0-13.79-10.143-25.001-25.98-25.001-16.548 0-29.093 12.189-29.093 28.738zm11.388 0c0-11.122 7.474-18.773 17.883-18.773 7.918 0 13.257 4.804 14.413 12.189-3.736-2.669-7.651-3.737-11.566-3.737-9.52 0-16.103 6.406-16.103 15.392 0 8.808 6.94 15.214 16.637 15.214 5.783 0 10.41-2.313 13.88-6.495v.089c0 9.965-7.652 14.769-16.55 14.769H18.888v-28.648zm15.48 4.982c0-3.47 2.937-5.694 6.674-5.694 3.292 0 6.495 1.601 8.986 4.893-1.958 4.36-5.517 6.495-8.986 6.495-3.737 0-6.673-2.135-6.673-5.694zm40.8 33.987h45.02v-10.944h-32.83v-18.327h22.064v-10.944H87.357v-15.57h31.94v-10.943h-44.13v66.728zm72.901 0h26.424c12.545 0 20.908-7.563 20.908-19.307 0-7.562-3.826-13.078-11.299-16.014 5.16-3.025 8.185-7.652 8.185-14.147 0-10.498-7.651-17.26-19.306-17.26h-24.912v66.728zm23.844-56.407c5.16 0 8.63 3.291 8.63 8.274 0 5.249-3.47 8.541-8.63 8.541h-11.744v-16.815h11.744zm2.046 27.491c5.605 0 9.253 3.648 9.253 9.431 0 5.605-3.648 9.164-9.253 9.164h-13.79v-18.595h13.79zm28.015-4.448c0 19.751 13.968 34.254 33.72 34.254 19.751 0 33.719-14.503 33.719-34.254 0-19.84-13.968-34.254-33.719-34.254-19.752 0-33.72 14.414-33.72 34.254zm54.806 0c0 13.879-8.364 23.043-21.086 23.043-12.723 0-21.086-9.164-21.086-23.043s8.363-23.043 21.086-23.043c12.722 0 21.086 9.164 21.086 23.043zm24.053 33.364h42.35v-11.21h-30.161v-55.518h-12.189v66.728zm51.655 0h21.62c20.018 0 33.364-14.235 33.364-33.542 0-19.04-13.346-33.186-33.364-33.186h-21.62v66.728zm21.62-55.518c12.455 0 20.73 8.808 20.73 22.065 0 13.346-8.275 22.243-20.73 22.243h-9.431v-44.308h9.431zM7.499 832.664v38.969h29.983c15.926 0 27.848-9.253 27.848-24.2 0-4.449-1.068-8.986-3.47-12.456.445-2.046.712-4.093.712-6.05 0-13.79-10.143-25.001-25.98-25.001-16.548 0-29.093 12.189-29.093 28.738zm11.388 0c0-11.122 7.474-18.773 17.883-18.773 7.918 0 13.257 4.804 14.413 12.189-3.736-2.669-7.651-3.737-11.566-3.737-9.52 0-16.103 6.406-16.103 15.392 0 8.808 6.94 15.214 16.637 15.214 5.783 0 10.41-2.313 13.88-6.495v.089c0 9.965-7.652 14.769-16.55 14.769H18.888v-28.648zm15.48 4.982c0-3.47 2.937-5.694 6.674-5.694 3.292 0 6.495 1.601 8.986 4.893-1.958 4.36-5.517 6.495-8.986 6.495-3.737 0-6.673-2.135-6.673-5.694zm40.8 33.987h45.02v-10.944h-32.83v-18.327h22.064v-10.944H87.357v-15.57h31.94v-10.943h-44.13v66.728zm72.901 0h26.424c12.545 0 20.908-7.563 20.908-19.307 0-7.562-3.826-13.078-11.299-16.014 5.16-3.025 8.185-7.652 8.185-14.147 0-10.498-7.651-17.26-19.306-17.26h-24.912v66.728zm23.844-56.407c5.16 0 8.63 3.291 8.63 8.274 0 5.249-3.47 8.541-8.63 8.541h-11.744v-16.815h11.744zm2.046 27.491c5.605 0 9.253 3.648 9.253 9.431 0 5.605-3.648 9.164-9.253 9.164h-13.79v-18.595h13.79zm28.015-4.448c0 19.751 13.968 34.254 33.72 34.254 19.751 0 33.719-14.503 33.719-34.254 0-19.84-13.968-34.254-33.719-34.254-19.752 0-33.72 14.414-33.72 34.254zm54.806 0c0 13.879-8.364 23.043-21.086 23.043-12.723 0-21.086-9.164-21.086-23.043s8.363-23.043 21.086-23.043c12.722 0 21.086 9.164 21.086 23.043zm24.053 33.364h42.35v-11.21h-30.161v-55.518h-12.189v66.728zm51.655 0h21.62c20.018 0 33.364-14.235 33.364-33.542 0-19.04-13.346-33.186-33.364-33.186h-21.62v66.728zm21.62-55.518c12.455 0 20.73 8.808 20.73 22.065 0 13.346-8.275 22.243-20.73 22.243h-9.431v-44.308h9.431zM7.499 912.664v38.969h29.983c15.926 0 27.848-9.253 27.848-24.2 0-4.449-1.068-8.986-3.47-12.456.445-2.046.712-4.093.712-6.05 0-13.79-10.143-25.001-25.98-25.001-16.548 0-29.093 12.189-29.093 28.738zm11.388 0c0-11.122 7.474-18.773 17.883-18.773 7.918 0 13.257 4.804 14.413 12.189-3.736-2.669-7.651-3.737-11.566-3.737-9.52 0-16.103 6.406-16.103 15.392 0 8.808 6.94 15.214 16.637 15.214 5.783 0 10.41-2.313 13.88-6.495v.089c0 9.965-7.652 14.769-16.55 14.769H18.888v-28.648zm15.48 4.982c0-3.47 2.937-5.694 6.674-5.694 3.292 0 6.495 1.601 8.986 4.893-1.958 4.36-5.517 6.495-8.986 6.495-3.737 0-6.673-2.135-6.673-5.694zm40.8 33.987h45.02v-10.944h-32.83v-18.327h22.064v-10.944H87.357v-15.57h31.94v-10.943h-44.13v66.728zm72.901 0h26.424c12.545 0 20.908-7.563 20.908-19.307 0-7.562-3.826-13.078-11.299-16.014 5.16-3.025 8.185-7.652 8.185-14.147 0-10.498-7.651-17.26-19.306-17.26h-24.912v66.728zm23.844-56.407c5.16 0 8.63 3.291 8.63 8.274 0 5.249-3.47 8.541-8.63 8.541h-11.744v-16.815h11.744zm2.046 27.491c5.605 0 9.253 3.648 9.253 9.431 0 5.605-3.648 9.164-9.253 9.164h-13.79v-18.595h13.79zm28.015-4.448c0 19.751 13.968 34.254 33.72 34.254 19.751 0 33.719-14.503 33.719-34.254 0-19.84-13.968-34.254-33.719-34.254-19.752 0-33.72 14.414-33.72 34.254zm54.806 0c0 13.879-8.364 23.043-21.086 23.043-12.723 0-21.086-9.164-21.086-23.043s8.363-23.043 21.086-23.043c12.722 0 21.086 9.164 21.086 23.043zm24.053 33.364h42.35v-11.21h-30.161v-55.518h-12.189v66.728zm51.655 0h21.62c20.018 0 33.364-14.235 33.364-33.542 0-19.04-13.346-33.186-33.364-33.186h-21.62v66.728zm21.62-55.518c12.455 0 20.73 8.808 20.73 22.065 0 13.346-8.275 22.243-20.73 22.243h-9.431v-44.308h9.431zM7.499 992.664v38.966h29.983c15.926 0 27.848-9.25 27.848-24.2 0-4.45-1.068-8.983-3.47-12.453.445-2.046.712-4.093.712-6.05 0-13.79-10.143-25.001-25.98-25.001-16.548 0-29.093 12.189-29.093 28.738zm11.388 0c0-11.122 7.474-18.773 17.883-18.773 7.918 0 13.257 4.804 14.413 12.189-3.736-2.669-7.651-3.737-11.566-3.737-9.52 0-16.103 6.406-16.103 15.392 0 8.805 6.94 15.215 16.637 15.215 5.783 0 10.41-2.31 13.88-6.5v.09c0 9.97-7.652 14.77-16.55 14.77H18.888v-28.646zm15.48 4.982c0-3.47 2.937-5.694 6.674-5.694 3.292 0 6.495 1.601 8.986 4.893-1.958 4.355-5.517 6.495-8.986 6.495-3.737 0-6.673-2.14-6.673-5.694zm40.8 33.984h45.02v-10.94h-32.83v-18.33h22.064v-10.942H87.357v-15.57h31.94v-10.943h-44.13v66.725zm72.901 0h26.424c12.545 0 20.908-7.56 20.908-19.3 0-7.57-3.826-13.082-11.299-16.018 5.16-3.025 8.185-7.652 8.185-14.147 0-10.498-7.651-17.26-19.306-17.26h-24.912v66.725zm23.844-56.404c5.16 0 8.63 3.291 8.63 8.274 0 5.249-3.47 8.541-8.63 8.541h-11.744v-16.815h11.744zm2.046 27.494c5.605 0 9.253 3.65 9.253 9.43 0 5.6-3.648 9.16-9.253 9.16h-13.79v-18.59h13.79zm28.015-4.451c0 19.751 13.968 34.251 33.72 34.251 19.751 0 33.719-14.5 33.719-34.251 0-19.84-13.968-34.254-33.719-34.254-19.752 0-33.72 14.414-33.72 34.254zm54.806 0c0 13.881-8.364 23.041-21.086 23.041-12.723 0-21.086-9.16-21.086-23.041 0-13.879 8.363-23.043 21.086-23.043 12.722 0 21.086 9.164 21.086 23.043zm24.053 33.361h42.35v-11.21h-30.161v-55.515h-12.189v66.725zm51.655 0h21.62c20.018 0 33.364-14.23 33.364-33.539 0-19.04-13.346-33.186-33.364-33.186h-21.62v66.725zm21.62-55.515c12.455 0 20.73 8.808 20.73 22.065 0 13.35-8.275 22.24-20.73 22.24h-9.431v-44.305h9.431zM7.499 1072.66v38.97h29.983c15.926 0 27.848-9.25 27.848-24.2 0-4.45-1.068-8.98-3.47-12.45.445-2.05.712-4.1.712-6.05 0-13.79-10.143-25-25.98-25-16.548 0-29.093 12.19-29.093 28.73zm11.388 0c0-11.12 7.474-18.77 17.883-18.77 7.918 0 13.257 4.81 14.413 12.19-3.736-2.67-7.651-3.74-11.566-3.74-9.52 0-16.103 6.41-16.103 15.4 0 8.8 6.94 15.21 16.637 15.21 5.783 0 10.41-2.31 13.88-6.5v.09c0 9.97-7.652 14.77-16.55 14.77H18.888v-28.65zm15.48 4.99c0-3.47 2.937-5.7 6.674-5.7 3.292 0 6.495 1.6 8.986 4.9-1.958 4.35-5.517 6.49-8.986 6.49-3.737 0-6.673-2.14-6.673-5.69zm40.8 33.98h45.02v-10.94h-32.83v-18.33h22.064v-10.94H87.357v-15.57h31.94v-10.94h-44.13v66.72zm72.901 0h26.424c12.545 0 20.908-7.56 20.908-19.3 0-7.57-3.826-13.08-11.299-16.02 5.16-3.02 8.185-7.65 8.185-14.14 0-10.5-7.651-17.26-19.306-17.26h-24.912v66.72zm23.844-56.4c5.16 0 8.63 3.29 8.63 8.27 0 5.25-3.47 8.54-8.63 8.54h-11.744v-16.81h11.744zm2.046 27.49c5.605 0 9.253 3.65 9.253 9.43 0 5.6-3.648 9.16-9.253 9.16h-13.79v-18.59h13.79zm28.015-4.45c0 19.75 13.968 34.25 33.72 34.25 19.751 0 33.719-14.5 33.719-34.25 0-19.84-13.968-34.25-33.719-34.25-19.752 0-33.72 14.41-33.72 34.25zm54.806 0c0 13.88-8.364 23.04-21.086 23.04-12.723 0-21.086-9.16-21.086-23.04 0-13.88 8.363-23.04 21.086-23.04 12.722 0 21.086 9.16 21.086 23.04zm24.053 33.36h42.35v-11.21h-30.161v-55.51h-12.189v66.72zm51.655 0h21.62c20.018 0 33.364-14.23 33.364-33.54 0-19.04-13.346-33.18-33.364-33.18h-21.62v66.72zm21.62-55.51c12.455 0 20.73 8.8 20.73 22.06 0 13.35-8.275 22.24-20.73 22.24h-9.431v-44.3h9.431zM7.499 1152.66v38.97h29.983c15.926 0 27.848-9.25 27.848-24.2 0-4.45-1.068-8.98-3.47-12.45.445-2.05.712-4.1.712-6.05 0-13.79-10.143-25-25.98-25-16.548 0-29.093 12.19-29.093 28.73zm11.388 0c0-11.12 7.474-18.77 17.883-18.77 7.918 0 13.257 4.81 14.413 12.19-3.736-2.67-7.651-3.74-11.566-3.74-9.52 0-16.103 6.41-16.103 15.4 0 8.8 6.94 15.21 16.637 15.21 5.783 0 10.41-2.31 13.88-6.5v.09c0 9.97-7.652 14.77-16.55 14.77H18.888v-28.65zm15.48 4.99c0-3.47 2.937-5.7 6.674-5.7 3.292 0 6.495 1.6 8.986 4.9-1.958 4.35-5.517 6.49-8.986 6.49-3.737 0-6.673-2.14-6.673-5.69zm40.8 33.98h45.02v-10.94h-32.83v-18.33h22.064v-10.94H87.357v-15.57h31.94v-10.94h-44.13v66.72zm72.901 0h26.424c12.545 0 20.908-7.56 20.908-19.3 0-7.57-3.826-13.08-11.299-16.02 5.16-3.02 8.185-7.65 8.185-14.14 0-10.5-7.651-17.26-19.306-17.26h-24.912v66.72zm23.844-56.4c5.16 0 8.63 3.29 8.63 8.27 0 5.25-3.47 8.54-8.63 8.54h-11.744v-16.81h11.744zm2.046 27.49c5.605 0 9.253 3.65 9.253 9.43 0 5.6-3.648 9.16-9.253 9.16h-13.79v-18.59h13.79zm28.015-4.45c0 19.75 13.968 34.25 33.72 34.25 19.751 0 33.719-14.5 33.719-34.25 0-19.84-13.968-34.25-33.719-34.25-19.752 0-33.72 14.41-33.72 34.25zm54.806 0c0 13.88-8.364 23.04-21.086 23.04-12.723 0-21.086-9.16-21.086-23.04 0-13.88 8.363-23.04 21.086-23.04 12.722 0 21.086 9.16 21.086 23.04zm24.053 33.36h42.35v-11.21h-30.161v-55.51h-12.189v66.72zm51.655 0h21.62c20.018 0 33.364-14.23 33.364-33.54 0-19.04-13.346-33.18-33.364-33.18h-21.62v66.72zm21.62-55.51c12.455 0 20.73 8.8 20.73 22.06 0 13.35-8.275 22.24-20.73 22.24h-9.431v-44.3h9.431zM7.499 1232.66v38.97h29.983c15.926 0 27.848-9.25 27.848-24.2 0-4.45-1.068-8.98-3.47-12.45.445-2.05.712-4.1.712-6.05 0-13.79-10.143-25-25.98-25-16.548 0-29.093 12.19-29.093 28.73zm11.388 0c0-11.12 7.474-18.77 17.883-18.77 7.918 0 13.257 4.81 14.413 12.19-3.736-2.67-7.651-3.74-11.566-3.74-9.52 0-16.103 6.41-16.103 15.4 0 8.8 6.94 15.21 16.637 15.21 5.783 0 10.41-2.31 13.88-6.5v.09c0 9.97-7.652 14.77-16.55 14.77H18.888v-28.65zm15.48 4.99c0-3.47 2.937-5.7 6.674-5.7 3.292 0 6.495 1.6 8.986 4.9-1.958 4.35-5.517 6.49-8.986 6.49-3.737 0-6.673-2.14-6.673-5.69zm40.8 33.98h45.02v-10.94h-32.83v-18.33h22.064v-10.94H87.357v-15.57h31.94v-10.94h-44.13v66.72zm72.901 0h26.424c12.545 0 20.908-7.56 20.908-19.3 0-7.57-3.826-13.08-11.299-16.02 5.16-3.02 8.185-7.65 8.185-14.14 0-10.5-7.651-17.26-19.306-17.26h-24.912v66.72zm23.844-56.4c5.16 0 8.63 3.29 8.63 8.27 0 5.25-3.47 8.54-8.63 8.54h-11.744v-16.81h11.744zm2.046 27.49c5.605 0 9.253 3.65 9.253 9.43 0 5.6-3.648 9.16-9.253 9.16h-13.79v-18.59h13.79zm28.015-4.45c0 19.75 13.968 34.25 33.72 34.25 19.751 0 33.719-14.5 33.719-34.25 0-19.84-13.968-34.25-33.719-34.25-19.752 0-33.72 14.41-33.72 34.25zm54.806 0c0 13.88-8.364 23.04-21.086 23.04-12.723 0-21.086-9.16-21.086-23.04 0-13.88 8.363-23.04 21.086-23.04 12.722 0 21.086 9.16 21.086 23.04zm24.053 33.36h42.35v-11.21h-30.161v-55.51h-12.189v66.72zm51.655 0h21.62c20.018 0 33.364-14.23 33.364-33.54 0-19.04-13.346-33.18-33.364-33.18h-21.62v66.72zm21.62-55.51c12.455 0 20.73 8.8 20.73 22.06 0 13.35-8.275 22.24-20.73 22.24h-9.431v-44.3h9.431zM7.499 1312.66v38.97h29.983c15.926 0 27.848-9.25 27.848-24.2 0-4.45-1.068-8.98-3.47-12.45.445-2.05.712-4.1.712-6.05 0-13.79-10.143-25-25.98-25-16.548 0-29.093 12.19-29.093 28.73zm11.388 0c0-11.12 7.474-18.77 17.883-18.77 7.918 0 13.257 4.81 14.413 12.19-3.736-2.67-7.651-3.74-11.566-3.74-9.52 0-16.103 6.41-16.103 15.4 0 8.8 6.94 15.21 16.637 15.21 5.783 0 10.41-2.31 13.88-6.5v.09c0 9.97-7.652 14.77-16.55 14.77H18.888v-28.65zm15.48 4.99c0-3.47 2.937-5.7 6.674-5.7 3.292 0 6.495 1.6 8.986 4.9-1.958 4.35-5.517 6.49-8.986 6.49-3.737 0-6.673-2.14-6.673-5.69zm40.8 33.98h45.02v-10.94h-32.83v-18.33h22.064v-10.94H87.357v-15.57h31.94v-10.94h-44.13v66.72zm72.901 0h26.424c12.545 0 20.908-7.56 20.908-19.3 0-7.57-3.826-13.08-11.299-16.02 5.16-3.02 8.185-7.65 8.185-14.14 0-10.5-7.651-17.26-19.306-17.26h-24.912v66.72zm23.844-56.4c5.16 0 8.63 3.29 8.63 8.27 0 5.25-3.47 8.54-8.63 8.54h-11.744v-16.81h11.744zm2.046 27.49c5.605 0 9.253 3.65 9.253 9.43 0 5.6-3.648 9.16-9.253 9.16h-13.79v-18.59h13.79zm28.015-4.45c0 19.75 13.968 34.25 33.72 34.25 19.751 0 33.719-14.5 33.719-34.25 0-19.84-13.968-34.25-33.719-34.25-19.752 0-33.72 14.41-33.72 34.25zm54.806 0c0 13.88-8.364 23.04-21.086 23.04-12.723 0-21.086-9.16-21.086-23.04 0-13.88 8.363-23.04 21.086-23.04 12.722 0 21.086 9.16 21.086 23.04zm24.053 33.36h42.35v-11.21h-30.161v-55.51h-12.189v66.72zm51.655 0h21.62c20.018 0 33.364-14.23 33.364-33.54 0-19.04-13.346-33.18-33.364-33.18h-21.62v66.72zm21.62-55.51c12.455 0 20.73 8.8 20.73 22.06 0 13.35-8.275 22.24-20.73 22.24h-9.431v-44.3h9.431zM7.499 1392.66v38.97h29.983c15.926 0 27.848-9.25 27.848-24.2 0-4.45-1.068-8.98-3.47-12.45.445-2.05.712-4.1.712-6.05 0-13.79-10.143-25-25.98-25-16.548 0-29.093 12.19-29.093 28.73zm11.388 0c0-11.12 7.474-18.77 17.883-18.77 7.918 0 13.257 4.81 14.413 12.19-3.736-2.67-7.651-3.74-11.566-3.74-9.52 0-16.103 6.41-16.103 15.4 0 8.8 6.94 15.21 16.637 15.21 5.783 0 10.41-2.31 13.88-6.5v.09c0 9.97-7.652 14.77-16.55 14.77H18.888v-28.65zm15.48 4.99c0-3.47 2.937-5.7 6.674-5.7 3.292 0 6.495 1.6 8.986 4.9-1.958 4.35-5.517 6.49-8.986 6.49-3.737 0-6.673-2.14-6.673-5.69zm40.8 33.98h45.02v-10.94h-32.83v-18.33h22.064v-10.94H87.357v-15.57h31.94v-10.94h-44.13v66.72zm72.901 0h26.424c12.545 0 20.908-7.56 20.908-19.3 0-7.57-3.826-13.08-11.299-16.02 5.16-3.02 8.185-7.65 8.185-14.14 0-10.5-7.651-17.26-19.306-17.26h-24.912v66.72zm23.844-56.4c5.16 0 8.63 3.29 8.63 8.27 0 5.25-3.47 8.54-8.63 8.54h-11.744v-16.81h11.744zm2.046 27.49c5.605 0 9.253 3.65 9.253 9.43 0 5.6-3.648 9.16-9.253 9.16h-13.79v-18.59h13.79zm28.015-4.45c0 19.75 13.968 34.25 33.72 34.25 19.751 0 33.719-14.5 33.719-34.25 0-19.84-13.968-34.25-33.719-34.25-19.752 0-33.72 14.41-33.72 34.25zm54.806 0c0 13.88-8.364 23.04-21.086 23.04-12.723 0-21.086-9.16-21.086-23.04 0-13.88 8.363-23.04 21.086-23.04 12.722 0 21.086 9.16 21.086 23.04zm24.053 33.36h42.35v-11.21h-30.161v-55.51h-12.189v66.72zm51.655 0h21.62c20.018 0 33.364-14.23 33.364-33.54 0-19.04-13.346-33.18-33.364-33.18h-21.62v66.72zm21.62-55.51c12.455 0 20.73 8.8 20.73 22.06 0 13.35-8.275 22.24-20.73 22.24h-9.431v-44.3h9.431z" fill="#FF0"/></svg>