<svg width="261" height="81" viewBox="0 0 261 81" fill="none" xmlns="http://www.w3.org/2000/svg"><path d="M4.7 23.82c0-3.798 2.313-6.258 5.746-6.258 2.484 0 4.14 1.242 4.797 3.385l3.239-.925c-.95-3.312-3.945-5.528-8.036-5.528-5.308 0-9.204 3.945-9.204 9.326 0 5.43 3.871 9.423 9.18 9.423 5.064 0 8.498-3.335 8.498-8.327v-1.583H8.717v2.947h6.745c-.049 2.337-2.24 3.92-5.016 3.92-3.53 0-5.747-2.533-5.747-6.38zM22.063 33H25.4v-7.28h2.947l4.65 7.28h3.799l-5.065-7.938c2.046-.706 3.433-2.41 3.433-4.821 0-3.336-2.483-5.503-6.014-5.503h-7.086V33zM29.1 17.733c1.656 0 2.728.998 2.728 2.508 0 1.485-1.072 2.483-2.728 2.483h-3.7v-4.991h3.7zM37.104 33h3.385l2.02-5.479h6.624L51.13 33h3.53l-6.964-18.262h-3.603L37.104 33zm6.477-8.425l2.24-6.063 2.216 6.063h-4.456zM56.877 33h7.232c3.433 0 5.722-2.07 5.722-5.284 0-2.07-1.047-3.58-3.093-4.383 1.413-.828 2.24-2.094 2.24-3.871 0-2.874-2.093-4.724-5.283-4.724h-6.818V33zm6.526-15.438c1.412 0 2.361.901 2.361 2.265 0 1.436-.95 2.337-2.361 2.337h-3.215v-4.602h3.215zm.56 7.524c1.534 0 2.532.999 2.532 2.581 0 1.534-.998 2.508-2.532 2.508h-3.775v-5.089h3.775zm22.148-4.383l-4.09 7.987-2.825-13.952h-3.36L79.512 33h3.531l3.41-6.696L89.933 33h3.507l3.676-18.262h-3.311l-2.8 14-4.189-8.035h-.706zm12.105 3.166c0 5.405 3.823 9.374 9.228 9.374 5.406 0 9.229-3.969 9.229-9.374 0-5.43-3.823-9.375-9.229-9.375-5.405 0-9.228 3.945-9.228 9.375zm14.999 0c0 3.798-2.289 6.306-5.771 6.306-3.482 0-5.771-2.508-5.771-6.306 0-3.799 2.289-6.307 5.771-6.307 3.482 0 5.771 2.508 5.771 6.307zM119.798 33h3.336v-7.28h2.946l4.651 7.28h3.799l-5.065-7.938c2.045-.706 3.433-2.41 3.433-4.821 0-3.336-2.483-5.503-6.014-5.503h-7.086V33zm7.037-15.267c1.656 0 2.727.998 2.727 2.508 0 1.485-1.071 2.483-2.727 2.483h-3.701v-4.991h3.701zm13.361 7.207h1.948l5.917 8.06h3.969l-7.086-9.74 6.867-8.522h-4.018l-5.527 7.061h-2.07v-7.061h-3.336V33h3.336v-8.06zm28.643-6.087c0-2.533-1.996-4.359-4.845-4.359-2.873 0-4.967 1.875-4.967 4.407 0 1.559.803 2.825 1.899 4.018-2.411 1.388-3.36 2.97-3.36 4.992 0 3.409 2.41 5.332 6.136 5.332 1.923 0 3.579-.56 4.943-1.607L169.862 33h3.628l-2.946-3.458c.901-1.363 1.51-3.116 1.826-5.162l-2.824-.487c-.195 1.34-.512 2.484-.926 3.41l-3.214-3.75c1.778-1.023 3.433-2.582 3.433-4.7zm-6.696.146c0-1.096.731-1.778 1.827-1.778 1.144 0 1.777.73 1.777 1.778 0 1.023-.56 1.729-2.167 2.605-.706-.779-1.437-1.534-1.437-2.605zm-1.339 8.668c0-.876.317-1.875 1.924-2.727l4.115 4.675c-.731.536-1.632.804-2.703.804-1.997 0-3.336-.95-3.336-2.752zM180.425 33h11.591v-3.068h-8.255V14.738h-3.336V33zm14.137 0h3.336V14.738h-3.336V33zm7.574 0h3.336v-7.719h6.063v-2.97h-6.063v-4.578h8.206v-2.995h-11.542V33zm14.09 0h12.321v-2.995h-8.985v-5.016h6.039v-2.995h-6.039v-4.261h8.741v-2.995h-12.077V33z" fill="#FF0"/><path d="M2.362 59h7.232c3.433 0 5.722-2.07 5.722-5.284 0-2.07-1.047-3.58-3.092-4.383 1.412-.828 2.24-2.094 2.24-3.871 0-2.874-2.094-4.724-5.284-4.724H2.362V59zm6.526-15.438c1.412 0 2.362.901 2.362 2.265 0 1.436-.95 2.337-2.362 2.337H5.673v-4.602h3.215zm.56 7.524c1.534 0 2.532.999 2.532 2.581 0 1.534-.998 2.508-2.532 2.508H5.673v-5.089h3.775zM21.527 59h3.336v-7.792l6.55-10.47h-3.701l-4.456 7.256-4.432-7.256h-3.847l6.55 10.446V59zm20.646 0h3.336V43.806h5.308v-3.068H36.84v3.068h5.333V59zm11.244 0h3.336v-8.108h8.766V59h3.336V40.738H65.52v7.086h-8.766v-7.086h-3.336V59zm19.678 0h12.321v-2.995h-8.985v-5.016h6.039v-2.995H76.43v-4.261h8.742v-2.995H73.095V59zm19.952 0h3.336v-8.108h8.765V59h3.336V40.738h-3.336v7.086h-8.765v-7.086h-3.336V59zm18.557-9.131c0 5.406 3.823 9.374 9.229 9.374 5.405 0 9.228-3.968 9.228-9.374 0-5.43-3.823-9.375-9.228-9.375-5.406 0-9.229 3.945-9.229 9.375zm15 0c0 3.798-2.289 6.306-5.771 6.306-3.482 0-5.771-2.508-5.771-6.306 0-3.799 2.289-6.307 5.771-6.307 3.482 0 5.771 2.508 5.771 6.307zM133.187 59h3.336v-7.28h2.946L144.12 59h3.798l-5.065-7.938c2.046-.706 3.434-2.41 3.434-4.821 0-3.336-2.484-5.503-6.015-5.503h-7.085V59zm7.037-15.267c1.656 0 2.727.998 2.727 2.508 0 1.485-1.071 2.483-2.727 2.483h-3.701v-4.991h3.701zM150.249 59h3.141V45.535L162.156 59h3.555V40.738h-3.166V54.13l-8.741-13.392h-3.555V59zm32.46-13.733c-.803-3.068-3.19-4.773-6.769-4.773-3.75 0-6.745 2.216-6.745 5.333 0 4.017 3.336 4.748 6.185 5.357 2.118.462 3.969.828 3.969 2.556 0 1.778-1.51 2.533-3.409 2.533-2.094 0-3.579-.926-4.091-3.166l-3.384.926c.901 3.336 3.36 5.21 7.451 5.21 4.066 0 6.842-2.167 6.842-5.624 0-3.896-3.239-4.797-6.063-5.406-2.143-.487-4.042-.852-4.042-2.532 0-1.413 1.193-2.265 3.263-2.265 1.875 0 3.068 1.072 3.433 2.727l3.36-.876z" fill="#fff"/></svg>