<svg width="109" height="15" viewBox="0 0 109 15" fill="none" xmlns="http://www.w3.org/2000/svg"><path d="M74.768 6.126c0-1.767-1.09-3.053-3.18-3.053h-6.753v9.157h2.218V9.115h2.626l2.572 3.125h2.5v-.2l-2.5-2.98c1.572-.317 2.517-1.467 2.517-2.934zm-3.426 1.14h-4.28v-2.29h4.28c.79 0 1.3.416 1.3 1.14 0 .743-.491 1.15-1.3 1.15zM108.294 3.081h-2.072v3.47h-5.589V3.08h-2.245v9.157h2.245V8.633h5.589v3.605h2.072V3.081zM58.9 3.081l-2.463 7.708h-.136L53.82 3.081h-3.953v9.157h2.117V4.711h.127l2.472 7.527h3.4l2.48-7.527h.137v7.527h2.18V3.081H58.9zM34.753 6.83c-.781-.08-2.244-.216-3.026-.298-.773-.082-1.218-.308-1.218-.815 0-.49.473-.897 2.381-.897 1.69 0 3.245.362 4.599 1.015V3.778c-1.354-.643-2.854-.96-4.717-.96-2.617 0-4.426 1.087-4.426 2.935 0 1.558 1.064 2.41 3.19 2.645.773.081 2.081.2 3 .272.999.081 1.29.39 1.29.842 0 .625-.7 1.005-2.472 1.005-1.8 0-3.626-.588-4.926-1.413v2.11c1.045.698 2.845 1.287 4.853 1.287 2.854 0 4.69-1.096 4.69-3.061.018-1.477-.964-2.383-3.218-2.61zM39.443 3.081v9.157h8.57v-1.865h-6.462V8.507h6.353V6.65H41.55V4.947h6.462V3.08h-8.57zM93.799 6.83c-.782-.08-2.245-.216-3.027-.298-.772-.082-1.217-.308-1.217-.815 0-.49.472-.897 2.38-.897 1.691 0 3.245.362 4.6 1.015V3.778c-1.355-.643-2.854-.96-4.718-.96-2.617 0-4.425 1.087-4.425 2.935 0 1.558 1.063 2.41 3.19 2.645.772.081 2.08.2 2.999.272 1 .081 1.29.39 1.29.842 0 .625-.7 1.005-2.472 1.005-1.8 0-3.626-.588-4.926-1.413v2.11c1.046.698 2.845 1.287 4.853 1.287 2.854 0 4.69-1.096 4.69-3.061.018-1.477-.963-2.383-3.217-2.61zM83.665 3.081v4.692c0 1.775-1.081 2.754-2.708 2.754-1.636 0-2.708-.96-2.708-2.781V3.08H76.04v4.456c0 3.325 2.082 4.973 4.954 4.973 2.753 0 4.889-1.576 4.889-4.864V3.081h-2.218zM20.74 7.613c0 .444-.228.516-.792.516-.6 0-.708-.1-.772-.552-.118-1.15-.9-2.129-2.208-2.238-.419-.036-.518-.19-.518-.706 0-.48.072-.707.445-.707 2.281.01 3.844 1.83 3.844 3.687zm3.316 0c0-3.451-2.345-7.101-7.761-7.101H5.535c-.218 0-.355.108-.355.308 0 .108.082.208.155.262.39.308.972.652 1.736 1.033a25.22 25.22 0 001.908.851c.245.1.336.209.336.345 0 .19-.136.308-.4.308H.373c-.255 0-.373.163-.373.326 0 .135.045.253.164.37.69.726 1.799 1.595 3.408 2.6a49.232 49.232 0 004.544 2.491c.236.109.309.236.309.372-.01.154-.128.28-.4.28H4.108c-.218 0-.346.118-.346.3 0 .099.082.226.191.325.891.807 2.318 1.685 4.217 2.491 2.536 1.078 5.108 1.721 7.998 1.721 5.48 0 7.888-4.094 7.888-7.282zm-7.161 5.1c-2.8 0-5.144-2.274-5.144-5.11 0-2.789 2.336-5.035 5.144-5.035 2.872 0 5.125 2.237 5.125 5.036 0 2.835-2.244 5.108-5.125 5.108z" fill="#fff"/></svg>