<svg width="179" height="180" viewBox="0 0 179 180" fill="none" xmlns="http://www.w3.org/2000/svg"><path clip-rule="evenodd" d="M155.166 74.568a94.403 94.403 0 001.669-31.654 2.102 2.102 0 00-1.185-1.652 94.433 94.433 0 00-30.529-8.525l-6.748-9.395C110.287 12.086 94.606 9.514 83.347 17.6l-9.396 6.749a94.387 94.387 0 00-31.653-1.67 2.102 2.102 0 00-1.65 1.186 94.336 94.336 0 00-8.526 30.528l-9.396 6.75c-11.257 8.085-13.828 23.766-5.743 35.023l6.75 9.397a94.317 94.317 0 00-1.67 31.649 2.106 2.106 0 001.184 1.653 94.395 94.395 0 0030.53 8.526l6.749 9.397c8.086 11.259 23.768 13.83 35.025 5.743l9.394-6.748a94.328 94.328 0 0031.654 1.67 2.102 2.102 0 001.65-1.185 94.397 94.397 0 008.527-30.531l9.397-6.749c11.257-8.085 13.828-23.767 5.742-35.024l-6.749-9.396z" stroke="#FF0" stroke-width="1.55"/></svg>