<svg width="115" height="30" viewBox="0 0 115 30" fill="none" xmlns="http://www.w3.org/2000/svg"><rect x=".948" width="113.636" height="29.917" rx="14.958" fill="#171A22"/><path d="M21.198 20.247h1.517V11.48h3.09v-1.396h-7.697v1.396h3.09v8.767zm6.397 0h1.518v-4.282h1.83l2.804 4.282h1.762l-2.968-4.54c1.22-.338 2.06-1.287 2.06-2.683 0-1.761-1.315-2.94-3.212-2.94h-3.794v10.163zm3.794-8.794c1.017 0 1.694.636 1.694 1.572 0 .934-.677 1.571-1.72 1.571h-2.25v-3.143h2.276zm7.59 8.794h1.518v-4.431l3.686-5.732h-1.694l-2.724 4.282-2.71-4.282h-1.761l3.685 5.732v4.431zm9.776 0h1.518V10.084h-1.518v10.163zm6.386 0h1.517V11.48h3.09v-1.396h-7.697v1.396h3.09v8.767zm9.375 0h1.518v-4.512h3.51v-1.369h-3.51v-2.913h4.77v-1.37h-6.288v10.164zm8.032 0h1.518v-4.282h1.83l2.805 4.282h1.761l-2.968-4.54c1.22-.338 2.06-1.287 2.06-2.683 0-1.761-1.314-2.94-3.211-2.94h-3.794v10.163zm3.795-8.794c1.016 0 1.694.636 1.694 1.572 0 .934-.678 1.571-1.721 1.571h-2.25v-3.143h2.277zm5.826 8.794h6.626v-1.369h-5.108V15.6h3.496V14.23h-3.496v-2.777h4.973v-1.37h-6.491v10.164zm8.522 0h6.627v-1.369h-5.11V15.6h3.497V14.23H92.21v-2.777h4.973v-1.37h-6.49v10.164z" fill="#fff"/></svg>