<svg width="300" height="300" viewBox="0 0 300 300" fill="none" xmlns="http://www.w3.org/2000/svg"><path clip-rule="evenodd" d="M223.904 212.12a134.47 134.47 0 0037.531-25.096 2.991 2.991 0 00.873-2.761 134.5 134.5 0 00-16.315-42.097l4.961-15.711c5.944-18.825-4.498-38.906-23.324-44.852l-15.714-4.962a134.452 134.452 0 00-25.095-37.531 2.995 2.995 0 00-2.761-.872 134.358 134.358 0 00-42.094 16.315l-15.714-4.962c-18.825-5.945-38.906 4.498-44.85 23.323l-4.963 15.714a134.352 134.352 0 00-37.528 25.091 2.997 2.997 0 00-.874 2.761 134.446 134.446 0 0016.314 42.098l-4.962 15.714c-5.946 18.828 4.497 38.909 23.324 44.852l15.71 4.961a134.374 134.374 0 0025.094 37.532 2.993 2.993 0 002.76.872 134.461 134.461 0 0042.1-16.314l15.714 4.962c18.825 5.944 38.906-4.499 44.851-23.324l4.962-15.713z" stroke="#FF0" stroke-width="2.5"/></svg>