<svg width="190" height="130" viewBox="0 0 190 130" fill="none" xmlns="http://www.w3.org/2000/svg"><rect x="50.734" y=".633" width="131.802" height="25.946" rx="12.973" fill="#fff"/><path d="M75.47 10.446l-3.6 7.028-2.485-12.277h-2.957l3.236 16.069h3.106l3-5.892 3.063 5.892h3.085l3.235-16.069H82.24l-2.464 12.32-3.685-7.07h-.621zm11.845 10.82h2.935V5.197h-2.935v16.069zm9.92 0h2.935V7.896h4.671V5.198H92.543v2.7h4.692v13.369zm9.894 0h2.935V14.13h7.713v7.135h2.935V5.197h-2.935v6.235h-7.713V5.197h-2.935v16.069zm24.849 0h2.935V7.896h4.671V5.198h-12.298v2.7h4.692v13.369zm9.894 0h2.935V14.13h7.712v7.135h2.936V5.197h-2.936v6.235h-7.712V5.197h-2.935v16.069zm17.313 0h10.841V18.63h-7.906v-4.413h5.314v-2.635h-5.314v-3.75h7.692V5.198h-10.627v16.069z" fill="#171A22"/><rect x="5.511" y="25.946" width="155.802" height="25.946" rx="12.973" fill="#fff"/><path d="M18.49 46.58h2.828V34.56l4.778 6.213h.6l4.799-6.299V46.58H34.3V30.511h-3.106l-4.735 6.341-4.863-6.341H18.49v16.068zm17.774 0h2.978l1.779-4.821h5.827l1.757 4.82h3.106l-6.127-16.068h-3.17l-6.15 16.068zm5.7-7.414l1.97-5.334 1.95 5.334h-3.92zM53.66 46.58h2.936v-6.406h2.592l4.092 6.406h3.342l-4.456-6.984c1.8-.622 3.02-2.121 3.02-4.242 0-2.935-2.184-4.842-5.291-4.842h-6.235v16.068zm6.192-13.433c1.457 0 2.4.878 2.4 2.207 0 1.307-.943 2.185-2.4 2.185h-3.256v-4.392h3.256zm11.756 6.342h1.714l5.206 7.091h3.492l-6.234-8.57 6.041-7.498h-3.535l-4.863 6.213h-1.821V30.51h-2.935v16.068h2.935v-7.091zm12.16 7.091H94.61v-2.635h-7.905V39.53h5.313v-2.636h-5.313v-3.749h7.691v-2.635H83.769v16.068zm16.679 0h2.935V33.21h4.671v-2.7H95.756v2.7h4.692v13.37zm9.894 0h2.935V30.511h-2.935v16.068zm6.664 0h2.763V34.731l7.713 11.848h3.128V30.511h-2.785v11.783l-7.691-11.783h-3.128v16.068zm19.37-8.077c0-3.342 2.035-5.506 5.056-5.506 2.186 0 3.642 1.093 4.221 2.978l2.849-.814c-.835-2.914-3.47-4.863-7.07-4.863-4.67 0-8.098 3.47-8.098 8.205 0 4.778 3.406 8.291 8.077 8.291 4.456 0 7.477-2.935 7.477-7.327v-1.392h-8.977v2.592h5.935c-.043 2.057-1.971 3.45-4.414 3.45-3.106 0-5.056-2.229-5.056-5.614z" fill="#171A22"/><rect x="36.533" y="51.26" width="141.802" height="25.946" rx="12.973" fill="#fff"/><path d="M49.512 71.893h2.935v-5.828h3.386c3.299 0 5.506-2.185 5.506-5.12 0-2.978-2.207-5.12-5.506-5.12h-6.32v16.068zm6.278-13.434c1.606 0 2.635.943 2.635 2.486 0 1.52-1.029 2.485-2.635 2.485h-3.343v-4.97h3.343zm8.149 13.434h10.198v-2.7h-7.263V55.824h-2.935v16.069zm11.162 0h2.978l1.778-4.82h5.828l1.757 4.82h3.106l-6.127-16.069H81.25l-6.149 16.069zm5.7-7.413l1.97-5.335 1.95 5.335H80.8zm13.196 7.413h2.936v-13.37h4.67v-2.699H89.305v2.7h4.692v13.369zm9.894 0h2.935V65.1h5.335v-2.614h-5.335V58.46h7.22v-2.635h-10.155v16.069zm10.784-8.035c0 4.757 3.363 8.249 8.119 8.249 4.757 0 8.12-3.492 8.12-8.249 0-4.777-3.363-8.248-8.12-8.248-4.756 0-8.119 3.47-8.119 8.248zm13.197 0c0 3.343-2.014 5.55-5.078 5.55-3.063 0-5.077-2.207-5.077-5.55 0-3.342 2.014-5.548 5.077-5.548 3.064 0 5.078 2.206 5.078 5.548zm5.792 8.035h2.935v-6.406h2.593l4.092 6.406h3.342l-4.456-6.985c1.799-.621 3.02-2.12 3.02-4.242 0-2.935-2.185-4.842-5.291-4.842h-6.235v16.069zm6.192-13.434c1.457 0 2.399.879 2.399 2.207 0 1.307-.942 2.186-2.399 2.186h-3.257V58.46h3.257zm8.82 13.434h2.828v-12.02l4.778 6.214h.6l4.799-6.3v12.106h2.807V55.824h-3.107l-4.735 6.342-4.863-6.342h-3.107v16.069z" fill="#171A22"/><rect x=".763" y="76.573" width="187.802" height="25.946" rx="12.973" fill="#FF0"/><path d="M17 97.206h2.934V83.837h4.67v-2.7H12.308v2.7H17v13.37zm9.893 0h2.935v-7.134h7.713v7.134h2.935V81.138H37.54v6.234h-7.713v-6.234h-2.935v16.068zm15.535 0h2.978l1.778-4.82h5.828l1.757 4.82h3.106l-6.127-16.068h-3.171l-6.149 16.068zm5.7-7.413l1.97-5.335 1.95 5.335h-3.92zm13.196 7.413h2.936V83.837h4.67v-2.7H56.632v2.7h4.692v13.37zm14.173 0h10.198v-2.7h-7.263V81.139h-2.935v16.068zm12.439 0h10.84v-2.635h-7.905v-4.414h5.313v-2.635h-5.313v-3.75h7.691v-2.634H87.936v16.068zm16.678 0h2.935V83.837h4.671v-2.7H99.922v2.7h4.692v13.37zm20.89-12.083c-.707-2.7-2.807-4.2-5.956-4.2-3.299 0-5.935 1.95-5.935 4.692 0 3.535 2.936 4.178 5.442 4.714 1.864.407 3.492.728 3.492 2.25 0 1.563-1.328 2.228-2.999 2.228-1.842 0-3.149-.815-3.599-2.786l-2.978.814c.792 2.936 2.956 4.585 6.556 4.585 3.577 0 6.02-1.907 6.02-4.949 0-3.428-2.85-4.22-5.335-4.756-1.885-.428-3.556-.75-3.556-2.228 0-1.243 1.05-1.993 2.871-1.993 1.649 0 2.699.943 3.02 2.4l2.957-.771zm10.836 12.083h2.935V90.35l5.763-9.212h-3.256l-3.921 6.384-3.899-6.384h-3.385l5.763 9.19v6.878zm8.138-8.034c0 4.756 3.364 8.248 8.12 8.248 4.756 0 8.12-3.492 8.12-8.248 0-4.778-3.364-8.248-8.12-8.248-4.756 0-8.12 3.47-8.12 8.248zm13.197 0c0 3.342-2.013 5.549-5.077 5.549s-5.078-2.207-5.078-5.55c0-3.341 2.014-5.548 5.078-5.548 3.064 0 5.077 2.207 5.077 5.549zm11.753 5.549c-1.992 0-3.321-1.329-3.321-3.321V81.138h-2.935v10.176c0 3.664 2.571 6.106 6.256 6.106 3.706 0 6.256-2.442 6.256-6.106V81.138h-2.935V91.4c0 1.992-1.307 3.32-3.321 3.32z" fill="#171A22"/><rect x="15.737" y="101.887" width="151.802" height="25.946" rx="12.973" fill="#FF0"/><path d="M28.716 122.52h2.935v-7.135h7.713v7.135H42.3v-16.069h-2.935v6.235h-7.712v-6.235h-2.936v16.069zm15.536 0h2.978l1.778-4.821h5.827l1.757 4.821H59.7l-6.128-16.069h-3.17l-6.15 16.069zm5.699-7.413l1.97-5.335 1.95 5.335h-3.92zm8.565-8.656l5.334 16.069h3.835l5.335-16.069h-3.042l-4.157 12.791-4.177-12.791h-3.128zm16.66 16.069h10.84v-2.636h-7.905v-4.413h5.313v-2.635H78.11v-3.75h7.691v-2.635H75.175v16.069zm17.554 0h2.935v-16.069H92.73v16.069zm9.921 0h2.935v-13.369h4.67v-2.7H97.959v2.7h4.692v13.369zm12.394 0h2.978l1.778-4.821h5.828l1.757 4.821h3.106l-6.127-16.069h-3.171l-6.149 16.069zm5.699-7.413l1.971-5.335 1.95 5.335h-3.921zm11.698 7.413h10.198v-2.7h-7.263v-13.369h-2.935v16.069zm12.439 0h10.198v-2.7h-7.263v-13.369h-2.935v16.069z" fill="#171A22"/></svg>