<svg width="260" height="260" viewBox="0 0 260 260" fill="none" xmlns="http://www.w3.org/2000/svg"><path clip-rule="evenodd" d="M182.292 210.388a134.444 134.444 0 0043.223-13.042 2.995 2.995 0 001.642-2.386 134.48 134.48 0 00-3.312-45.027l9.333-13.577c11.182-16.269 7.058-38.524-9.211-49.708l-13.58-9.334a134.45 134.45 0 00-13.042-43.224 2.994 2.994 0 00-2.385-1.64 134.373 134.373 0 00-45.025 3.312l-13.58-9.334c-16.268-11.183-38.523-7.059-49.706 9.21l-9.334 13.58a134.349 134.349 0 00-43.22 13.039 2.998 2.998 0 00-1.641 2.386 134.45 134.45 0 003.31 45.027l-9.335 13.58c-11.184 16.271-7.06 38.526 9.21 49.708l13.578 9.332a134.374 134.374 0 0013.04 43.224 2.996 2.996 0 002.385 1.64 134.485 134.485 0 0045.029-3.31l13.58 9.334c16.269 11.182 38.524 7.059 49.707-9.21l9.334-13.58z" stroke="#FF0" stroke-width="2.5"/></svg>