<svg width="307" height="60" viewBox="0 0 307 60" fill="none" xmlns="http://www.w3.org/2000/svg"><path d="M6.255 12.781c0-5.056 3.08-8.33 7.649-8.33 3.306 0 5.51 1.654 6.385 4.506l4.31-1.232C23.335 3.318 19.35.368 13.904.368c-7.065 0-12.251 5.25-12.251 12.413 0 7.228 5.153 12.543 12.219 12.543 6.74 0 11.31-4.44 11.31-11.084v-2.107h-13.58v3.922h8.979c-.065 3.111-2.982 5.218-6.677 5.218-4.7 0-7.649-3.37-7.649-8.492zM29.367 25h4.44v-9.69h3.922l6.19 9.69h5.056l-6.741-10.566c2.722-.94 4.57-3.208 4.57-6.417 0-4.44-3.306-7.325-8.006-7.325h-9.431V25zm9.367-20.321c2.203 0 3.63 1.329 3.63 3.338 0 1.977-1.426 3.306-3.63 3.306h-4.927V4.679h4.927zM49.387 25h4.505l2.69-7.292h8.816L68.055 25h4.7L63.485.692H58.69L49.387 25zm8.621-11.214l2.982-8.07 2.95 8.07h-5.932zM75.705 25h9.626c4.57 0 7.616-2.755 7.616-7.033 0-2.755-1.394-4.764-4.116-5.834 1.88-1.102 2.982-2.787 2.982-5.153 0-3.825-2.788-6.288-7.033-6.288h-9.075V25zM84.39 4.452c1.88 0 3.143 1.2 3.143 3.014 0 1.912-1.264 3.111-3.143 3.111h-4.278V4.452h4.278zm.745 10.015c2.042 0 3.37 1.329 3.37 3.435 0 2.042-1.328 3.338-3.37 3.338h-5.023v-6.773h5.023zm29.481-5.834l-5.445 10.63-3.76-18.57h-4.473L105.833 25h4.7l4.537-8.913L119.705 25h4.667L129.266.692h-4.408l-3.727 18.636-5.574-10.695h-.94zm16.111 4.213c0 7.195 5.088 12.478 12.284 12.478 7.195 0 12.283-5.283 12.283-12.478 0-7.227-5.088-12.478-12.283-12.478-7.196 0-12.284 5.25-12.284 12.478zm19.965 0c0 5.056-3.047 8.394-7.681 8.394-4.635 0-7.682-3.338-7.682-8.394s3.047-8.394 7.682-8.394c4.634 0 7.681 3.338 7.681 8.394zM159.455 25h4.44v-9.69h3.922l6.19 9.69h5.056l-6.741-10.566c2.722-.94 4.57-3.208 4.57-6.417 0-4.44-3.306-7.325-8.006-7.325h-9.431V25zm9.366-20.321c2.204 0 3.63 1.329 3.63 3.338 0 1.977-1.426 3.306-3.63 3.306h-4.926V4.679h4.926zm17.784 9.593h2.593L197.074 25h5.282l-9.431-12.964 9.14-11.344h-5.348l-7.357 9.4h-2.755v-9.4h-4.44V25h4.44V14.272zM224.73 6.17c0-3.371-2.657-5.802-6.449-5.802-3.825 0-6.612 2.496-6.612 5.866 0 2.075 1.07 3.76 2.528 5.348-3.208 1.848-4.472 3.954-4.472 6.644 0 4.538 3.208 7.098 8.167 7.098 2.56 0 4.764-.745 6.579-2.139L226.092 25h4.829l-3.922-4.602c1.199-1.815 2.01-4.149 2.431-6.871l-3.76-.648c-.259 1.782-.68 3.305-1.231 4.537l-4.278-4.991c2.366-1.361 4.569-3.436 4.569-6.255zm-8.912.194c0-1.458.972-2.366 2.43-2.366 1.524 0 2.366.972 2.366 2.366 0 1.361-.745 2.301-2.884 3.468-.94-1.037-1.912-2.042-1.912-3.468zm-1.783 11.538c0-1.167.421-2.495 2.56-3.63l5.478 6.223c-.972.713-2.172 1.07-3.598 1.07-2.657 0-4.44-1.265-4.44-3.663zM240.151 25h15.428v-4.084h-10.987V.692h-4.441V25zm18.817 0h4.441V.692h-4.441V25zm10.082 0h4.44V14.726h8.07v-3.954h-8.07V4.679h10.922V.692H269.05V25zm18.753 0h16.4v-3.986h-11.959v-6.677h8.037v-3.986h-8.037V4.679h11.635V.692h-16.076V25z" fill="#FF0"/><path d="M3.144 59h9.626c4.57 0 7.616-2.755 7.616-7.033 0-2.755-1.394-4.764-4.116-5.834 1.88-1.102 2.982-2.787 2.982-5.153 0-3.824-2.788-6.288-7.033-6.288H3.144V59zm8.686-20.548c1.88 0 3.143 1.2 3.143 3.014 0 1.912-1.264 3.111-3.143 3.111H7.552v-6.125h4.278zm.745 10.015c2.042 0 3.37 1.328 3.37 3.435 0 2.042-1.328 3.338-3.37 3.338H7.552v-6.773h5.023zM28.653 59h4.44V48.629l8.718-13.937h-4.926l-5.93 9.659-5.9-9.659h-5.12l8.718 13.904V59zm27.48 0h4.44V38.776h7.066v-4.084H49.036v4.084h7.098V59zM71.1 59h4.44V48.207h11.668V59h4.44V34.692h-4.44v9.432H75.54v-9.432H71.1V59zm26.192 0h16.399v-3.986h-11.959v-6.677h8.038v-3.986h-8.038v-5.672h11.635v-3.987H97.292V59zm26.556 0h4.44V48.207h11.668V59h4.44V34.692h-4.44v9.432h-11.668v-9.432h-4.44V59zm24.701-12.154c0 7.195 5.088 12.478 12.283 12.478 7.195 0 12.284-5.283 12.284-12.478 0-7.227-5.089-12.478-12.284-12.478s-12.283 5.25-12.283 12.478zm19.964 0c0 5.056-3.046 8.394-7.681 8.394s-7.681-3.338-7.681-8.394 3.046-8.394 7.681-8.394 7.681 3.338 7.681 8.394zM177.276 59h4.44v-9.69h3.921l6.191 9.69h5.056l-6.742-10.566c2.723-.94 4.57-3.208 4.57-6.417 0-4.44-3.306-7.325-8.005-7.325h-9.431V59zm9.366-20.321c2.204 0 3.63 1.329 3.63 3.338 0 1.977-1.426 3.306-3.63 3.306h-4.926v-6.644h4.926zM199.985 59h4.181V41.077L215.834 59h4.732V34.692h-4.213v17.826l-11.636-17.826h-4.732V59zm43.207-18.28c-1.07-4.083-4.246-6.352-9.01-6.352-4.992 0-8.978 2.95-8.978 7.098 0 5.348 4.44 6.32 8.232 7.13 2.82.616 5.283 1.102 5.283 3.403 0 2.366-2.009 3.371-4.537 3.371-2.788 0-4.765-1.231-5.445-4.213l-4.505 1.231c1.199 4.44 4.472 6.936 9.917 6.936 5.413 0 9.107-2.884 9.107-7.487 0-5.185-4.31-6.385-8.07-7.195-2.852-.648-5.38-1.134-5.38-3.37 0-1.88 1.588-3.015 4.343-3.015 2.496 0 4.084 1.427 4.57 3.63l4.473-1.166z" fill="#fff"/></svg>