<svg width="365" height="365" viewBox="0 0 365 365" fill="none" xmlns="http://www.w3.org/2000/svg"><path clip-rule="evenodd" d="M316.143 150.558a192.134 192.134 0 003.168-64.436 4.278 4.278 0 00-2.425-3.355 192.194 192.194 0 00-62.198-17.13l-13.802-19.072c-16.538-22.853-48.473-27.973-71.329-11.435l-19.076 13.805a192.116 192.116 0 00-64.437-3.168 4.278 4.278 0 00-3.35 2.425 192.004 192.004 0 00-17.13 62.195l-19.076 13.805c-22.853 16.538-27.973 48.473-11.435 71.326l13.805 19.076a191.971 191.971 0 00-3.17 64.429 4.283 4.283 0 002.424 3.355 192.118 192.118 0 0062.198 17.133l13.805 19.076c16.541 22.857 48.475 27.977 71.329 11.435l19.072-13.802a192.002 192.002 0 0064.436 3.171 4.278 4.278 0 003.351-2.425 192.135 192.135 0 0017.134-62.201l19.076-13.805c22.853-16.538 27.973-48.473 11.435-71.326l-13.805-19.076z" stroke="#FF0" stroke-width="3"/></svg>