<svg width="109" height="15" viewBox="0 0 109 15" fill="none" xmlns="http://www.w3.org/2000/svg"><path d="M75.255 5.555c0-1.724-1.097-2.98-3.201-2.98h-6.797v8.938h2.232V8.472h2.644l2.589 3.05h2.515v-.194l-2.515-2.91c1.582-.309 2.534-1.431 2.534-2.863zm-3.448 1.113h-4.308V4.432h4.308c.796 0 1.308.406 1.308 1.114 0 .725-.494 1.122-1.308 1.122zM109 2.583h-2.086v3.386h-5.625V2.583h-2.26v8.938h2.26V8.002h5.625v3.519H109V2.583zM59.284 2.583l-2.479 7.523h-.137l-2.497-7.523h-3.98v8.938h2.132V4.174h.128l2.488 7.347h3.421l2.498-7.347h.137v7.347h2.195V2.583h-3.906zM34.98 6.244c-.787-.08-2.26-.213-3.046-.292-.778-.08-1.226-.3-1.226-.796 0-.477.476-.875 2.396-.875 1.702 0 3.266.354 4.629.99V3.264c-1.363-.627-2.872-.937-4.747-.937-2.635 0-4.455 1.061-4.455 2.865 0 1.52 1.07 2.351 3.21 2.581.778.08 2.095.195 3.02.265 1.005.08 1.298.38 1.298.822 0 .61-.704.982-2.488.982-1.811 0-3.65-.575-4.958-1.38v2.06c1.052.681 2.863 1.256 4.885 1.256 2.872 0 4.72-1.07 4.72-2.988.018-1.441-.97-2.325-3.238-2.546zM39.7 2.583v8.938h8.626V9.7h-6.504V7.879h6.394V6.066h-6.394V4.404h6.504V2.583H39.7zM94.41 6.244c-.786-.08-2.26-.213-3.046-.292-.777-.08-1.226-.3-1.226-.796 0-.477.476-.875 2.397-.875 1.701 0 3.266.354 4.629.99V3.264c-1.363-.627-2.873-.937-4.748-.937-2.634 0-4.455 1.061-4.455 2.865 0 1.52 1.07 2.351 3.211 2.581.778.08 2.095.195 3.019.265 1.006.08 1.299.38 1.299.822 0 .61-.705.982-2.489.982-1.81 0-3.65-.575-4.957-1.38v2.06c1.052.681 2.863 1.256 4.884 1.256 2.873 0 4.72-1.07 4.72-2.988.019-1.441-.97-2.325-3.238-2.546zM84.21 2.583v4.58c0 1.732-1.088 2.687-2.725 2.687-1.647 0-2.726-.937-2.726-2.714V2.583h-2.223v4.35c0 3.244 2.095 4.853 4.985 4.853 2.772 0 4.922-1.538 4.922-4.747V2.583H84.21zM20.874 7.006c0 .433-.228.504-.796.504-.603 0-.713-.097-.777-.54-.119-1.122-.906-2.077-2.223-2.183-.42-.035-.521-.185-.521-.69 0-.468.073-.689.448-.689 2.296.009 3.87 1.786 3.87 3.598zm3.34 0c0-3.368-2.36-6.93-7.813-6.93H5.571c-.22 0-.357.105-.357.3 0 .106.082.203.156.256.393.3.978.637 1.747 1.008.75.362 1.335.601 1.92.831.248.097.34.203.34.336 0 .186-.138.3-.403.3H.375c-.256 0-.375.16-.375.319 0 .132.046.247.165.362.695.708 1.81 1.556 3.43 2.538a50.049 50.049 0 004.574 2.43c.237.107.31.23.31.363-.009.15-.127.274-.402.274H4.135c-.22 0-.348.115-.348.292 0 .097.082.221.192.318.897.787 2.333 1.645 4.244 2.431 2.553 1.053 5.141 1.68 8.05 1.68 5.516 0 7.94-3.996 7.94-7.108zm-7.209 4.978c-2.817 0-5.177-2.22-5.177-4.987 0-2.722 2.35-4.915 5.177-4.915 2.89 0 5.16 2.184 5.16 4.915 0 2.768-2.26 4.987-5.16 4.987z" fill="#fff"/></svg>