<svg width="193" height="51" viewBox="0 0 193 51" fill="none" xmlns="http://www.w3.org/2000/svg"><rect width="192.606" height="50.972" rx="25.486" fill="#171A22"/><path d="M33.997 33.755h2.586V18.817h5.264v-2.378H28.733v2.378h5.264v14.938zm10.9 0h2.586v-7.296H50.6l4.779 7.296h3.002l-5.057-7.735c2.078-.577 3.51-2.193 3.51-4.571 0-3.002-2.24-5.01-5.472-5.01h-6.465v17.316zm6.465-14.984c1.731 0 2.886 1.085 2.886 2.678s-1.155 2.678-2.932 2.678h-3.833v-5.356h3.879zm12.932 14.984h2.585v-7.55l6.28-9.766h-2.886l-4.64 7.296-4.618-7.296h-3.001l6.28 9.766v7.55zm16.656 0h2.586V16.439H80.95v17.316zm10.88 0h2.586V18.817h5.264v-2.378H86.566v2.378h5.264v14.938zm15.973 0h2.586v-7.689h5.98v-2.331h-5.98V18.77h8.127v-2.332h-10.713v17.316zm13.686 0h2.586v-7.296h3.117l4.779 7.296h3.002l-5.057-7.735c2.078-.577 3.51-2.193 3.51-4.571 0-3.002-2.24-5.01-5.472-5.01h-6.465v17.316zm6.465-14.984c1.732 0 2.886 1.085 2.886 2.678s-1.154 2.678-2.932 2.678h-3.833v-5.356h3.879zm9.927 14.984h11.29v-2.332h-8.704v-5.587h5.957v-2.332h-5.957V18.77h8.473v-2.332h-11.059v17.316zm14.52 0h11.29v-2.332h-8.704v-5.587h5.957v-2.332h-5.957V18.77h8.473v-2.332h-11.059v17.316z" fill="#fff"/></svg>