<svg width="159" height="22" viewBox="0 0 159 22" fill="none" xmlns="http://www.w3.org/2000/svg"><path d="M109.611 8.332c0-2.586-1.599-4.469-4.663-4.469h-9.9V17.27H98.3v-4.562h3.851l3.77 4.575h3.664v-.291l-3.664-4.363c2.305-.464 3.691-2.149 3.691-4.297zm-5.023 1.671h-6.275V6.648h6.275c1.159 0 1.905.61 1.905 1.671 0 1.087-.719 1.684-1.905 1.684zM158.76 3.876h-3.038v5.079h-8.193V3.876h-3.291v13.407h3.291v-5.278h8.193v5.278h3.038V3.876zM86.348 3.876l-3.61 11.285h-.2L78.9 3.876h-5.795v13.407h3.104V6.263h.187l3.623 11.02h4.983l3.638-11.02h.2v11.02h3.197V3.876h-5.689zM50.948 9.366c-1.145-.12-3.29-.318-4.436-.438-1.133-.12-1.786-.45-1.786-1.193 0-.716.693-1.313 3.491-1.313 2.478 0 4.757.53 6.742 1.485v-3.01c-1.986-.942-4.184-1.406-6.915-1.406-3.837 0-6.489 1.592-6.489 4.297 0 2.28 1.56 3.527 4.677 3.872 1.132.12 3.05.292 4.397.398 1.465.12 1.892.57 1.892 1.233 0 .915-1.026 1.472-3.624 1.472-2.639 0-5.316-.862-7.222-2.069v3.09c1.533 1.021 4.17 1.883 7.115 1.883 4.184 0 6.875-1.604 6.875-4.482.026-2.162-1.413-3.488-4.717-3.82zM57.823 3.876v13.407h12.564V14.55h-9.473V11.82h9.313V9.101h-9.313V6.608h9.473V3.876H57.823zM137.51 9.366c-1.146-.12-3.291-.318-4.437-.438-1.133-.12-1.785-.45-1.785-1.193 0-.716.692-1.313 3.49-1.313 2.478 0 4.757.53 6.742 1.485v-3.01c-1.985-.942-4.184-1.406-6.915-1.406-3.837 0-6.488 1.592-6.488 4.297 0 2.28 1.559 3.527 4.676 3.872 1.133.12 3.051.292 4.397.398 1.465.12 1.892.57 1.892 1.233 0 .915-1.026 1.472-3.624 1.472-2.638 0-5.316-.862-7.221-2.069v3.09c1.532 1.021 4.17 1.883 7.114 1.883 4.184 0 6.875-1.604 6.875-4.482.027-2.162-1.412-3.488-4.716-3.82zM122.654 3.876v6.87c0 2.598-1.585 4.03-3.97 4.03-2.398 0-3.97-1.405-3.97-4.07v-6.83h-3.238V10.4c0 4.867 3.051 7.28 7.261 7.28 4.037 0 7.168-2.307 7.168-7.12V3.875h-3.251zM30.404 10.51c0 .65-.333.756-1.16.756-.879 0-1.039-.146-1.132-.81-.173-1.683-1.319-3.115-3.237-3.275-.613-.053-.76-.278-.76-1.034 0-.703.107-1.034.653-1.034 3.344.013 5.636 2.678 5.636 5.397zm4.863 0c0-5.053-3.438-10.397-11.378-10.397H8.114c-.32 0-.52.16-.52.451 0 .16.12.305.227.385.573.45 1.425.955 2.545 1.511 1.092.544 1.945.902 2.797 1.247.36.146.493.305.493.504 0 .278-.2.45-.586.45H.546c-.373 0-.546.24-.546.478 0 .2.067.372.24.544 1.012 1.06 2.638 2.334 4.996 3.806a72.176 72.176 0 006.662 3.647c.346.159.453.344.453.543-.014.226-.187.411-.587.411H6.022c-.32 0-.506.173-.506.438 0 .146.12.332.28.477 1.305 1.18 3.397 2.467 6.182 3.647 3.717 1.578 7.487 2.52 11.724 2.52 8.034 0 11.565-5.994 11.565-10.662zm-10.499 7.466c-4.104 0-7.541-3.329-7.541-7.48 0-4.084 3.424-7.372 7.541-7.372 4.21 0 7.514 3.275 7.514 7.373 0 4.15-3.29 7.479-7.514 7.479z" fill="#fff"/></svg>