<svg width="250" height="239" viewBox="0 0 250 239" fill="none" xmlns="http://www.w3.org/2000/svg"><rect x="23.204" y="3.417" width="199.304" height="39.581" rx="19.791" fill="#fff"/><path d="M60.938 18.98l-5.49 10.72-3.792-18.728h-4.51l4.935 24.512h4.739l4.575-8.987 4.674 8.987h4.706l4.935-24.512h-4.444l-3.759 18.793-5.621-10.785h-.948zm18.07 16.504h4.477V10.972h-4.478v24.512zm15.133 0h4.478V15.09h7.125v-4.118h-18.76v4.118h7.157v20.394zm15.093 0h4.477V24.601h11.766v10.883h4.478V10.972h-4.478v9.511h-11.766v-9.51h-4.477v24.511zm37.907 0h4.478V15.09h7.125v-4.118h-18.76v4.118h7.157v20.394zm15.093 0h4.477V24.601h11.766v10.883h4.478V10.972h-4.478v9.511h-11.766v-9.51h-4.477v24.511zm26.412 0h16.537v-4.02h-12.06v-6.732h8.105v-4.02h-8.105v-5.72h11.733v-4.02h-16.21v24.512z" fill="#171A22"/><rect x=".757" y="42.033" width="237.259" height="39.581" rx="19.791" fill="#fff"/><path d="M20.557 74.1h4.314V55.767l7.288 9.477h.916l7.32-9.608V74.1h4.282V49.589h-4.74l-7.222 9.674-7.419-9.674h-4.739V74.1zm27.114 0h4.543l2.713-7.353h8.89l2.68 7.354h4.739l-9.348-24.512h-4.837L47.671 74.1zm8.694-11.308l3.007-8.138 2.974 8.138h-5.981zM74.21 74.101h4.478v-9.773h3.955l6.242 9.773h5.099l-6.798-10.655c2.745-.948 4.608-3.236 4.608-6.471 0-4.478-3.334-7.386-8.073-7.386h-9.51V74.1zm9.446-20.492c2.222 0 3.66 1.34 3.66 3.366 0 1.993-1.438 3.333-3.66 3.333h-4.968v-6.7h4.968zm17.933 9.674h2.615l7.941 10.818h5.328l-9.511-13.073 9.217-11.44h-5.393l-7.419 9.478h-2.778V49.59h-4.478V74.1h4.478V63.283zM120.14 74.1h16.537v-4.02h-12.059v-6.733h8.105v-4.02h-8.105v-5.72h11.733v-4.02H120.14v24.513zm25.443 0h4.478V53.706h7.124V49.59h-18.76v4.117h7.158v20.395zm15.093 0h4.477V49.589h-4.477V74.1zm10.166 0h4.216V56.027l11.766 18.074h4.771V49.589h-4.248v17.975l-11.734-17.975h-4.771V74.1zm29.549-12.322c0-5.098 3.105-8.4 7.713-8.4 3.334 0 5.556 1.668 6.439 4.544l4.347-1.242c-1.275-4.445-5.295-7.42-10.786-7.42-7.125 0-12.354 5.295-12.354 12.518 0 7.288 5.197 12.648 12.322 12.648 6.798 0 11.406-4.477 11.406-11.177v-2.124h-13.694v3.954h9.053c-.065 3.138-3.007 5.262-6.733 5.262-4.739 0-7.713-3.399-7.713-8.563z" fill="#171A22"/><rect x="41.04" y="119.264" width="207.951" height="39.581" rx="19.791" fill="#FF0"/><path d="M65.808 151.331h4.477v-20.394h7.125v-4.118H58.65v4.118h7.158v20.394zm15.092 0h4.478v-10.883h11.766v10.883h4.477v-24.512h-4.477v9.511H85.378v-9.511H80.9v24.512zm23.699 0h4.543l2.713-7.354h8.89l2.68 7.354h4.739l-9.348-24.512h-4.837l-9.38 24.512zm8.694-11.308l3.007-8.138 2.974 8.138h-5.981zm20.132 11.308h4.478v-20.394h7.125v-4.118h-18.76v4.118h7.157v20.394zm21.621 0h15.557v-4.118h-11.08v-20.394h-4.477v24.512zm18.975 0h16.537v-4.02h-12.06v-6.733h8.106v-4.02h-8.106v-5.719h11.733v-4.02h-16.21v24.512zm25.443 0h4.477v-20.394h7.125v-4.118h-18.76v4.118h7.158v20.394zm31.867-18.433c-1.078-4.118-4.281-6.406-9.086-6.406-5.033 0-9.053 2.974-9.053 7.158 0 5.392 4.478 6.373 8.302 7.19 2.843.621 5.327 1.111 5.327 3.432 0 2.385-2.026 3.399-4.576 3.399-2.81 0-4.804-1.242-5.49-4.249l-4.543 1.242c1.209 4.477 4.51 6.994 10.001 6.994 5.458 0 9.183-2.909 9.183-7.55 0-5.229-4.346-6.438-8.138-7.255-2.876-.654-5.425-1.144-5.425-3.399 0-1.896 1.602-3.04 4.38-3.04 2.516 0 4.118 1.438 4.608 3.661l4.51-1.177z" fill="#171A22"/><rect x="98.222" y="196.496" width="133.259" height="39.581" rx="19.791" fill="#FF0"/><path d="M118.022 228.563h4.477v-24.512h-4.477v24.512zm15.134 0h4.477v-20.394h7.125v-4.118h-18.76v4.118h7.158v20.394zm18.907 0h4.543l2.713-7.353h8.89l2.68 7.353h4.739l-9.348-24.512h-4.837l-9.38 24.512zm8.694-11.308l3.007-8.138 2.974 8.138h-5.981zm17.845 11.308h15.557v-4.118H183.08v-20.394h-4.478v24.512zm18.976 0h15.557v-4.118h-11.08v-20.394h-4.477v24.512z" fill="#171A22"/><rect x="13.504" y="157.88" width="203.259" height="39.581" rx="19.791" fill="#FF0"/><path d="M39.35 189.947h4.478v-10.458l8.792-14.054h-4.968l-5.981 9.74-5.948-9.74h-5.164l8.791 14.021v10.491zm12.415-12.256c0 7.256 5.131 12.583 12.387 12.583s12.387-5.327 12.387-12.583c0-7.288-5.131-12.583-12.387-12.583s-12.387 5.295-12.387 12.583zm20.133 0c0 5.099-3.072 8.465-7.746 8.465s-7.746-3.366-7.746-8.465c0-5.098 3.072-8.465 7.746-8.465s7.746 3.367 7.746 8.465zm17.928 8.465c-3.04 0-5.065-2.026-5.065-5.066v-15.655h-4.478v15.524c0 5.589 3.922 9.315 9.543 9.315 5.655 0 9.544-3.726 9.544-9.315v-15.524h-4.478v15.655c0 3.04-1.993 5.066-5.066 5.066zm21.581 3.791h4.478v-10.883h11.765v10.883h4.478v-24.512h-4.478v9.511h-11.765v-9.511h-4.478v24.512zm23.699 0h4.543l2.713-7.353h8.889l2.68 7.353h4.739l-9.347-24.512h-4.837l-9.38 24.512zm8.694-11.308l3.007-8.138 2.974 8.138H143.8zm13.066-13.204l8.138 24.512h5.85l8.138-24.512h-4.641l-6.34 19.512-6.374-19.512h-4.771zm25.414 24.512h16.538v-4.02h-12.06v-6.732h8.105v-4.02h-8.105v-5.72h11.733v-4.02H182.28v24.512z" fill="#171A22"/><rect x="13.779" y="80.649" width="215.259" height="39.581" rx="19.791" fill="#fff"/><path d="M33.58 112.717h4.477v-8.89h5.164c5.033 0 8.4-3.334 8.4-7.811 0-4.543-3.367-7.811-8.4-7.811h-9.642v24.512zm9.575-20.492c2.451 0 4.02 1.438 4.02 3.79 0 2.321-1.569 3.792-4.02 3.792h-5.098v-7.582h5.098zm12.431 20.492h15.558v-4.118h-11.08V88.205h-4.477v24.512zm17.029 0h4.543l2.713-7.354h8.89l2.68 7.354h4.738l-9.347-24.512h-4.837l-9.38 24.512zm8.694-11.308l3.006-8.139 2.975 8.139h-5.981zm20.132 11.308h4.478V92.323h7.124v-4.118h-18.76v4.118h7.158v20.394zm15.093 0h4.477v-10.361h8.138v-3.987h-8.138v-6.144h11.014v-4.02h-15.491v24.512zm16.45-12.256c0 7.255 5.131 12.583 12.387 12.583 7.255 0 12.387-5.328 12.387-12.583 0-7.288-5.132-12.583-12.387-12.583-7.256 0-12.387 5.294-12.387 12.583zm20.133 0c0 5.098-3.073 8.465-7.746 8.465-4.674 0-7.746-3.367-7.746-8.465 0-5.099 3.072-8.465 7.746-8.465 4.673 0 7.746 3.366 7.746 8.465zm8.835 12.256h4.478v-9.772h3.955l6.242 9.772h5.099l-6.798-10.655c2.745-.948 4.608-3.235 4.608-6.471 0-4.477-3.334-7.386-8.073-7.386h-9.511v24.512zm9.446-20.492c2.222 0 3.66 1.34 3.66 3.366 0 1.994-1.438 3.334-3.66 3.334h-4.968v-6.7h4.968zm13.455 20.492h4.315V94.382l7.288 9.478h.915l7.321-9.609v18.466h4.281V88.205h-4.739l-7.223 9.674-7.419-9.674h-4.739v24.512z" fill="#171A22"/></svg>