<svg width="367" height="49" viewBox="0 0 367 49" fill="none" xmlns="http://www.w3.org/2000/svg"><rect x="33.638" y="24.211" width="299.345" height="24.212" rx="12.106" fill="#FF0"/><path d="M48.788 43.534h2.739V31.06h4.358V28.54H44.41v2.52h4.378v12.474zm9.232 0h2.739v-6.657h7.197v6.657h2.74V28.54h-2.74v5.818H60.76V28.54H58.02v14.994zm14.497 0h2.779l1.659-4.498h5.438l1.64 4.498h2.898L81.213 28.54h-2.959l-5.737 14.994zm5.318-6.917l1.839-4.978 1.82 4.978h-3.66zm12.315 6.917h2.738V31.06h4.359V28.54H85.77v2.52h4.379v12.474zm13.225 0h9.516v-2.519h-6.777V28.54h-2.739v14.994zm11.607 0h10.116v-2.459h-7.377v-4.118h4.958v-2.46h-4.958V31h7.177V28.54h-9.916v14.994zm15.563 0h2.739V31.06h4.358V28.54h-11.475v2.52h4.378v12.474zm19.493-11.275c-.659-2.52-2.619-3.919-5.558-3.919-3.078 0-5.537 1.82-5.537 4.378 0 3.3 2.739 3.899 5.078 4.399 1.739.38 3.258.68 3.258 2.099 0 1.46-1.239 2.08-2.799 2.08-1.719 0-2.938-.76-3.358-2.6l-2.779.76c.74 2.739 2.759 4.278 6.117 4.278 3.339 0 5.618-1.78 5.618-4.618 0-3.199-2.659-3.938-4.978-4.438-1.759-.4-3.318-.7-3.318-2.08 0-1.159.979-1.859 2.678-1.859 1.54 0 2.519.88 2.819 2.24l2.759-.72zm10.112 11.275h2.738v-6.397l5.378-8.597h-3.039l-3.658 5.958-3.639-5.958h-3.158l5.378 8.577v6.417zm7.594-7.497c0 4.438 3.138 7.697 7.577 7.697 4.438 0 7.577-3.259 7.577-7.697 0-4.458-3.139-7.697-7.577-7.697-4.439 0-7.577 3.239-7.577 7.697zm12.315 0c0 3.119-1.88 5.178-4.738 5.178-2.859 0-4.738-2.06-4.738-5.178 0-3.119 1.879-5.178 4.738-5.178 2.858 0 4.738 2.06 4.738 5.178zm10.967 5.178c-1.86 0-3.099-1.24-3.099-3.099V28.54h-2.739v9.496c0 3.419 2.399 5.698 5.838 5.698 3.458 0 5.837-2.279 5.837-5.698V28.54h-2.739v9.576c0 1.86-1.219 3.1-3.098 3.1zm13.2 2.32h2.739v-6.658h7.197v6.657h2.739V28.54h-2.739v5.818h-7.197V28.54h-2.739v14.994zm14.497 0h2.779l1.659-4.499h5.438l1.639 4.498h2.899L227.42 28.54h-2.959l-5.738 14.994zm5.318-6.918l1.839-4.978 1.819 4.978h-3.658zm7.992-8.077l4.978 14.994h3.579l4.978-14.994h-2.839l-3.878 11.935-3.899-11.935h-2.919zm15.546 14.994h10.116v-2.459h-7.377v-4.118h4.958v-2.46h-4.958V31h7.177V28.54h-9.916v14.994zm16.381 0h2.739V28.54h-2.739v14.994zm9.258 0h2.738V31.06h4.359V28.54h-11.476v2.52h4.379v12.474zm11.565 0h2.779l1.659-4.498h5.438l1.64 4.498h2.898L293.48 28.54h-2.959l-5.738 14.994zm5.318-6.917l1.839-4.978 1.82 4.978h-3.659zm10.916 6.917h9.516v-2.519h-6.777V28.54h-2.739v14.994zm11.607 0h9.516v-2.519h-6.777V28.54h-2.739v14.994z" fill="#171A22"/><rect x=".638" y=".59" width="365.345" height="24.212" rx="12.106" fill="#fff"/><path d="M23.72 9.817l-3.359 6.558-2.319-11.456h-2.759l3.02 14.994H21.2L24 14.415l2.859 5.498h2.879L32.756 4.92h-2.718l-2.3 11.495L24.3 9.817h-.58zm11.053 10.096h2.739V4.92h-2.739v14.994zm9.258 0h2.738V7.438h4.359V4.92H39.652v2.52h4.379v12.474zm9.232 0h2.739v-6.657h7.197v6.657h2.739V4.92h-2.74v5.818h-7.197V4.919h-2.738v14.994zm23.187 0h2.74V7.438h4.357V4.92H72.072v2.52h4.378v12.474zm9.232 0h2.74v-6.657h7.196v6.657h2.74V4.92h-2.74v5.818h-7.197V4.919h-2.739v14.994zm16.156 0h10.116v-2.459h-7.377v-4.118h4.958v-2.46h-4.958V7.379h7.177V4.92h-9.916v14.994zm16.381 0h2.639V8.698l4.458 5.797h.56l4.478-5.877v11.295h2.619V4.92h-2.898l-4.419 5.918-4.538-5.918h-2.899v14.994zm16.586 0h2.779l1.659-4.498h5.438l1.639 4.498h2.899L143.502 4.92h-2.959l-5.738 14.994zm5.318-6.917l1.839-4.978 1.819 4.978h-3.658zm10.916 6.917h2.739v-5.978h2.419l3.818 5.978h3.119l-4.158-6.517c1.679-.58 2.819-1.98 2.819-3.959 0-2.739-2.04-4.518-4.938-4.518h-5.818v14.994zm5.778-12.535c1.359 0 2.239.82 2.239 2.06 0 1.219-.88 2.038-2.239 2.038h-3.039V7.378h3.039zm10.969 5.918h1.6l4.858 6.617h3.258l-5.817-7.997 5.637-6.997h-3.298l-4.538 5.798h-1.7V4.919h-2.739v14.994h2.739v-6.617zm11.348 6.617h10.116v-2.459h-7.377v-4.118h4.958v-2.46h-4.958V7.379h7.177V4.92h-9.916v14.994zm15.563 0h2.739V7.438h4.359V4.92h-11.476v2.52h4.378v12.474zm9.232 0h2.739V4.92h-2.739v14.994zm6.219 0h2.579V8.858l7.197 11.055h2.919V4.92h-2.599v10.996l-7.177-10.996h-2.919v14.994zm18.075-7.537c0-3.119 1.9-5.138 4.718-5.138 2.04 0 3.399 1.02 3.939 2.78l2.659-.76c-.78-2.72-3.239-4.539-6.598-4.539-4.358 0-7.557 3.239-7.557 7.657 0 4.458 3.179 7.737 7.537 7.737 4.159 0 6.978-2.739 6.978-6.837v-1.3h-8.377v2.42h5.538c-.04 1.918-1.839 3.218-4.119 3.218-2.898 0-4.718-2.08-4.718-5.238zm18.25 7.537h2.738v-5.438h3.159c3.079 0 5.138-2.039 5.138-4.778 0-2.779-2.059-4.778-5.138-4.778h-5.897v14.994zm5.857-12.535c1.5 0 2.459.88 2.459 2.32 0 1.419-.959 2.318-2.459 2.318h-3.119V7.378h3.119zm7.604 12.535h9.517v-2.519h-6.778V4.92h-2.739v14.994zm10.417 0h2.779l1.659-4.498h5.438l1.639 4.498h2.899L279.047 4.92h-2.959l-5.737 14.994zm5.318-6.917l1.839-4.978 1.819 4.978h-3.658zm12.314 6.917h2.739V7.438h4.359V4.92h-11.476v2.52h4.378v12.474zm9.232 0h2.739v-6.337h4.978v-2.44h-4.978V7.379h6.738V4.92h-9.477v14.994zm10.063-7.497c0 4.438 3.139 7.697 7.577 7.697 4.438 0 7.577-3.259 7.577-7.697 0-4.458-3.139-7.697-7.577-7.697-4.438 0-7.577 3.239-7.577 7.697zm12.315 0c0 3.119-1.879 5.178-4.738 5.178-2.859 0-4.738-2.06-4.738-5.178 0-3.119 1.879-5.178 4.738-5.178 2.859 0 4.738 2.06 4.738 5.178zm5.405 7.497h2.739v-5.978h2.419l3.819 5.978h3.118l-4.158-6.517c1.679-.58 2.819-1.98 2.819-3.959 0-2.739-2.039-4.518-4.938-4.518h-5.818v14.994zm5.778-12.535c1.359 0 2.239.82 2.239 2.06 0 1.219-.88 2.038-2.239 2.038h-3.039V7.378h3.039zm8.231 12.535h2.639V8.698l4.458 5.797h.56l4.478-5.877v11.295h2.619V4.92h-2.899l-4.418 5.918-4.539-5.918h-2.898v14.994z" fill="#171A22"/></svg>